{
	"asset":{
		"version":"2.0",
		"generator":"Houdini GLTF 2.0 Exporter"
	},
	"accessors":[
		{
			"bufferView":0,
			"componentType":5123,
			"count":19902,
			"type":"SCALAR",
			"min":[0
			],
			"max":[19901
			]
		},
		{
			"bufferView":1,
			"componentType":5126,
			"count":19902,
			"type":"VEC3",
			"min":[-0.307967484,-0.00707173347,-0.233871937
			],
			"max":[0.303757489,1.81369424,0.19761306
			]
		},
		{
			"bufferView":2,
			"componentType":5126,
			"count":19902,
			"type":"VEC2",
			"min":[0.00097465486,0.00575810671
			],
			"max":[0.997947156,0.999025345
			]
		},
		{
			"bufferView":3,
			"componentType":5126,
			"count":19902,
			"type":"VEC3",
			"min":[-0.999931157,-0.999748707,-0.999942958
			],
			"max":[0.999472141,0.99169153,0.999952674
			]
		}
	],
	"buffers":[
		{
			"uri":"evercoast.0062_data.bin",
			"byteLength":676668,
			"name":"main_buffer"
		}
	],
	"bufferViews":[
		{
			"buffer":0,
			"byteLength":39804,
			"target":34963
		},
		{
			"buffer":0,
			"byteOffset":39804,
			"byteLength":238824,
			"target":34962
		},
		{
			"buffer":0,
			"byteOffset":278628,
			"byteLength":159216,
			"target":34962
		},
		{
			"buffer":0,
			"byteOffset":437844,
			"byteLength":238824,
			"target":34962
		}
	],
	"nodes":[
		{
			"name":"HIGH",
			"mesh":0
		}
	],
	"meshes":[
		{
			"primitives":[
				{
					"attributes":{
						"NORMAL":3,
						"TEXCOORD_0":2,
						"POSITION":1
					},
					"indices":0,
					"material":0
				}
			]
		}
	],
	"materials":[
		{
			"name":"Material_1",
			"pbrMetallicRoughness":{
				"metallicFactor":0,
				"baseColorTexture":{
					"index":0
				}
			}
		}
	],
	"scenes":[
		{
			"nodes":[0
			]
		}
	],
	"textures":[
		{
			"source":0
		}
	],
	"images":[
		{
			"uri":"evercoast_0062.jpg",
			"mimeType":"image/jpeg"
		}
	],
	"scene":0
}
