{
	"asset":{
		"version":"2.0",
		"generator":"Houdini GLTF 2.0 Exporter"
	},
	"accessors":[
		{
			"bufferView":0,
			"componentType":5123,
			"count":20001,
			"type":"SCALAR",
			"min":[0
			],
			"max":[20000
			]
		},
		{
			"bufferView":1,
			"componentType":5126,
			"count":20001,
			"type":"VEC3",
			"min":[-0.280425489,-0.00767171383,-0.243121982
			],
			"max":[0.333168507,1.81533527,0.252463043
			]
		},
		{
			"bufferView":2,
			"componentType":5126,
			"count":20001,
			"type":"VEC2",
			"min":[0.000974657829,0.0175429583
			],
			"max":[0.99834609,0.999025345
			]
		},
		{
			"bufferView":3,
			"componentType":5126,
			"count":20001,
			"type":"VEC3",
			"min":[-0.999827325,-0.999999344,-0.99997437
			],
			"max":[0.999722242,0.985389054,0.999997199
			]
		}
	],
	"buffers":[
		{
			"uri":"evercoast.0125_data.bin",
			"byteLength":680036,
			"name":"main_buffer"
		}
	],
	"bufferViews":[
		{
			"buffer":0,
			"byteLength":40002,
			"target":34963
		},
		{
			"buffer":0,
			"byteOffset":40004,
			"byteLength":240012,
			"target":34962
		},
		{
			"buffer":0,
			"byteOffset":280016,
			"byteLength":160008,
			"target":34962
		},
		{
			"buffer":0,
			"byteOffset":440024,
			"byteLength":240012,
			"target":34962
		}
	],
	"nodes":[
		{
			"name":"HIGH",
			"mesh":0
		}
	],
	"meshes":[
		{
			"primitives":[
				{
					"attributes":{
						"NORMAL":3,
						"TEXCOORD_0":2,
						"POSITION":1
					},
					"indices":0,
					"material":0
				}
			]
		}
	],
	"materials":[
		{
			"name":"Material_1",
			"pbrMetallicRoughness":{
				"metallicFactor":0,
				"baseColorTexture":{
					"index":0
				}
			}
		}
	],
	"scenes":[
		{
			"nodes":[0
			]
		}
	],
	"textures":[
		{
			"source":0
		}
	],
	"images":[
		{
			"uri":"evercoast_0125.jpg",
			"mimeType":"image/jpeg"
		}
	],
	"scene":0
}
