{
	"asset":{
		"version":"2.0",
		"generator":"Houdini GLTF 2.0 Exporter"
	},
	"accessors":[
		{
			"bufferView":0,
			"componentType":5123,
			"count":20010,
			"type":"SCALAR",
			"min":[0
			],
			"max":[20009
			]
		},
		{
			"bufferView":1,
			"componentType":5126,
			"count":20010,
			"type":"VEC3",
			"min":[-0.309093475,-0.0123617649,-0.213531971
			],
			"max":[0.303443491,1.82416523,0.208475053
			]
		},
		{
			"bufferView":2,
			"componentType":5126,
			"count":20010,
			"type":"VEC2",
			"min":[0.000974654336,0.00163716078
			],
			"max":[0.998139501,0.999025345
			]
		},
		{
			"bufferView":3,
			"componentType":5126,
			"count":20010,
			"type":"VEC3",
			"min":[-0.99960047,-0.999999404,-0.999947548
			],
			"max":[0.999755085,0.995952904,0.999740899
			]
		}
	],
	"buffers":[
		{
			"uri":"evercoast.0010_data.bin",
			"byteLength":680340,
			"name":"main_buffer"
		}
	],
	"bufferViews":[
		{
			"buffer":0,
			"byteLength":40020,
			"target":34963
		},
		{
			"buffer":0,
			"byteOffset":40020,
			"byteLength":240120,
			"target":34962
		},
		{
			"buffer":0,
			"byteOffset":280140,
			"byteLength":160080,
			"target":34962
		},
		{
			"buffer":0,
			"byteOffset":440220,
			"byteLength":240120,
			"target":34962
		}
	],
	"nodes":[
		{
			"name":"HIGH",
			"mesh":0
		}
	],
	"meshes":[
		{
			"primitives":[
				{
					"attributes":{
						"NORMAL":3,
						"TEXCOORD_0":2,
						"POSITION":1
					},
					"indices":0,
					"material":0
				}
			]
		}
	],
	"materials":[
		{
			"name":"Material_1",
			"pbrMetallicRoughness":{
				"metallicFactor":0,
				"baseColorTexture":{
					"index":0
				}
			}
		}
	],
	"scenes":[
		{
			"nodes":[0
			]
		}
	],
	"textures":[
		{
			"source":0
		}
	],
	"images":[
		{
			"uri":"evercoast_0010.jpg",
			"mimeType":"image/jpeg"
		}
	],
	"scene":0
}
