{
	"asset":{
		"version":"2.0",
		"generator":"Houdini GLTF 2.0 Exporter"
	},
	"accessors":[
		{
			"bufferView":0,
			"componentType":5123,
			"count":19962,
			"type":"SCALAR",
			"min":[0
			],
			"max":[19961
			]
		},
		{
			"bufferView":1,
			"componentType":5126,
			"count":19962,
			"type":"VEC3",
			"min":[-0.331331491,-0.0138818026,-0.218132019
			],
			"max":[0.366732538,1.81953216,0.294094026
			]
		},
		{
			"bufferView":2,
			"componentType":5126,
			"count":19962,
			"type":"VEC2",
			"min":[0.000974658877,0.0145986676
			],
			"max":[0.998426437,0.999025345
			]
		},
		{
			"bufferView":3,
			"componentType":5126,
			"count":19962,
			"type":"VEC3",
			"min":[-0.999409497,-0.999924004,-0.9999879
			],
			"max":[0.999826252,0.997737586,0.999990106
			]
		}
	],
	"buffers":[
		{
			"uri":"evercoast.0103_data.bin",
			"byteLength":678708,
			"name":"main_buffer"
		}
	],
	"bufferViews":[
		{
			"buffer":0,
			"byteLength":39924,
			"target":34963
		},
		{
			"buffer":0,
			"byteOffset":39924,
			"byteLength":239544,
			"target":34962
		},
		{
			"buffer":0,
			"byteOffset":279468,
			"byteLength":159696,
			"target":34962
		},
		{
			"buffer":0,
			"byteOffset":439164,
			"byteLength":239544,
			"target":34962
		}
	],
	"nodes":[
		{
			"name":"HIGH",
			"mesh":0
		}
	],
	"meshes":[
		{
			"primitives":[
				{
					"attributes":{
						"NORMAL":3,
						"TEXCOORD_0":2,
						"POSITION":1
					},
					"indices":0,
					"material":0
				}
			]
		}
	],
	"materials":[
		{
			"name":"Material_1",
			"pbrMetallicRoughness":{
				"metallicFactor":0,
				"baseColorTexture":{
					"index":0
				}
			}
		}
	],
	"scenes":[
		{
			"nodes":[0
			]
		}
	],
	"textures":[
		{
			"source":0
		}
	],
	"images":[
		{
			"uri":"evercoast_0103.jpg",
			"mimeType":"image/jpeg"
		}
	],
	"scene":0
}
