{
	"asset":{
		"version":"2.0",
		"generator":"Houdini GLTF 2.0 Exporter"
	},
	"accessors":[
		{
			"bufferView":0,
			"componentType":5123,
			"count":19983,
			"type":"SCALAR",
			"min":[0
			],
			"max":[19982
			]
		},
		{
			"bufferView":1,
			"componentType":5126,
			"count":19983,
			"type":"VEC3",
			"min":[-0.287528515,-0.0148817301,-0.220191956
			],
			"max":[0.325968504,1.8186543,0.315607011
			]
		},
		{
			"bufferView":2,
			"componentType":5126,
			"count":19983,
			"type":"VEC2",
			"min":[0.000974658877,0.00620216131
			],
			"max":[0.997096002,0.999025345
			]
		},
		{
			"bufferView":3,
			"componentType":5126,
			"count":19983,
			"type":"VEC3",
			"min":[-0.999685287,-0.999547601,-0.999922514
			],
			"max":[0.999775767,0.999981999,0.999991059
			]
		}
	],
	"buffers":[
		{
			"uri":"evercoast.0093_data.bin",
			"byteLength":679424,
			"name":"main_buffer"
		}
	],
	"bufferViews":[
		{
			"buffer":0,
			"byteLength":39966,
			"target":34963
		},
		{
			"buffer":0,
			"byteOffset":39968,
			"byteLength":239796,
			"target":34962
		},
		{
			"buffer":0,
			"byteOffset":279764,
			"byteLength":159864,
			"target":34962
		},
		{
			"buffer":0,
			"byteOffset":439628,
			"byteLength":239796,
			"target":34962
		}
	],
	"nodes":[
		{
			"name":"HIGH",
			"mesh":0
		}
	],
	"meshes":[
		{
			"primitives":[
				{
					"attributes":{
						"NORMAL":3,
						"TEXCOORD_0":2,
						"POSITION":1
					},
					"indices":0,
					"material":0
				}
			]
		}
	],
	"materials":[
		{
			"name":"Material_1",
			"pbrMetallicRoughness":{
				"metallicFactor":0,
				"baseColorTexture":{
					"index":0
				}
			}
		}
	],
	"scenes":[
		{
			"nodes":[0
			]
		}
	],
	"textures":[
		{
			"source":0
		}
	],
	"images":[
		{
			"uri":"evercoast_0093.jpg",
			"mimeType":"image/jpeg"
		}
	],
	"scene":0
}
