{
	"asset":{
		"version":"2.0",
		"generator":"Houdini GLTF 2.0 Exporter"
	},
	"accessors":[
		{
			"bufferView":0,
			"componentType":5123,
			"count":20010,
			"type":"SCALAR",
			"min":[0
			],
			"max":[20009
			]
		},
		{
			"bufferView":1,
			"componentType":5126,
			"count":20010,
			"type":"VEC3",
			"min":[-0.307499468,-0.00750172138,-0.216231942
			],
			"max":[0.304822505,1.81963825,0.22063303
			]
		},
		{
			"bufferView":2,
			"componentType":5126,
			"count":20010,
			"type":"VEC2",
			"min":[0.000974658877,0.00220495462
			],
			"max":[0.997800469,0.999025345
			]
		},
		{
			"bufferView":3,
			"componentType":5126,
			"count":20010,
			"type":"VEC3",
			"min":[-0.999741793,-0.99872297,-0.999960124
			],
			"max":[0.999964118,0.996323586,0.999996245
			]
		}
	],
	"buffers":[
		{
			"uri":"evercoast.0083_data.bin",
			"byteLength":680340,
			"name":"main_buffer"
		}
	],
	"bufferViews":[
		{
			"buffer":0,
			"byteLength":40020,
			"target":34963
		},
		{
			"buffer":0,
			"byteOffset":40020,
			"byteLength":240120,
			"target":34962
		},
		{
			"buffer":0,
			"byteOffset":280140,
			"byteLength":160080,
			"target":34962
		},
		{
			"buffer":0,
			"byteOffset":440220,
			"byteLength":240120,
			"target":34962
		}
	],
	"nodes":[
		{
			"name":"HIGH",
			"mesh":0
		}
	],
	"meshes":[
		{
			"primitives":[
				{
					"attributes":{
						"NORMAL":3,
						"TEXCOORD_0":2,
						"POSITION":1
					},
					"indices":0,
					"material":0
				}
			]
		}
	],
	"materials":[
		{
			"name":"Material_1",
			"pbrMetallicRoughness":{
				"metallicFactor":0,
				"baseColorTexture":{
					"index":0
				}
			}
		}
	],
	"scenes":[
		{
			"nodes":[0
			]
		}
	],
	"textures":[
		{
			"source":0
		}
	],
	"images":[
		{
			"uri":"evercoast_0083.jpg",
			"mimeType":"image/jpeg"
		}
	],
	"scene":0
}
