{
	"asset":{
		"version":"2.0",
		"generator":"Houdini GLTF 2.0 Exporter"
	},
	"accessors":[
		{
			"bufferView":0,
			"componentType":5123,
			"count":19983,
			"type":"SCALAR",
			"min":[0
			],
			"max":[19982
			]
		},
		{
			"bufferView":1,
			"componentType":5126,
			"count":19983,
			"type":"VEC3",
			"min":[-0.328433514,-0.00724172592,-0.217651963
			],
			"max":[0.368536532,1.81848025,0.293197036
			]
		},
		{
			"bufferView":2,
			"componentType":5126,
			"count":19983,
			"type":"VEC2",
			"min":[0.000974658877,0.00661170483
			],
			"max":[0.997804582,0.999025345
			]
		},
		{
			"bufferView":3,
			"componentType":5126,
			"count":19983,
			"type":"VEC3",
			"min":[-0.999271154,-0.999894917,-0.999895275
			],
			"max":[0.999783099,0.998301446,0.999890804
			]
		}
	],
	"buffers":[
		{
			"uri":"evercoast.0102_data.bin",
			"byteLength":679424,
			"name":"main_buffer"
		}
	],
	"bufferViews":[
		{
			"buffer":0,
			"byteLength":39966,
			"target":34963
		},
		{
			"buffer":0,
			"byteOffset":39968,
			"byteLength":239796,
			"target":34962
		},
		{
			"buffer":0,
			"byteOffset":279764,
			"byteLength":159864,
			"target":34962
		},
		{
			"buffer":0,
			"byteOffset":439628,
			"byteLength":239796,
			"target":34962
		}
	],
	"nodes":[
		{
			"name":"HIGH",
			"mesh":0
		}
	],
	"meshes":[
		{
			"primitives":[
				{
					"attributes":{
						"NORMAL":3,
						"TEXCOORD_0":2,
						"POSITION":1
					},
					"indices":0,
					"material":0
				}
			]
		}
	],
	"materials":[
		{
			"name":"Material_1",
			"pbrMetallicRoughness":{
				"metallicFactor":0,
				"baseColorTexture":{
					"index":0
				}
			}
		}
	],
	"scenes":[
		{
			"nodes":[0
			]
		}
	],
	"textures":[
		{
			"source":0
		}
	],
	"images":[
		{
			"uri":"evercoast_0102.jpg",
			"mimeType":"image/jpeg"
		}
	],
	"scene":0
}
