{
	"asset":{
		"version":"2.0",
		"generator":"Houdini GLTF 2.0 Exporter"
	},
	"accessors":[
		{
			"bufferView":0,
			"componentType":5123,
			"count":19917,
			"type":"SCALAR",
			"min":[0
			],
			"max":[19916
			]
		},
		{
			"bufferView":1,
			"componentType":5126,
			"count":19917,
			"type":"VEC3",
			"min":[-0.307587504,-0.0148017406,-0.22320199
			],
			"max":[0.303866506,1.82151628,0.199004054
			]
		},
		{
			"bufferView":2,
			"componentType":5126,
			"count":19917,
			"type":"VEC2",
			"min":[0.000974658527,0.00882840157
			],
			"max":[0.998308897,0.999025345
			]
		},
		{
			"bufferView":3,
			"componentType":5126,
			"count":19917,
			"type":"VEC3",
			"min":[-0.998680532,-0.999431491,-0.999952495
			],
			"max":[0.999857128,0.996669292,0.99993813
			]
		}
	],
	"buffers":[
		{
			"uri":"evercoast.0045_data.bin",
			"byteLength":677180,
			"name":"main_buffer"
		}
	],
	"bufferViews":[
		{
			"buffer":0,
			"byteLength":39834,
			"target":34963
		},
		{
			"buffer":0,
			"byteOffset":39836,
			"byteLength":239004,
			"target":34962
		},
		{
			"buffer":0,
			"byteOffset":278840,
			"byteLength":159336,
			"target":34962
		},
		{
			"buffer":0,
			"byteOffset":438176,
			"byteLength":239004,
			"target":34962
		}
	],
	"nodes":[
		{
			"name":"HIGH",
			"mesh":0
		}
	],
	"meshes":[
		{
			"primitives":[
				{
					"attributes":{
						"NORMAL":3,
						"TEXCOORD_0":2,
						"POSITION":1
					},
					"indices":0,
					"material":0
				}
			]
		}
	],
	"materials":[
		{
			"name":"Material_1",
			"pbrMetallicRoughness":{
				"metallicFactor":0,
				"baseColorTexture":{
					"index":0
				}
			}
		}
	],
	"scenes":[
		{
			"nodes":[0
			]
		}
	],
	"textures":[
		{
			"source":0
		}
	],
	"images":[
		{
			"uri":"evercoast_0045.jpg",
			"mimeType":"image/jpeg"
		}
	],
	"scene":0
}
