{
	"asset":{
		"version":"2.0",
		"generator":"Houdini GLTF 2.0 Exporter"
	},
	"accessors":[
		{
			"bufferView":0,
			"componentType":5123,
			"count":20019,
			"type":"SCALAR",
			"min":[0
			],
			"max":[20018
			]
		},
		{
			"bufferView":1,
			"componentType":5126,
			"count":20019,
			"type":"VEC3",
			"min":[-0.282946467,-0.0125718117,-0.236811996
			],
			"max":[0.326886535,1.8144803,0.316241026
			]
		},
		{
			"bufferView":2,
			"componentType":5126,
			"count":20019,
			"type":"VEC2",
			"min":[0.000974658469,0.00662392378
			],
			"max":[0.997697473,0.999025345
			]
		},
		{
			"bufferView":3,
			"componentType":5126,
			"count":20019,
			"type":"VEC3",
			"min":[-0.999835432,-0.998587668,-0.999961317
			],
			"max":[0.99985683,0.999982417,0.999960482
			]
		}
	],
	"buffers":[
		{
			"uri":"evercoast.0119_data.bin",
			"byteLength":680648,
			"name":"main_buffer"
		}
	],
	"bufferViews":[
		{
			"buffer":0,
			"byteLength":40038,
			"target":34963
		},
		{
			"buffer":0,
			"byteOffset":40040,
			"byteLength":240228,
			"target":34962
		},
		{
			"buffer":0,
			"byteOffset":280268,
			"byteLength":160152,
			"target":34962
		},
		{
			"buffer":0,
			"byteOffset":440420,
			"byteLength":240228,
			"target":34962
		}
	],
	"nodes":[
		{
			"name":"HIGH",
			"mesh":0
		}
	],
	"meshes":[
		{
			"primitives":[
				{
					"attributes":{
						"NORMAL":3,
						"TEXCOORD_0":2,
						"POSITION":1
					},
					"indices":0,
					"material":0
				}
			]
		}
	],
	"materials":[
		{
			"name":"Material_1",
			"pbrMetallicRoughness":{
				"metallicFactor":0,
				"baseColorTexture":{
					"index":0
				}
			}
		}
	],
	"scenes":[
		{
			"nodes":[0
			]
		}
	],
	"textures":[
		{
			"source":0
		}
	],
	"images":[
		{
			"uri":"evercoast_0119.jpg",
			"mimeType":"image/jpeg"
		}
	],
	"scene":0
}
