{
	"asset":{
		"version":"2.0",
		"generator":"Houdini GLTF 2.0 Exporter"
	},
	"accessors":[
		{
			"bufferView":0,
			"componentType":5123,
			"count":20001,
			"type":"SCALAR",
			"min":[0
			],
			"max":[20000
			]
		},
		{
			"bufferView":1,
			"componentType":5126,
			"count":20001,
			"type":"VEC3",
			"min":[-0.308491468,-0.0149217844,-0.211741924
			],
			"max":[0.306529522,1.82429528,0.20976305
			]
		},
		{
			"bufferView":2,
			"componentType":5126,
			"count":20001,
			"type":"VEC2",
			"min":[0.000974658877,0.0133550167
			],
			"max":[0.997323394,0.999025345
			]
		},
		{
			"bufferView":3,
			"componentType":5126,
			"count":20001,
			"type":"VEC3",
			"min":[-0.999838114,-0.999716997,-1
			],
			"max":[0.999688387,0.998545766,0.999944508
			]
		}
	],
	"buffers":[
		{
			"uri":"evercoast.0014_data.bin",
			"byteLength":680036,
			"name":"main_buffer"
		}
	],
	"bufferViews":[
		{
			"buffer":0,
			"byteLength":40002,
			"target":34963
		},
		{
			"buffer":0,
			"byteOffset":40004,
			"byteLength":240012,
			"target":34962
		},
		{
			"buffer":0,
			"byteOffset":280016,
			"byteLength":160008,
			"target":34962
		},
		{
			"buffer":0,
			"byteOffset":440024,
			"byteLength":240012,
			"target":34962
		}
	],
	"nodes":[
		{
			"name":"HIGH",
			"mesh":0
		}
	],
	"meshes":[
		{
			"primitives":[
				{
					"attributes":{
						"NORMAL":3,
						"TEXCOORD_0":2,
						"POSITION":1
					},
					"indices":0,
					"material":0
				}
			]
		}
	],
	"materials":[
		{
			"name":"Material_1",
			"pbrMetallicRoughness":{
				"metallicFactor":0,
				"baseColorTexture":{
					"index":0
				}
			}
		}
	],
	"scenes":[
		{
			"nodes":[0
			]
		}
	],
	"textures":[
		{
			"source":0
		}
	],
	"images":[
		{
			"uri":"evercoast_0014.jpg",
			"mimeType":"image/jpeg"
		}
	],
	"scene":0
}
