{
	"asset":{
		"version":"2.0",
		"generator":"Houdini GLTF 2.0 Exporter"
	},
	"accessors":[
		{
			"bufferView":0,
			"componentType":5123,
			"count":19965,
			"type":"SCALAR",
			"min":[0
			],
			"max":[19964
			]
		},
		{
			"bufferView":1,
			"componentType":5126,
			"count":19965,
			"type":"VEC3",
			"min":[-0.310941517,-0.0123717785,-0.241461992
			],
			"max":[0.302052498,1.82021725,0.202998042
			]
		},
		{
			"bufferView":2,
			"componentType":5126,
			"count":19965,
			"type":"VEC2",
			"min":[0.000974658877,0.0109136701
			],
			"max":[0.998445988,0.999025345
			]
		},
		{
			"bufferView":3,
			"componentType":5126,
			"count":19965,
			"type":"VEC3",
			"min":[-0.999898672,-0.999993205,-0.999808788
			],
			"max":[0.999845147,0.994381785,0.999923527
			]
		}
	],
	"buffers":[
		{
			"uri":"evercoast.0070_data.bin",
			"byteLength":678812,
			"name":"main_buffer"
		}
	],
	"bufferViews":[
		{
			"buffer":0,
			"byteLength":39930,
			"target":34963
		},
		{
			"buffer":0,
			"byteOffset":39932,
			"byteLength":239580,
			"target":34962
		},
		{
			"buffer":0,
			"byteOffset":279512,
			"byteLength":159720,
			"target":34962
		},
		{
			"buffer":0,
			"byteOffset":439232,
			"byteLength":239580,
			"target":34962
		}
	],
	"nodes":[
		{
			"name":"HIGH",
			"mesh":0
		}
	],
	"meshes":[
		{
			"primitives":[
				{
					"attributes":{
						"NORMAL":3,
						"TEXCOORD_0":2,
						"POSITION":1
					},
					"indices":0,
					"material":0
				}
			]
		}
	],
	"materials":[
		{
			"name":"Material_1",
			"pbrMetallicRoughness":{
				"metallicFactor":0,
				"baseColorTexture":{
					"index":0
				}
			}
		}
	],
	"scenes":[
		{
			"nodes":[0
			]
		}
	],
	"textures":[
		{
			"source":0
		}
	],
	"images":[
		{
			"uri":"evercoast_0070.jpg",
			"mimeType":"image/jpeg"
		}
	],
	"scene":0
}
