{
	"asset":{
		"version":"2.0",
		"generator":"Houdini GLTF 2.0 Exporter"
	},
	"accessors":[
		{
			"bufferView":0,
			"componentType":5123,
			"count":20016,
			"type":"SCALAR",
			"min":[0
			],
			"max":[20015
			]
		},
		{
			"bufferView":1,
			"componentType":5126,
			"count":20016,
			"type":"VEC3",
			"min":[-0.308806479,-0.0103317499,-0.211311936
			],
			"max":[0.308229506,1.82357621,0.208710015
			]
		},
		{
			"bufferView":2,
			"componentType":5126,
			"count":20016,
			"type":"VEC2",
			"min":[0.000974655501,0.00135970116
			],
			"max":[0.997474551,0.999025345
			]
		},
		{
			"bufferView":3,
			"componentType":5126,
			"count":20016,
			"type":"VEC3",
			"min":[-0.999297023,-0.999829292,-0.999987066
			],
			"max":[0.99971807,0.99122417,0.999910414
			]
		}
	],
	"buffers":[
		{
			"uri":"evercoast.0012_data.bin",
			"byteLength":680544,
			"name":"main_buffer"
		}
	],
	"bufferViews":[
		{
			"buffer":0,
			"byteLength":40032,
			"target":34963
		},
		{
			"buffer":0,
			"byteOffset":40032,
			"byteLength":240192,
			"target":34962
		},
		{
			"buffer":0,
			"byteOffset":280224,
			"byteLength":160128,
			"target":34962
		},
		{
			"buffer":0,
			"byteOffset":440352,
			"byteLength":240192,
			"target":34962
		}
	],
	"nodes":[
		{
			"name":"HIGH",
			"mesh":0
		}
	],
	"meshes":[
		{
			"primitives":[
				{
					"attributes":{
						"NORMAL":3,
						"TEXCOORD_0":2,
						"POSITION":1
					},
					"indices":0,
					"material":0
				}
			]
		}
	],
	"materials":[
		{
			"name":"Material_1",
			"pbrMetallicRoughness":{
				"metallicFactor":0,
				"baseColorTexture":{
					"index":0
				}
			}
		}
	],
	"scenes":[
		{
			"nodes":[0
			]
		}
	],
	"textures":[
		{
			"source":0
		}
	],
	"images":[
		{
			"uri":"evercoast_0012.jpg",
			"mimeType":"image/jpeg"
		}
	],
	"scene":0
}
