{
	"asset":{
		"version":"2.0",
		"generator":"Houdini GLTF 2.0 Exporter"
	},
	"accessors":[
		{
			"bufferView":0,
			"componentType":5123,
			"count":20025,
			"type":"SCALAR",
			"min":[0
			],
			"max":[20024
			]
		},
		{
			"bufferView":1,
			"componentType":5126,
			"count":20025,
			"type":"VEC3",
			"min":[-0.311177492,-0.0104618073,-0.244642019
			],
			"max":[0.308427513,1.81991124,0.206296027
			]
		},
		{
			"bufferView":2,
			"componentType":5126,
			"count":20025,
			"type":"VEC2",
			"min":[0.000974658877,0.00231182575
			],
			"max":[0.997516811,0.999025345
			]
		},
		{
			"bufferView":3,
			"componentType":5126,
			"count":20025,
			"type":"VEC3",
			"min":[-0.999774694,-0.999692202,-0.999991834
			],
			"max":[0.999652147,0.999971926,0.99997735
			]
		}
	],
	"buffers":[
		{
			"uri":"evercoast.0073_data.bin",
			"byteLength":680852,
			"name":"main_buffer"
		}
	],
	"bufferViews":[
		{
			"buffer":0,
			"byteLength":40050,
			"target":34963
		},
		{
			"buffer":0,
			"byteOffset":40052,
			"byteLength":240300,
			"target":34962
		},
		{
			"buffer":0,
			"byteOffset":280352,
			"byteLength":160200,
			"target":34962
		},
		{
			"buffer":0,
			"byteOffset":440552,
			"byteLength":240300,
			"target":34962
		}
	],
	"nodes":[
		{
			"name":"HIGH",
			"mesh":0
		}
	],
	"meshes":[
		{
			"primitives":[
				{
					"attributes":{
						"NORMAL":3,
						"TEXCOORD_0":2,
						"POSITION":1
					},
					"indices":0,
					"material":0
				}
			]
		}
	],
	"materials":[
		{
			"name":"Material_1",
			"pbrMetallicRoughness":{
				"metallicFactor":0,
				"baseColorTexture":{
					"index":0
				}
			}
		}
	],
	"scenes":[
		{
			"nodes":[0
			]
		}
	],
	"textures":[
		{
			"source":0
		}
	],
	"images":[
		{
			"uri":"evercoast_0073.jpg",
			"mimeType":"image/jpeg"
		}
	],
	"scene":0
}
