{
	"asset":{
		"version":"2.0",
		"generator":"Houdini GLTF 2.0 Exporter"
	},
	"accessors":[
		{
			"bufferView":0,
			"componentType":5123,
			"count":19920,
			"type":"SCALAR",
			"min":[0
			],
			"max":[19919
			]
		},
		{
			"bufferView":1,
			"componentType":5126,
			"count":19920,
			"type":"VEC3",
			"min":[-0.286470473,-0.00880181789,-0.235531926
			],
			"max":[0.327024519,1.81300116,0.320691049
			]
		},
		{
			"bufferView":2,
			"componentType":5126,
			"count":19920,
			"type":"VEC2",
			"min":[0.000974626164,0.0267037153
			],
			"max":[0.998343468,0.999025345
			]
		},
		{
			"bufferView":3,
			"componentType":5126,
			"count":19920,
			"type":"VEC3",
			"min":[-0.99996531,-0.999994636,-0.99979496
			],
			"max":[0.999918222,0.991987884,0.999890983
			]
		}
	],
	"buffers":[
		{
			"uri":"evercoast.0116_data.bin",
			"byteLength":677280,
			"name":"main_buffer"
		}
	],
	"bufferViews":[
		{
			"buffer":0,
			"byteLength":39840,
			"target":34963
		},
		{
			"buffer":0,
			"byteOffset":39840,
			"byteLength":239040,
			"target":34962
		},
		{
			"buffer":0,
			"byteOffset":278880,
			"byteLength":159360,
			"target":34962
		},
		{
			"buffer":0,
			"byteOffset":438240,
			"byteLength":239040,
			"target":34962
		}
	],
	"nodes":[
		{
			"name":"HIGH",
			"mesh":0
		}
	],
	"meshes":[
		{
			"primitives":[
				{
					"attributes":{
						"NORMAL":3,
						"TEXCOORD_0":2,
						"POSITION":1
					},
					"indices":0,
					"material":0
				}
			]
		}
	],
	"materials":[
		{
			"name":"Material_1",
			"pbrMetallicRoughness":{
				"metallicFactor":0,
				"baseColorTexture":{
					"index":0
				}
			}
		}
	],
	"scenes":[
		{
			"nodes":[0
			]
		}
	],
	"textures":[
		{
			"source":0
		}
	],
	"images":[
		{
			"uri":"evercoast_0116.jpg",
			"mimeType":"image/jpeg"
		}
	],
	"scene":0
}
