{
	"asset":{
		"version":"2.0",
		"generator":"Houdini GLTF 2.0 Exporter"
	},
	"accessors":[
		{
			"bufferView":0,
			"componentType":5123,
			"count":19977,
			"type":"SCALAR",
			"min":[0
			],
			"max":[19976
			]
		},
		{
			"bufferView":1,
			"componentType":5126,
			"count":19977,
			"type":"VEC3",
			"min":[-0.281625509,-0.0123317242,-0.223001957
			],
			"max":[0.306453526,1.81425321,0.284246027
			]
		},
		{
			"bufferView":2,
			"componentType":5126,
			"count":19977,
			"type":"VEC2",
			"min":[0.000974656898,0.00110781193
			],
			"max":[0.998309553,0.999025345
			]
		},
		{
			"bufferView":3,
			"componentType":5126,
			"count":19977,
			"type":"VEC3",
			"min":[-0.999932468,-0.99974376,-0.999934673
			],
			"max":[0.99996835,0.994581282,0.999955773
			]
		}
	],
	"buffers":[
		{
			"uri":"evercoast.0111_data.bin",
			"byteLength":679220,
			"name":"main_buffer"
		}
	],
	"bufferViews":[
		{
			"buffer":0,
			"byteLength":39954,
			"target":34963
		},
		{
			"buffer":0,
			"byteOffset":39956,
			"byteLength":239724,
			"target":34962
		},
		{
			"buffer":0,
			"byteOffset":279680,
			"byteLength":159816,
			"target":34962
		},
		{
			"buffer":0,
			"byteOffset":439496,
			"byteLength":239724,
			"target":34962
		}
	],
	"nodes":[
		{
			"name":"HIGH",
			"mesh":0
		}
	],
	"meshes":[
		{
			"primitives":[
				{
					"attributes":{
						"NORMAL":3,
						"TEXCOORD_0":2,
						"POSITION":1
					},
					"indices":0,
					"material":0
				}
			]
		}
	],
	"materials":[
		{
			"name":"Material_1",
			"pbrMetallicRoughness":{
				"metallicFactor":0,
				"baseColorTexture":{
					"index":0
				}
			}
		}
	],
	"scenes":[
		{
			"nodes":[0
			]
		}
	],
	"textures":[
		{
			"source":0
		}
	],
	"images":[
		{
			"uri":"evercoast_0111.jpg",
			"mimeType":"image/jpeg"
		}
	],
	"scene":0
}
