{
	"asset":{
		"version":"2.0",
		"generator":"Houdini GLTF 2.0 Exporter"
	},
	"accessors":[
		{
			"bufferView":0,
			"componentType":5123,
			"count":20016,
			"type":"SCALAR",
			"min":[0
			],
			"max":[20015
			]
		},
		{
			"bufferView":1,
			"componentType":5126,
			"count":20016,
			"type":"VEC3",
			"min":[-0.312118471,-0.00592172146,-0.213491917
			],
			"max":[0.307606518,1.82373822,0.20767802
			]
		},
		{
			"bufferView":2,
			"componentType":5126,
			"count":20016,
			"type":"VEC2",
			"min":[0.000974657305,0.00886654854
			],
			"max":[0.997407734,0.999025345
			]
		},
		{
			"bufferView":3,
			"componentType":5126,
			"count":20016,
			"type":"VEC3",
			"min":[-0.99932462,-0.999875188,-0.999986887
			],
			"max":[0.999683857,0.996577978,0.999645293
			]
		}
	],
	"buffers":[
		{
			"uri":"evercoast.0002_data.bin",
			"byteLength":680544,
			"name":"main_buffer"
		}
	],
	"bufferViews":[
		{
			"buffer":0,
			"byteLength":40032,
			"target":34963
		},
		{
			"buffer":0,
			"byteOffset":40032,
			"byteLength":240192,
			"target":34962
		},
		{
			"buffer":0,
			"byteOffset":280224,
			"byteLength":160128,
			"target":34962
		},
		{
			"buffer":0,
			"byteOffset":440352,
			"byteLength":240192,
			"target":34962
		}
	],
	"nodes":[
		{
			"name":"HIGH",
			"mesh":0
		}
	],
	"meshes":[
		{
			"primitives":[
				{
					"attributes":{
						"NORMAL":3,
						"TEXCOORD_0":2,
						"POSITION":1
					},
					"indices":0,
					"material":0
				}
			]
		}
	],
	"materials":[
		{
			"name":"Material_1",
			"pbrMetallicRoughness":{
				"metallicFactor":0,
				"baseColorTexture":{
					"index":0
				}
			}
		}
	],
	"scenes":[
		{
			"nodes":[0
			]
		}
	],
	"textures":[
		{
			"source":0
		}
	],
	"images":[
		{
			"uri":"evercoast_0002.jpg",
			"mimeType":"image/jpeg"
		}
	],
	"scene":0
}
