{
	"asset":{
		"version":"2.0",
		"generator":"Houdini GLTF 2.0 Exporter"
	},
	"accessors":[
		{
			"bufferView":0,
			"componentType":5123,
			"count":19977,
			"type":"SCALAR",
			"min":[0
			],
			"max":[19976
			]
		},
		{
			"bufferView":1,
			"componentType":5126,
			"count":19977,
			"type":"VEC3",
			"min":[-0.307234466,-0.0127017498,-0.211601973
			],
			"max":[0.304874539,1.82331419,0.209097028
			]
		},
		{
			"bufferView":2,
			"componentType":5126,
			"count":19977,
			"type":"VEC2",
			"min":[0.000974658877,0.00414413214
			],
			"max":[0.998499334,0.999025345
			]
		},
		{
			"bufferView":3,
			"componentType":5126,
			"count":19977,
			"type":"VEC3",
			"min":[-0.999501586,-0.99931407,-0.999967933
			],
			"max":[0.999923289,0.992626727,0.999956131
			]
		}
	],
	"buffers":[
		{
			"uri":"evercoast.0013_data.bin",
			"byteLength":679220,
			"name":"main_buffer"
		}
	],
	"bufferViews":[
		{
			"buffer":0,
			"byteLength":39954,
			"target":34963
		},
		{
			"buffer":0,
			"byteOffset":39956,
			"byteLength":239724,
			"target":34962
		},
		{
			"buffer":0,
			"byteOffset":279680,
			"byteLength":159816,
			"target":34962
		},
		{
			"buffer":0,
			"byteOffset":439496,
			"byteLength":239724,
			"target":34962
		}
	],
	"nodes":[
		{
			"name":"HIGH",
			"mesh":0
		}
	],
	"meshes":[
		{
			"primitives":[
				{
					"attributes":{
						"NORMAL":3,
						"TEXCOORD_0":2,
						"POSITION":1
					},
					"indices":0,
					"material":0
				}
			]
		}
	],
	"materials":[
		{
			"name":"Material_1",
			"pbrMetallicRoughness":{
				"metallicFactor":0,
				"baseColorTexture":{
					"index":0
				}
			}
		}
	],
	"scenes":[
		{
			"nodes":[0
			]
		}
	],
	"textures":[
		{
			"source":0
		}
	],
	"images":[
		{
			"uri":"evercoast_0013.jpg",
			"mimeType":"image/jpeg"
		}
	],
	"scene":0
}
