{
	"asset":{
		"version":"2.0",
		"generator":"Houdini GLTF 2.0 Exporter"
	},
	"accessors":[
		{
			"bufferView":0,
			"componentType":5123,
			"count":19863,
			"type":"SCALAR",
			"min":[0
			],
			"max":[19862
			]
		},
		{
			"bufferView":1,
			"componentType":5126,
			"count":19863,
			"type":"VEC3",
			"min":[-0.28628248,-0.0152517557,-0.233821988
			],
			"max":[0.32356751,1.81228626,0.314087033
			]
		},
		{
			"bufferView":2,
			"componentType":5126,
			"count":19863,
			"type":"VEC2",
			"min":[0.000974654336,0.00288170576
			],
			"max":[0.998020709,0.999025345
			]
		},
		{
			"bufferView":3,
			"componentType":5126,
			"count":19863,
			"type":"VEC3",
			"min":[-0.999855638,-0.999757111,-0.999988019
			],
			"max":[0.999280691,0.996871293,0.999990523
			]
		}
	],
	"buffers":[
		{
			"uri":"evercoast.0115_data.bin",
			"byteLength":675344,
			"name":"main_buffer"
		}
	],
	"bufferViews":[
		{
			"buffer":0,
			"byteLength":39726,
			"target":34963
		},
		{
			"buffer":0,
			"byteOffset":39728,
			"byteLength":238356,
			"target":34962
		},
		{
			"buffer":0,
			"byteOffset":278084,
			"byteLength":158904,
			"target":34962
		},
		{
			"buffer":0,
			"byteOffset":436988,
			"byteLength":238356,
			"target":34962
		}
	],
	"nodes":[
		{
			"name":"HIGH",
			"mesh":0
		}
	],
	"meshes":[
		{
			"primitives":[
				{
					"attributes":{
						"NORMAL":3,
						"TEXCOORD_0":2,
						"POSITION":1
					},
					"indices":0,
					"material":0
				}
			]
		}
	],
	"materials":[
		{
			"name":"Material_1",
			"pbrMetallicRoughness":{
				"metallicFactor":0,
				"baseColorTexture":{
					"index":0
				}
			}
		}
	],
	"scenes":[
		{
			"nodes":[0
			]
		}
	],
	"textures":[
		{
			"source":0
		}
	],
	"images":[
		{
			"uri":"evercoast_0115.jpg",
			"mimeType":"image/jpeg"
		}
	],
	"scene":0
}
