{
	"asset":{
		"version":"2.0",
		"generator":"Houdini GLTF 2.0 Exporter"
	},
	"accessors":[
		{
			"bufferView":0,
			"componentType":5123,
			"count":20004,
			"type":"SCALAR",
			"min":[0
			],
			"max":[20003
			]
		},
		{
			"bufferView":1,
			"componentType":5126,
			"count":20004,
			"type":"VEC3",
			"min":[-0.307581484,-0.0132718086,-0.223361969
			],
			"max":[0.305629492,1.82100916,0.199340045
			]
		},
		{
			"bufferView":2,
			"componentType":5126,
			"count":20004,
			"type":"VEC2",
			"min":[0.000974658877,0.0117515326
			],
			"max":[0.998494089,0.999025345
			]
		},
		{
			"bufferView":3,
			"componentType":5126,
			"count":20004,
			"type":"VEC3",
			"min":[-0.99806869,-0.999892473,-0.999981403
			],
			"max":[0.999912918,0.987684727,0.999792635
			]
		}
	],
	"buffers":[
		{
			"uri":"evercoast.0044_data.bin",
			"byteLength":680136,
			"name":"main_buffer"
		}
	],
	"bufferViews":[
		{
			"buffer":0,
			"byteLength":40008,
			"target":34963
		},
		{
			"buffer":0,
			"byteOffset":40008,
			"byteLength":240048,
			"target":34962
		},
		{
			"buffer":0,
			"byteOffset":280056,
			"byteLength":160032,
			"target":34962
		},
		{
			"buffer":0,
			"byteOffset":440088,
			"byteLength":240048,
			"target":34962
		}
	],
	"nodes":[
		{
			"name":"HIGH",
			"mesh":0
		}
	],
	"meshes":[
		{
			"primitives":[
				{
					"attributes":{
						"NORMAL":3,
						"TEXCOORD_0":2,
						"POSITION":1
					},
					"indices":0,
					"material":0
				}
			]
		}
	],
	"materials":[
		{
			"name":"Material_1",
			"pbrMetallicRoughness":{
				"metallicFactor":0,
				"baseColorTexture":{
					"index":0
				}
			}
		}
	],
	"scenes":[
		{
			"nodes":[0
			]
		}
	],
	"textures":[
		{
			"source":0
		}
	],
	"images":[
		{
			"uri":"evercoast_0044.jpg",
			"mimeType":"image/jpeg"
		}
	],
	"scene":0
}
