{
	"asset":{
		"version":"2.0",
		"generator":"Houdini GLTF 2.0 Exporter"
	},
	"accessors":[
		{
			"bufferView":0,
			"componentType":5123,
			"count":20043,
			"type":"SCALAR",
			"min":[0
			],
			"max":[20042
			]
		},
		{
			"bufferView":1,
			"componentType":5126,
			"count":20043,
			"type":"VEC3",
			"min":[-0.286346495,-0.0132718086,-0.230852008
			],
			"max":[0.347396493,1.81414127,0.193876028
			]
		},
		{
			"bufferView":2,
			"componentType":5126,
			"count":20043,
			"type":"VEC2",
			"min":[0.000974658877,0.0086914897
			],
			"max":[0.998987436,0.999025345
			]
		},
		{
			"bufferView":3,
			"componentType":5126,
			"count":20043,
			"type":"VEC3",
			"min":[-0.999997199,-0.999520421,-0.999969959
			],
			"max":[0.999720633,0.999872386,0.999920487
			]
		}
	],
	"buffers":[
		{
			"uri":"evercoast.0131_data.bin",
			"byteLength":681464,
			"name":"main_buffer"
		}
	],
	"bufferViews":[
		{
			"buffer":0,
			"byteLength":40086,
			"target":34963
		},
		{
			"buffer":0,
			"byteOffset":40088,
			"byteLength":240516,
			"target":34962
		},
		{
			"buffer":0,
			"byteOffset":280604,
			"byteLength":160344,
			"target":34962
		},
		{
			"buffer":0,
			"byteOffset":440948,
			"byteLength":240516,
			"target":34962
		}
	],
	"nodes":[
		{
			"name":"HIGH",
			"mesh":0
		}
	],
	"meshes":[
		{
			"primitives":[
				{
					"attributes":{
						"NORMAL":3,
						"TEXCOORD_0":2,
						"POSITION":1
					},
					"indices":0,
					"material":0
				}
			]
		}
	],
	"materials":[
		{
			"name":"Material_1",
			"pbrMetallicRoughness":{
				"metallicFactor":0,
				"baseColorTexture":{
					"index":0
				}
			}
		}
	],
	"scenes":[
		{
			"nodes":[0
			]
		}
	],
	"textures":[
		{
			"source":0
		}
	],
	"images":[
		{
			"uri":"evercoast_0131.jpg",
			"mimeType":"image/jpeg"
		}
	],
	"scene":0
}
