{
	"asset":{
		"version":"2.0",
		"generator":"Houdini GLTF 2.0 Exporter"
	},
	"accessors":[
		{
			"bufferView":0,
			"componentType":5123,
			"count":19941,
			"type":"SCALAR",
			"min":[0
			],
			"max":[19940
			]
		},
		{
			"bufferView":1,
			"componentType":5126,
			"count":19941,
			"type":"VEC3",
			"min":[-0.289450467,-0.00740170479,-0.24080193
			],
			"max":[0.338349521,1.81362915,0.215473056
			]
		},
		{
			"bufferView":2,
			"componentType":5126,
			"count":19941,
			"type":"VEC2",
			"min":[0.000974658877,0.06335783
			],
			"max":[0.998028278,0.999025345
			]
		},
		{
			"bufferView":3,
			"componentType":5126,
			"count":19941,
			"type":"VEC3",
			"min":[-0.99975878,-0.999833643,-0.99987781
			],
			"max":[0.999841034,0.998595357,0.999931157
			]
		}
	],
	"buffers":[
		{
			"uri":"evercoast.0128_data.bin",
			"byteLength":677996,
			"name":"main_buffer"
		}
	],
	"bufferViews":[
		{
			"buffer":0,
			"byteLength":39882,
			"target":34963
		},
		{
			"buffer":0,
			"byteOffset":39884,
			"byteLength":239292,
			"target":34962
		},
		{
			"buffer":0,
			"byteOffset":279176,
			"byteLength":159528,
			"target":34962
		},
		{
			"buffer":0,
			"byteOffset":438704,
			"byteLength":239292,
			"target":34962
		}
	],
	"nodes":[
		{
			"name":"HIGH",
			"mesh":0
		}
	],
	"meshes":[
		{
			"primitives":[
				{
					"attributes":{
						"NORMAL":3,
						"TEXCOORD_0":2,
						"POSITION":1
					},
					"indices":0,
					"material":0
				}
			]
		}
	],
	"materials":[
		{
			"name":"Material_1",
			"pbrMetallicRoughness":{
				"metallicFactor":0,
				"baseColorTexture":{
					"index":0
				}
			}
		}
	],
	"scenes":[
		{
			"nodes":[0
			]
		}
	],
	"textures":[
		{
			"source":0
		}
	],
	"images":[
		{
			"uri":"evercoast_0128.jpg",
			"mimeType":"image/jpeg"
		}
	],
	"scene":0
}
