{
	"asset":{
		"version":"2.0",
		"generator":"Houdini GLTF 2.0 Exporter"
	},
	"accessors":[
		{
			"bufferView":0,
			"componentType":5123,
			"count":19974,
			"type":"SCALAR",
			"min":[0
			],
			"max":[19973
			]
		},
		{
			"bufferView":1,
			"componentType":5126,
			"count":19974,
			"type":"VEC3",
			"min":[-0.306503475,-0.0121717453,-0.213231921
			],
			"max":[0.307297528,1.82222724,0.209585011
			]
		},
		{
			"bufferView":2,
			"componentType":5126,
			"count":19974,
			"type":"VEC2",
			"min":[0.00097465713,0.00498533249
			],
			"max":[0.998439312,0.999025345
			]
		},
		{
			"bufferView":3,
			"componentType":5126,
			"count":19974,
			"type":"VEC3",
			"min":[-0.999750793,-0.999500155,-0.999991238
			],
			"max":[0.999160647,0.999583185,0.999283671
			]
		}
	],
	"buffers":[
		{
			"uri":"evercoast.0022_data.bin",
			"byteLength":679116,
			"name":"main_buffer"
		}
	],
	"bufferViews":[
		{
			"buffer":0,
			"byteLength":39948,
			"target":34963
		},
		{
			"buffer":0,
			"byteOffset":39948,
			"byteLength":239688,
			"target":34962
		},
		{
			"buffer":0,
			"byteOffset":279636,
			"byteLength":159792,
			"target":34962
		},
		{
			"buffer":0,
			"byteOffset":439428,
			"byteLength":239688,
			"target":34962
		}
	],
	"nodes":[
		{
			"name":"HIGH",
			"mesh":0
		}
	],
	"meshes":[
		{
			"primitives":[
				{
					"attributes":{
						"NORMAL":3,
						"TEXCOORD_0":2,
						"POSITION":1
					},
					"indices":0,
					"material":0
				}
			]
		}
	],
	"materials":[
		{
			"name":"Material_1",
			"pbrMetallicRoughness":{
				"metallicFactor":0,
				"baseColorTexture":{
					"index":0
				}
			}
		}
	],
	"scenes":[
		{
			"nodes":[0
			]
		}
	],
	"textures":[
		{
			"source":0
		}
	],
	"images":[
		{
			"uri":"evercoast_0022.jpg",
			"mimeType":"image/jpeg"
		}
	],
	"scene":0
}
