{
	"asset":{
		"version":"2.0",
		"generator":"Houdini GLTF 2.0 Exporter"
	},
	"accessors":[
		{
			"bufferView":0,
			"componentType":5123,
			"count":19926,
			"type":"SCALAR",
			"min":[0
			],
			"max":[19925
			]
		},
		{
			"bufferView":1,
			"componentType":5126,
			"count":19926,
			"type":"VEC3",
			"min":[-0.28382349,-0.00879180431,-0.243651986
			],
			"max":[0.337466538,1.81419826,0.236290038
			]
		},
		{
			"bufferView":2,
			"componentType":5126,
			"count":19926,
			"type":"VEC2",
			"min":[0.000974657945,0.01477772
			],
			"max":[0.998434365,0.999025345
			]
		},
		{
			"bufferView":3,
			"componentType":5126,
			"count":19926,
			"type":"VEC3",
			"min":[-0.999496043,-0.999053001,-0.999507308
			],
			"max":[0.999946356,0.983812451,0.999960601
			]
		}
	],
	"buffers":[
		{
			"uri":"evercoast.0126_data.bin",
			"byteLength":677484,
			"name":"main_buffer"
		}
	],
	"bufferViews":[
		{
			"buffer":0,
			"byteLength":39852,
			"target":34963
		},
		{
			"buffer":0,
			"byteOffset":39852,
			"byteLength":239112,
			"target":34962
		},
		{
			"buffer":0,
			"byteOffset":278964,
			"byteLength":159408,
			"target":34962
		},
		{
			"buffer":0,
			"byteOffset":438372,
			"byteLength":239112,
			"target":34962
		}
	],
	"nodes":[
		{
			"name":"HIGH",
			"mesh":0
		}
	],
	"meshes":[
		{
			"primitives":[
				{
					"attributes":{
						"NORMAL":3,
						"TEXCOORD_0":2,
						"POSITION":1
					},
					"indices":0,
					"material":0
				}
			]
		}
	],
	"materials":[
		{
			"name":"Material_1",
			"pbrMetallicRoughness":{
				"metallicFactor":0,
				"baseColorTexture":{
					"index":0
				}
			}
		}
	],
	"scenes":[
		{
			"nodes":[0
			]
		}
	],
	"textures":[
		{
			"source":0
		}
	],
	"images":[
		{
			"uri":"evercoast_0126.jpg",
			"mimeType":"image/jpeg"
		}
	],
	"scene":0
}
