{
	"asset":{
		"version":"2.0",
		"generator":"Houdini GLTF 2.0 Exporter"
	},
	"accessors":[
		{
			"bufferView":0,
			"componentType":5123,
			"count":19929,
			"type":"SCALAR",
			"min":[0
			],
			"max":[19928
			]
		},
		{
			"bufferView":1,
			"componentType":5126,
			"count":19929,
			"type":"VEC3",
			"min":[-0.28421551,-0.0163217783,-0.21666193
			],
			"max":[0.354561508,1.8150723,0.30222702
			]
		},
		{
			"bufferView":2,
			"componentType":5126,
			"count":19929,
			"type":"VEC2",
			"min":[0.000974658877,0.00755286217
			],
			"max":[0.998314083,0.999025345
			]
		},
		{
			"bufferView":3,
			"componentType":5126,
			"count":19929,
			"type":"VEC3",
			"min":[-0.999957442,-0.999760687,-0.99973011
			],
			"max":[0.999887466,0.998794377,0.999974489
			]
		}
	],
	"buffers":[
		{
			"uri":"evercoast.0097_data.bin",
			"byteLength":677588,
			"name":"main_buffer"
		}
	],
	"bufferViews":[
		{
			"buffer":0,
			"byteLength":39858,
			"target":34963
		},
		{
			"buffer":0,
			"byteOffset":39860,
			"byteLength":239148,
			"target":34962
		},
		{
			"buffer":0,
			"byteOffset":279008,
			"byteLength":159432,
			"target":34962
		},
		{
			"buffer":0,
			"byteOffset":438440,
			"byteLength":239148,
			"target":34962
		}
	],
	"nodes":[
		{
			"name":"HIGH",
			"mesh":0
		}
	],
	"meshes":[
		{
			"primitives":[
				{
					"attributes":{
						"NORMAL":3,
						"TEXCOORD_0":2,
						"POSITION":1
					},
					"indices":0,
					"material":0
				}
			]
		}
	],
	"materials":[
		{
			"name":"Material_1",
			"pbrMetallicRoughness":{
				"metallicFactor":0,
				"baseColorTexture":{
					"index":0
				}
			}
		}
	],
	"scenes":[
		{
			"nodes":[0
			]
		}
	],
	"textures":[
		{
			"source":0
		}
	],
	"images":[
		{
			"uri":"evercoast_0097.jpg",
			"mimeType":"image/jpeg"
		}
	],
	"scene":0
}
