{
	"asset":{
		"version":"2.0",
		"generator":"Houdini GLTF 2.0 Exporter"
	},
	"accessors":[
		{
			"bufferView":0,
			"componentType":5123,
			"count":19992,
			"type":"SCALAR",
			"min":[0
			],
			"max":[19991
			]
		},
		{
			"bufferView":1,
			"componentType":5126,
			"count":19992,
			"type":"VEC3",
			"min":[-0.279235482,-0.00804173946,-0.237882018
			],
			"max":[0.325323522,1.81573725,0.310661018
			]
		},
		{
			"bufferView":2,
			"componentType":5126,
			"count":19992,
			"type":"VEC2",
			"min":[0.000974658178,0.00460982323
			],
			"max":[0.998493493,0.999025345
			]
		},
		{
			"bufferView":3,
			"componentType":5126,
			"count":19992,
			"type":"VEC3",
			"min":[-0.99989599,-0.999106467,-0.999983132
			],
			"max":[0.999885321,0.996028602,0.99987638
			]
		}
	],
	"buffers":[
		{
			"uri":"evercoast.0120_data.bin",
			"byteLength":679728,
			"name":"main_buffer"
		}
	],
	"bufferViews":[
		{
			"buffer":0,
			"byteLength":39984,
			"target":34963
		},
		{
			"buffer":0,
			"byteOffset":39984,
			"byteLength":239904,
			"target":34962
		},
		{
			"buffer":0,
			"byteOffset":279888,
			"byteLength":159936,
			"target":34962
		},
		{
			"buffer":0,
			"byteOffset":439824,
			"byteLength":239904,
			"target":34962
		}
	],
	"nodes":[
		{
			"name":"HIGH",
			"mesh":0
		}
	],
	"meshes":[
		{
			"primitives":[
				{
					"attributes":{
						"NORMAL":3,
						"TEXCOORD_0":2,
						"POSITION":1
					},
					"indices":0,
					"material":0
				}
			]
		}
	],
	"materials":[
		{
			"name":"Material_1",
			"pbrMetallicRoughness":{
				"metallicFactor":0,
				"baseColorTexture":{
					"index":0
				}
			}
		}
	],
	"scenes":[
		{
			"nodes":[0
			]
		}
	],
	"textures":[
		{
			"source":0
		}
	],
	"images":[
		{
			"uri":"evercoast_0120.jpg",
			"mimeType":"image/jpeg"
		}
	],
	"scene":0
}
