{
	"asset":{
		"version":"2.0",
		"generator":"Houdini GLTF 2.0 Exporter"
	},
	"accessors":[
		{
			"bufferView":0,
			"componentType":5123,
			"count":19932,
			"type":"SCALAR",
			"min":[0
			],
			"max":[19931
			]
		},
		{
			"bufferView":1,
			"componentType":5126,
			"count":19932,
			"type":"VEC3",
			"min":[-0.2991485,-0.0145517588,-0.219321966
			],
			"max":[0.307606518,1.81752622,0.30498302
			]
		},
		{
			"bufferView":2,
			"componentType":5126,
			"count":19932,
			"type":"VEC2",
			"min":[0.000974658877,0.0151652098
			],
			"max":[0.996098518,0.999025345
			]
		},
		{
			"bufferView":3,
			"componentType":5126,
			"count":19932,
			"type":"VEC3",
			"min":[-0.99997443,-0.999836624,-0.999962628
			],
			"max":[0.999869704,0.998691022,0.999965787
			]
		}
	],
	"buffers":[
		{
			"uri":"evercoast.0109_data.bin",
			"byteLength":677688,
			"name":"main_buffer"
		}
	],
	"bufferViews":[
		{
			"buffer":0,
			"byteLength":39864,
			"target":34963
		},
		{
			"buffer":0,
			"byteOffset":39864,
			"byteLength":239184,
			"target":34962
		},
		{
			"buffer":0,
			"byteOffset":279048,
			"byteLength":159456,
			"target":34962
		},
		{
			"buffer":0,
			"byteOffset":438504,
			"byteLength":239184,
			"target":34962
		}
	],
	"nodes":[
		{
			"name":"HIGH",
			"mesh":0
		}
	],
	"meshes":[
		{
			"primitives":[
				{
					"attributes":{
						"NORMAL":3,
						"TEXCOORD_0":2,
						"POSITION":1
					},
					"indices":0,
					"material":0
				}
			]
		}
	],
	"materials":[
		{
			"name":"Material_1",
			"pbrMetallicRoughness":{
				"metallicFactor":0,
				"baseColorTexture":{
					"index":0
				}
			}
		}
	],
	"scenes":[
		{
			"nodes":[0
			]
		}
	],
	"textures":[
		{
			"source":0
		}
	],
	"images":[
		{
			"uri":"evercoast_0109.jpg",
			"mimeType":"image/jpeg"
		}
	],
	"scene":0
}
