{
	"asset":{
		"version":"2.0",
		"generator":"Houdini GLTF 2.0 Exporter"
	},
	"accessors":[
		{
			"bufferView":0,
			"componentType":5123,
			"count":19974,
			"type":"SCALAR",
			"min":[0
			],
			"max":[19973
			]
		},
		{
			"bufferView":1,
			"componentType":5126,
			"count":19974,
			"type":"VEC3",
			"min":[-0.304902494,-0.0113217831,-0.215521932
			],
			"max":[0.305604517,1.82030225,0.22893101
			]
		},
		{
			"bufferView":2,
			"componentType":5126,
			"count":19974,
			"type":"VEC2",
			"min":[0.000974656607,0.0203167796
			],
			"max":[0.997362256,0.999025345
			]
		},
		{
			"bufferView":3,
			"componentType":5126,
			"count":19974,
			"type":"VEC3",
			"min":[-0.99905479,-0.999987721,-0.999947131
			],
			"max":[0.999828279,0.997725129,0.999972165
			]
		}
	],
	"buffers":[
		{
			"uri":"evercoast.0084_data.bin",
			"byteLength":679116,
			"name":"main_buffer"
		}
	],
	"bufferViews":[
		{
			"buffer":0,
			"byteLength":39948,
			"target":34963
		},
		{
			"buffer":0,
			"byteOffset":39948,
			"byteLength":239688,
			"target":34962
		},
		{
			"buffer":0,
			"byteOffset":279636,
			"byteLength":159792,
			"target":34962
		},
		{
			"buffer":0,
			"byteOffset":439428,
			"byteLength":239688,
			"target":34962
		}
	],
	"nodes":[
		{
			"name":"HIGH",
			"mesh":0
		}
	],
	"meshes":[
		{
			"primitives":[
				{
					"attributes":{
						"NORMAL":3,
						"TEXCOORD_0":2,
						"POSITION":1
					},
					"indices":0,
					"material":0
				}
			]
		}
	],
	"materials":[
		{
			"name":"Material_1",
			"pbrMetallicRoughness":{
				"metallicFactor":0,
				"baseColorTexture":{
					"index":0
				}
			}
		}
	],
	"scenes":[
		{
			"nodes":[0
			]
		}
	],
	"textures":[
		{
			"source":0
		}
	],
	"images":[
		{
			"uri":"evercoast_0084.jpg",
			"mimeType":"image/jpeg"
		}
	],
	"scene":0
}
