{
	"asset":{
		"version":"2.0",
		"generator":"Houdini GLTF 2.0 Exporter"
	},
	"accessors":[
		{
			"bufferView":0,
			"componentType":5123,
			"count":19998,
			"type":"SCALAR",
			"min":[0
			],
			"max":[19997
			]
		},
		{
			"bufferView":1,
			"componentType":5126,
			"count":19998,
			"type":"VEC3",
			"min":[-0.307143509,-0.0124717951,-0.210601926
			],
			"max":[0.306034505,1.82251823,0.209931016
			]
		},
		{
			"bufferView":2,
			"componentType":5126,
			"count":19998,
			"type":"VEC2",
			"min":[0.000974658877,0.0202971697
			],
			"max":[0.99848789,0.999025345
			]
		},
		{
			"bufferView":3,
			"componentType":5126,
			"count":19998,
			"type":"VEC3",
			"min":[-0.999131083,-0.999652922,-0.999892354
			],
			"max":[0.99991864,0.998811543,0.999991953
			]
		}
	],
	"buffers":[
		{
			"uri":"evercoast.0017_data.bin",
			"byteLength":679932,
			"name":"main_buffer"
		}
	],
	"bufferViews":[
		{
			"buffer":0,
			"byteLength":39996,
			"target":34963
		},
		{
			"buffer":0,
			"byteOffset":39996,
			"byteLength":239976,
			"target":34962
		},
		{
			"buffer":0,
			"byteOffset":279972,
			"byteLength":159984,
			"target":34962
		},
		{
			"buffer":0,
			"byteOffset":439956,
			"byteLength":239976,
			"target":34962
		}
	],
	"nodes":[
		{
			"name":"HIGH",
			"mesh":0
		}
	],
	"meshes":[
		{
			"primitives":[
				{
					"attributes":{
						"NORMAL":3,
						"TEXCOORD_0":2,
						"POSITION":1
					},
					"indices":0,
					"material":0
				}
			]
		}
	],
	"materials":[
		{
			"name":"Material_1",
			"pbrMetallicRoughness":{
				"metallicFactor":0,
				"baseColorTexture":{
					"index":0
				}
			}
		}
	],
	"scenes":[
		{
			"nodes":[0
			]
		}
	],
	"textures":[
		{
			"source":0
		}
	],
	"images":[
		{
			"uri":"evercoast_0017.jpg",
			"mimeType":"image/jpeg"
		}
	],
	"scene":0
}
