{
	"asset":{
		"version":"2.0",
		"generator":"Houdini GLTF 2.0 Exporter"
	},
	"accessors":[
		{
			"bufferView":0,
			"componentType":5123,
			"count":19986,
			"type":"SCALAR",
			"min":[0
			],
			"max":[19985
			]
		},
		{
			"bufferView":1,
			"componentType":5126,
			"count":19986,
			"type":"VEC3",
			"min":[-0.297032475,-0.0103317499,-0.229351997
			],
			"max":[0.340584517,1.81301332,0.275787055
			]
		},
		{
			"bufferView":2,
			"componentType":5126,
			"count":19986,
			"type":"VEC2",
			"min":[0.000974657771,0.0190110803
			],
			"max":[0.998437583,0.999025345
			]
		},
		{
			"bufferView":3,
			"componentType":5126,
			"count":19986,
			"type":"VEC3",
			"min":[-0.999913275,-0.998178601,-0.999784648
			],
			"max":[0.999604821,0.999038875,0.999663472
			]
		}
	],
	"buffers":[
		{
			"uri":"evercoast.0146_data.bin",
			"byteLength":679524,
			"name":"main_buffer"
		}
	],
	"bufferViews":[
		{
			"buffer":0,
			"byteLength":39972,
			"target":34963
		},
		{
			"buffer":0,
			"byteOffset":39972,
			"byteLength":239832,
			"target":34962
		},
		{
			"buffer":0,
			"byteOffset":279804,
			"byteLength":159888,
			"target":34962
		},
		{
			"buffer":0,
			"byteOffset":439692,
			"byteLength":239832,
			"target":34962
		}
	],
	"nodes":[
		{
			"name":"HIGH",
			"mesh":0
		}
	],
	"meshes":[
		{
			"primitives":[
				{
					"attributes":{
						"NORMAL":3,
						"TEXCOORD_0":2,
						"POSITION":1
					},
					"indices":0,
					"material":0
				}
			]
		}
	],
	"materials":[
		{
			"name":"Material_1",
			"pbrMetallicRoughness":{
				"metallicFactor":0,
				"baseColorTexture":{
					"index":0
				}
			}
		}
	],
	"scenes":[
		{
			"nodes":[0
			]
		}
	],
	"textures":[
		{
			"source":0
		}
	],
	"images":[
		{
			"uri":"evercoast_0146.jpg",
			"mimeType":"image/jpeg"
		}
	],
	"scene":0
}
