{
	"asset":{
		"version":"2.0",
		"generator":"Houdini GLTF 2.0 Exporter"
	},
	"accessors":[
		{
			"bufferView":0,
			"componentType":5123,
			"count":19968,
			"type":"SCALAR",
			"min":[0
			],
			"max":[19967
			]
		},
		{
			"bufferView":1,
			"componentType":5126,
			"count":19968,
			"type":"VEC3",
			"min":[-0.279742479,-0.0150117874,-0.234712005
			],
			"max":[0.367331505,1.8088553,0.164137006
			]
		},
		{
			"bufferView":2,
			"componentType":5126,
			"count":19968,
			"type":"VEC2",
			"min":[0.000974645198,0.0294781923
			],
			"max":[0.998305261,0.999025345
			]
		},
		{
			"bufferView":3,
			"componentType":5126,
			"count":19968,
			"type":"VEC3",
			"min":[-0.999747336,-0.999317765,-0.999935925
			],
			"max":[0.999595582,0.999894321,0.99991256
			]
		}
	],
	"buffers":[
		{
			"uri":"evercoast.0138_data.bin",
			"byteLength":678912,
			"name":"main_buffer"
		}
	],
	"bufferViews":[
		{
			"buffer":0,
			"byteLength":39936,
			"target":34963
		},
		{
			"buffer":0,
			"byteOffset":39936,
			"byteLength":239616,
			"target":34962
		},
		{
			"buffer":0,
			"byteOffset":279552,
			"byteLength":159744,
			"target":34962
		},
		{
			"buffer":0,
			"byteOffset":439296,
			"byteLength":239616,
			"target":34962
		}
	],
	"nodes":[
		{
			"name":"HIGH",
			"mesh":0
		}
	],
	"meshes":[
		{
			"primitives":[
				{
					"attributes":{
						"NORMAL":3,
						"TEXCOORD_0":2,
						"POSITION":1
					},
					"indices":0,
					"material":0
				}
			]
		}
	],
	"materials":[
		{
			"name":"Material_1",
			"pbrMetallicRoughness":{
				"metallicFactor":0,
				"baseColorTexture":{
					"index":0
				}
			}
		}
	],
	"scenes":[
		{
			"nodes":[0
			]
		}
	],
	"textures":[
		{
			"source":0
		}
	],
	"images":[
		{
			"uri":"evercoast_0138.jpg",
			"mimeType":"image/jpeg"
		}
	],
	"scene":0
}
