{
	"asset":{
		"version":"2.0",
		"generator":"Houdini GLTF 2.0 Exporter"
	},
	"accessors":[
		{
			"bufferView":0,
			"componentType":5123,
			"count":19941,
			"type":"SCALAR",
			"min":[0
			],
			"max":[19940
			]
		},
		{
			"bufferView":1,
			"componentType":5126,
			"count":19941,
			"type":"VEC3",
			"min":[-0.305707514,-0.00801181793,-0.215781927
			],
			"max":[0.304247499,1.82242417,0.206955016
			]
		},
		{
			"bufferView":2,
			"componentType":5126,
			"count":19941,
			"type":"VEC2",
			"min":[0.00097465812,0.00636184216
			],
			"max":[0.997556865,0.999025345
			]
		},
		{
			"bufferView":3,
			"componentType":5126,
			"count":19941,
			"type":"VEC3",
			"min":[-0.998582184,-0.999989927,-0.999932468
			],
			"max":[0.99976182,0.994503617,0.999955118
			]
		}
	],
	"buffers":[
		{
			"uri":"evercoast.0031_data.bin",
			"byteLength":677996,
			"name":"main_buffer"
		}
	],
	"bufferViews":[
		{
			"buffer":0,
			"byteLength":39882,
			"target":34963
		},
		{
			"buffer":0,
			"byteOffset":39884,
			"byteLength":239292,
			"target":34962
		},
		{
			"buffer":0,
			"byteOffset":279176,
			"byteLength":159528,
			"target":34962
		},
		{
			"buffer":0,
			"byteOffset":438704,
			"byteLength":239292,
			"target":34962
		}
	],
	"nodes":[
		{
			"name":"HIGH",
			"mesh":0
		}
	],
	"meshes":[
		{
			"primitives":[
				{
					"attributes":{
						"NORMAL":3,
						"TEXCOORD_0":2,
						"POSITION":1
					},
					"indices":0,
					"material":0
				}
			]
		}
	],
	"materials":[
		{
			"name":"Material_1",
			"pbrMetallicRoughness":{
				"metallicFactor":0,
				"baseColorTexture":{
					"index":0
				}
			}
		}
	],
	"scenes":[
		{
			"nodes":[0
			]
		}
	],
	"textures":[
		{
			"source":0
		}
	],
	"images":[
		{
			"uri":"evercoast_0031.jpg",
			"mimeType":"image/jpeg"
		}
	],
	"scene":0
}
