{
	"asset":{
		"version":"2.0",
		"generator":"Houdini GLTF 2.0 Exporter"
	},
	"accessors":[
		{
			"bufferView":0,
			"componentType":5123,
			"count":19986,
			"type":"SCALAR",
			"min":[0
			],
			"max":[19985
			]
		},
		{
			"bufferView":1,
			"componentType":5126,
			"count":19986,
			"type":"VEC3",
			"min":[-0.30994451,-0.00766181946,-0.244022012
			],
			"max":[0.307611525,1.81982231,0.203560054
			]
		},
		{
			"bufferView":2,
			"componentType":5126,
			"count":19986,
			"type":"VEC2",
			"min":[0.000974658877,0.00428748131
			],
			"max":[0.997697234,0.999025345
			]
		},
		{
			"bufferView":3,
			"componentType":5126,
			"count":19986,
			"type":"VEC3",
			"min":[-0.999961913,-0.999769986,-0.999961257
			],
			"max":[0.999925017,0.998270154,0.999973238
			]
		}
	],
	"buffers":[
		{
			"uri":"evercoast.0072_data.bin",
			"byteLength":679524,
			"name":"main_buffer"
		}
	],
	"bufferViews":[
		{
			"buffer":0,
			"byteLength":39972,
			"target":34963
		},
		{
			"buffer":0,
			"byteOffset":39972,
			"byteLength":239832,
			"target":34962
		},
		{
			"buffer":0,
			"byteOffset":279804,
			"byteLength":159888,
			"target":34962
		},
		{
			"buffer":0,
			"byteOffset":439692,
			"byteLength":239832,
			"target":34962
		}
	],
	"nodes":[
		{
			"name":"HIGH",
			"mesh":0
		}
	],
	"meshes":[
		{
			"primitives":[
				{
					"attributes":{
						"NORMAL":3,
						"TEXCOORD_0":2,
						"POSITION":1
					},
					"indices":0,
					"material":0
				}
			]
		}
	],
	"materials":[
		{
			"name":"Material_1",
			"pbrMetallicRoughness":{
				"metallicFactor":0,
				"baseColorTexture":{
					"index":0
				}
			}
		}
	],
	"scenes":[
		{
			"nodes":[0
			]
		}
	],
	"textures":[
		{
			"source":0
		}
	],
	"images":[
		{
			"uri":"evercoast_0072.jpg",
			"mimeType":"image/jpeg"
		}
	],
	"scene":0
}
