{
	"asset":{
		"version":"2.0",
		"generator":"Houdini GLTF 2.0 Exporter"
	},
	"accessors":[
		{
			"bufferView":0,
			"componentType":5123,
			"count":19956,
			"type":"SCALAR",
			"min":[0
			],
			"max":[19955
			]
		},
		{
			"bufferView":1,
			"componentType":5126,
			"count":19956,
			"type":"VEC3",
			"min":[-0.306249499,-0.0120117664,-0.213302016
			],
			"max":[0.306385517,1.82169819,0.208456039
			]
		},
		{
			"bufferView":2,
			"componentType":5126,
			"count":19956,
			"type":"VEC2",
			"min":[0.000974658877,0.0704151392
			],
			"max":[0.998131454,0.999025345
			]
		},
		{
			"bufferView":3,
			"componentType":5126,
			"count":19956,
			"type":"VEC3",
			"min":[-0.999738753,-0.999547124,-0.99996984
			],
			"max":[0.999870658,0.998651326,0.999807119
			]
		}
	],
	"buffers":[
		{
			"uri":"evercoast.0025_data.bin",
			"byteLength":678504,
			"name":"main_buffer"
		}
	],
	"bufferViews":[
		{
			"buffer":0,
			"byteLength":39912,
			"target":34963
		},
		{
			"buffer":0,
			"byteOffset":39912,
			"byteLength":239472,
			"target":34962
		},
		{
			"buffer":0,
			"byteOffset":279384,
			"byteLength":159648,
			"target":34962
		},
		{
			"buffer":0,
			"byteOffset":439032,
			"byteLength":239472,
			"target":34962
		}
	],
	"nodes":[
		{
			"name":"HIGH",
			"mesh":0
		}
	],
	"meshes":[
		{
			"primitives":[
				{
					"attributes":{
						"NORMAL":3,
						"TEXCOORD_0":2,
						"POSITION":1
					},
					"indices":0,
					"material":0
				}
			]
		}
	],
	"materials":[
		{
			"name":"Material_1",
			"pbrMetallicRoughness":{
				"metallicFactor":0,
				"baseColorTexture":{
					"index":0
				}
			}
		}
	],
	"scenes":[
		{
			"nodes":[0
			]
		}
	],
	"textures":[
		{
			"source":0
		}
	],
	"images":[
		{
			"uri":"evercoast_0025.jpg",
			"mimeType":"image/jpeg"
		}
	],
	"scene":0
}
