{
	"asset":{
		"version":"2.0",
		"generator":"Houdini GLTF 2.0 Exporter"
	},
	"accessors":[
		{
			"bufferView":0,
			"componentType":5123,
			"count":19989,
			"type":"SCALAR",
			"min":[0
			],
			"max":[19988
			]
		},
		{
			"bufferView":1,
			"componentType":5126,
			"count":19989,
			"type":"VEC3",
			"min":[-0.310048461,-0.0128517151,-0.213511944
			],
			"max":[0.311167538,1.82469821,0.20769006
			]
		},
		{
			"bufferView":2,
			"componentType":5126,
			"count":19989,
			"type":"VEC2",
			"min":[0.000974653813,0.0108576417
			],
			"max":[0.998251438,0.999025345
			]
		},
		{
			"bufferView":3,
			"componentType":5126,
			"count":19989,
			"type":"VEC3",
			"min":[-0.99986124,-0.998971045,-0.99998045
			],
			"max":[0.998517275,0.99730891,0.999854922
			]
		}
	],
	"buffers":[
		{
			"uri":"evercoast.0008_data.bin",
			"byteLength":679628,
			"name":"main_buffer"
		}
	],
	"bufferViews":[
		{
			"buffer":0,
			"byteLength":39978,
			"target":34963
		},
		{
			"buffer":0,
			"byteOffset":39980,
			"byteLength":239868,
			"target":34962
		},
		{
			"buffer":0,
			"byteOffset":279848,
			"byteLength":159912,
			"target":34962
		},
		{
			"buffer":0,
			"byteOffset":439760,
			"byteLength":239868,
			"target":34962
		}
	],
	"nodes":[
		{
			"name":"HIGH",
			"mesh":0
		}
	],
	"meshes":[
		{
			"primitives":[
				{
					"attributes":{
						"NORMAL":3,
						"TEXCOORD_0":2,
						"POSITION":1
					},
					"indices":0,
					"material":0
				}
			]
		}
	],
	"materials":[
		{
			"name":"Material_1",
			"pbrMetallicRoughness":{
				"metallicFactor":0,
				"baseColorTexture":{
					"index":0
				}
			}
		}
	],
	"scenes":[
		{
			"nodes":[0
			]
		}
	],
	"textures":[
		{
			"source":0
		}
	],
	"images":[
		{
			"uri":"evercoast_0008.jpg",
			"mimeType":"image/jpeg"
		}
	],
	"scene":0
}
