{
	"asset":{
		"version":"2.0",
		"generator":"Houdini GLTF 2.0 Exporter"
	},
	"accessors":[
		{
			"bufferView":0,
			"componentType":5123,
			"count":19998,
			"type":"SCALAR",
			"min":[0
			],
			"max":[19997
			]
		},
		{
			"bufferView":1,
			"componentType":5126,
			"count":19998,
			"type":"VEC3",
			"min":[-0.310336471,-0.00660181046,-0.212422013
			],
			"max":[0.304084539,1.82508826,0.207449019
			]
		},
		{
			"bufferView":2,
			"componentType":5126,
			"count":19998,
			"type":"VEC2",
			"min":[0.000974648865,0.00615394115
			],
			"max":[0.998257816,0.999025345
			]
		},
		{
			"bufferView":3,
			"componentType":5126,
			"count":19998,
			"type":"VEC3",
			"min":[-0.999668419,-0.999853313,-0.999974668
			],
			"max":[0.999904692,0.98823154,0.999995947
			]
		}
	],
	"buffers":[
		{
			"uri":"evercoast.0009_data.bin",
			"byteLength":679932,
			"name":"main_buffer"
		}
	],
	"bufferViews":[
		{
			"buffer":0,
			"byteLength":39996,
			"target":34963
		},
		{
			"buffer":0,
			"byteOffset":39996,
			"byteLength":239976,
			"target":34962
		},
		{
			"buffer":0,
			"byteOffset":279972,
			"byteLength":159984,
			"target":34962
		},
		{
			"buffer":0,
			"byteOffset":439956,
			"byteLength":239976,
			"target":34962
		}
	],
	"nodes":[
		{
			"name":"HIGH",
			"mesh":0
		}
	],
	"meshes":[
		{
			"primitives":[
				{
					"attributes":{
						"NORMAL":3,
						"TEXCOORD_0":2,
						"POSITION":1
					},
					"indices":0,
					"material":0
				}
			]
		}
	],
	"materials":[
		{
			"name":"Material_1",
			"pbrMetallicRoughness":{
				"metallicFactor":0,
				"baseColorTexture":{
					"index":0
				}
			}
		}
	],
	"scenes":[
		{
			"nodes":[0
			]
		}
	],
	"textures":[
		{
			"source":0
		}
	],
	"images":[
		{
			"uri":"evercoast_0009.jpg",
			"mimeType":"image/jpeg"
		}
	],
	"scene":0
}
