{
	"asset":{
		"version":"2.0",
		"generator":"Houdini GLTF 2.0 Exporter"
	},
	"accessors":[
		{
			"bufferView":0,
			"componentType":5123,
			"count":19932,
			"type":"SCALAR",
			"min":[0
			],
			"max":[19931
			]
		},
		{
			"bufferView":1,
			"componentType":5126,
			"count":19932,
			"type":"VEC3",
			"min":[-0.285977483,-0.0150417089,-0.235621929
			],
			"max":[0.329377532,1.81452131,0.320689023
			]
		},
		{
			"bufferView":2,
			"componentType":5126,
			"count":19932,
			"type":"VEC2",
			"min":[0.000974656083,0.0185626149
			],
			"max":[0.997929037,0.999025345
			]
		},
		{
			"bufferView":3,
			"componentType":5126,
			"count":19932,
			"type":"VEC3",
			"min":[-0.999554038,-0.99921006,-0.99999249
			],
			"max":[0.999828219,0.998575032,0.999953687
			]
		}
	],
	"buffers":[
		{
			"uri":"evercoast.0118_data.bin",
			"byteLength":677688,
			"name":"main_buffer"
		}
	],
	"bufferViews":[
		{
			"buffer":0,
			"byteLength":39864,
			"target":34963
		},
		{
			"buffer":0,
			"byteOffset":39864,
			"byteLength":239184,
			"target":34962
		},
		{
			"buffer":0,
			"byteOffset":279048,
			"byteLength":159456,
			"target":34962
		},
		{
			"buffer":0,
			"byteOffset":438504,
			"byteLength":239184,
			"target":34962
		}
	],
	"nodes":[
		{
			"name":"HIGH",
			"mesh":0
		}
	],
	"meshes":[
		{
			"primitives":[
				{
					"attributes":{
						"NORMAL":3,
						"TEXCOORD_0":2,
						"POSITION":1
					},
					"indices":0,
					"material":0
				}
			]
		}
	],
	"materials":[
		{
			"name":"Material_1",
			"pbrMetallicRoughness":{
				"metallicFactor":0,
				"baseColorTexture":{
					"index":0
				}
			}
		}
	],
	"scenes":[
		{
			"nodes":[0
			]
		}
	],
	"textures":[
		{
			"source":0
		}
	],
	"images":[
		{
			"uri":"evercoast_0118.jpg",
			"mimeType":"image/jpeg"
		}
	],
	"scene":0
}
