{
	"asset":{
		"version":"2.0",
		"generator":"Houdini GLTF 2.0 Exporter"
	},
	"accessors":[
		{
			"bufferView":0,
			"componentType":5123,
			"count":19998,
			"type":"SCALAR",
			"min":[0
			],
			"max":[19997
			]
		},
		{
			"bufferView":1,
			"componentType":5126,
			"count":19998,
			"type":"VEC3",
			"min":[-0.311184466,-0.014611721,-0.222101927
			],
			"max":[0.301433504,1.82048631,0.199104011
			]
		},
		{
			"bufferView":2,
			"componentType":5126,
			"count":19998,
			"type":"VEC2",
			"min":[0.000974658877,0.00627237558
			],
			"max":[0.997720242,0.999025345
			]
		},
		{
			"bufferView":3,
			"componentType":5126,
			"count":19998,
			"type":"VEC3",
			"min":[-0.999976337,-0.999763608,-0.999997079
			],
			"max":[0.999734461,0.998497784,0.999911368
			]
		}
	],
	"buffers":[
		{
			"uri":"evercoast.0067_data.bin",
			"byteLength":679932,
			"name":"main_buffer"
		}
	],
	"bufferViews":[
		{
			"buffer":0,
			"byteLength":39996,
			"target":34963
		},
		{
			"buffer":0,
			"byteOffset":39996,
			"byteLength":239976,
			"target":34962
		},
		{
			"buffer":0,
			"byteOffset":279972,
			"byteLength":159984,
			"target":34962
		},
		{
			"buffer":0,
			"byteOffset":439956,
			"byteLength":239976,
			"target":34962
		}
	],
	"nodes":[
		{
			"name":"HIGH",
			"mesh":0
		}
	],
	"meshes":[
		{
			"primitives":[
				{
					"attributes":{
						"NORMAL":3,
						"TEXCOORD_0":2,
						"POSITION":1
					},
					"indices":0,
					"material":0
				}
			]
		}
	],
	"materials":[
		{
			"name":"Material_1",
			"pbrMetallicRoughness":{
				"metallicFactor":0,
				"baseColorTexture":{
					"index":0
				}
			}
		}
	],
	"scenes":[
		{
			"nodes":[0
			]
		}
	],
	"textures":[
		{
			"source":0
		}
	],
	"images":[
		{
			"uri":"evercoast_0067.jpg",
			"mimeType":"image/jpeg"
		}
	],
	"scene":0
}
