{
	"asset":{
		"version":"2.0",
		"generator":"Houdini GLTF 2.0 Exporter"
	},
	"accessors":[
		{
			"bufferView":0,
			"componentType":5123,
			"count":19962,
			"type":"SCALAR",
			"min":[0
			],
			"max":[19961
			]
		},
		{
			"bufferView":1,
			"componentType":5126,
			"count":19962,
			"type":"VEC3",
			"min":[-0.308585465,-0.00607180595,-0.231921911
			],
			"max":[0.304184496,1.81458521,0.198288023
			]
		},
		{
			"bufferView":2,
			"componentType":5126,
			"count":19962,
			"type":"VEC2",
			"min":[0.000974656257,0.0142918229
			],
			"max":[0.998244107,0.999025345
			]
		},
		{
			"bufferView":3,
			"componentType":5126,
			"count":19962,
			"type":"VEC3",
			"min":[-0.99990344,-0.999906242,-0.999910474
			],
			"max":[0.999950886,0.998053491,0.999833763
			]
		}
	],
	"buffers":[
		{
			"uri":"evercoast.0060_data.bin",
			"byteLength":678708,
			"name":"main_buffer"
		}
	],
	"bufferViews":[
		{
			"buffer":0,
			"byteLength":39924,
			"target":34963
		},
		{
			"buffer":0,
			"byteOffset":39924,
			"byteLength":239544,
			"target":34962
		},
		{
			"buffer":0,
			"byteOffset":279468,
			"byteLength":159696,
			"target":34962
		},
		{
			"buffer":0,
			"byteOffset":439164,
			"byteLength":239544,
			"target":34962
		}
	],
	"nodes":[
		{
			"name":"HIGH",
			"mesh":0
		}
	],
	"meshes":[
		{
			"primitives":[
				{
					"attributes":{
						"NORMAL":3,
						"TEXCOORD_0":2,
						"POSITION":1
					},
					"indices":0,
					"material":0
				}
			]
		}
	],
	"materials":[
		{
			"name":"Material_1",
			"pbrMetallicRoughness":{
				"metallicFactor":0,
				"baseColorTexture":{
					"index":0
				}
			}
		}
	],
	"scenes":[
		{
			"nodes":[0
			]
		}
	],
	"textures":[
		{
			"source":0
		}
	],
	"images":[
		{
			"uri":"evercoast_0060.jpg",
			"mimeType":"image/jpeg"
		}
	],
	"scene":0
}
