{
	"asset":{
		"version":"2.0",
		"generator":"Houdini GLTF 2.0 Exporter"
	},
	"accessors":[
		{
			"bufferView":0,
			"componentType":5123,
			"count":19971,
			"type":"SCALAR",
			"min":[0
			],
			"max":[19970
			]
		},
		{
			"bufferView":1,
			"componentType":5126,
			"count":19971,
			"type":"VEC3",
			"min":[-0.275243461,-0.0193517208,-0.233312011
			],
			"max":[0.34739852,1.81405723,0.188477039
			]
		},
		{
			"bufferView":2,
			"componentType":5126,
			"count":19971,
			"type":"VEC2",
			"min":[0.000974657829,0.0326954722
			],
			"max":[0.995191753,0.999025345
			]
		},
		{
			"bufferView":3,
			"componentType":5126,
			"count":19971,
			"type":"VEC3",
			"min":[-0.999427378,-0.99881506,-0.99994427
			],
			"max":[0.999911606,0.990675569,0.999954939
			]
		}
	],
	"buffers":[
		{
			"uri":"evercoast.0133_data.bin",
			"byteLength":679016,
			"name":"main_buffer"
		}
	],
	"bufferViews":[
		{
			"buffer":0,
			"byteLength":39942,
			"target":34963
		},
		{
			"buffer":0,
			"byteOffset":39944,
			"byteLength":239652,
			"target":34962
		},
		{
			"buffer":0,
			"byteOffset":279596,
			"byteLength":159768,
			"target":34962
		},
		{
			"buffer":0,
			"byteOffset":439364,
			"byteLength":239652,
			"target":34962
		}
	],
	"nodes":[
		{
			"name":"HIGH",
			"mesh":0
		}
	],
	"meshes":[
		{
			"primitives":[
				{
					"attributes":{
						"NORMAL":3,
						"TEXCOORD_0":2,
						"POSITION":1
					},
					"indices":0,
					"material":0
				}
			]
		}
	],
	"materials":[
		{
			"name":"Material_1",
			"pbrMetallicRoughness":{
				"metallicFactor":0,
				"baseColorTexture":{
					"index":0
				}
			}
		}
	],
	"scenes":[
		{
			"nodes":[0
			]
		}
	],
	"textures":[
		{
			"source":0
		}
	],
	"images":[
		{
			"uri":"evercoast_0133.jpg",
			"mimeType":"image/jpeg"
		}
	],
	"scene":0
}
