{
	"asset":{
		"version":"2.0",
		"generator":"Houdini GLTF 2.0 Exporter"
	},
	"accessors":[
		{
			"bufferView":0,
			"componentType":5123,
			"count":19983,
			"type":"SCALAR",
			"min":[0
			],
			"max":[19982
			]
		},
		{
			"bufferView":1,
			"componentType":5126,
			"count":19983,
			"type":"VEC3",
			"min":[-0.306517482,-0.0152317286,-0.213371992
			],
			"max":[0.306936502,1.82179725,0.210499048
			]
		},
		{
			"bufferView":2,
			"componentType":5126,
			"count":19983,
			"type":"VEC2",
			"min":[0.000974632858,0.00309658051
			],
			"max":[0.998558819,0.999025345
			]
		},
		{
			"bufferView":3,
			"componentType":5126,
			"count":19983,
			"type":"VEC3",
			"min":[-0.999680936,-0.999894738,-0.999934196
			],
			"max":[0.999971807,0.996201396,0.999978364
			]
		}
	],
	"buffers":[
		{
			"uri":"evercoast.0021_data.bin",
			"byteLength":679424,
			"name":"main_buffer"
		}
	],
	"bufferViews":[
		{
			"buffer":0,
			"byteLength":39966,
			"target":34963
		},
		{
			"buffer":0,
			"byteOffset":39968,
			"byteLength":239796,
			"target":34962
		},
		{
			"buffer":0,
			"byteOffset":279764,
			"byteLength":159864,
			"target":34962
		},
		{
			"buffer":0,
			"byteOffset":439628,
			"byteLength":239796,
			"target":34962
		}
	],
	"nodes":[
		{
			"name":"HIGH",
			"mesh":0
		}
	],
	"meshes":[
		{
			"primitives":[
				{
					"attributes":{
						"NORMAL":3,
						"TEXCOORD_0":2,
						"POSITION":1
					},
					"indices":0,
					"material":0
				}
			]
		}
	],
	"materials":[
		{
			"name":"Material_1",
			"pbrMetallicRoughness":{
				"metallicFactor":0,
				"baseColorTexture":{
					"index":0
				}
			}
		}
	],
	"scenes":[
		{
			"nodes":[0
			]
		}
	],
	"textures":[
		{
			"source":0
		}
	],
	"images":[
		{
			"uri":"evercoast_0021.jpg",
			"mimeType":"image/jpeg"
		}
	],
	"scene":0
}
