{
	"asset":{
		"version":"2.0",
		"generator":"Houdini GLTF 2.0 Exporter"
	},
	"accessors":[
		{
			"bufferView":0,
			"componentType":5123,
			"count":19902,
			"type":"SCALAR",
			"min":[0
			],
			"max":[19901
			]
		},
		{
			"bufferView":1,
			"componentType":5126,
			"count":19902,
			"type":"VEC3",
			"min":[-0.285069466,-0.0141217709,-0.233492017
			],
			"max":[0.316871524,1.81190622,0.30428201
			]
		},
		{
			"bufferView":2,
			"componentType":5126,
			"count":19902,
			"type":"VEC2",
			"min":[0.000974628027,0.0135684609
			],
			"max":[0.996978998,0.999025345
			]
		},
		{
			"bufferView":3,
			"componentType":5126,
			"count":19902,
			"type":"VEC3",
			"min":[-0.999962926,-0.998831332,-0.999957204
			],
			"max":[0.999607801,0.998768091,0.999965966
			]
		}
	],
	"buffers":[
		{
			"uri":"evercoast.0114_data.bin",
			"byteLength":676668,
			"name":"main_buffer"
		}
	],
	"bufferViews":[
		{
			"buffer":0,
			"byteLength":39804,
			"target":34963
		},
		{
			"buffer":0,
			"byteOffset":39804,
			"byteLength":238824,
			"target":34962
		},
		{
			"buffer":0,
			"byteOffset":278628,
			"byteLength":159216,
			"target":34962
		},
		{
			"buffer":0,
			"byteOffset":437844,
			"byteLength":238824,
			"target":34962
		}
	],
	"nodes":[
		{
			"name":"HIGH",
			"mesh":0
		}
	],
	"meshes":[
		{
			"primitives":[
				{
					"attributes":{
						"NORMAL":3,
						"TEXCOORD_0":2,
						"POSITION":1
					},
					"indices":0,
					"material":0
				}
			]
		}
	],
	"materials":[
		{
			"name":"Material_1",
			"pbrMetallicRoughness":{
				"metallicFactor":0,
				"baseColorTexture":{
					"index":0
				}
			}
		}
	],
	"scenes":[
		{
			"nodes":[0
			]
		}
	],
	"textures":[
		{
			"source":0
		}
	],
	"images":[
		{
			"uri":"evercoast_0114.jpg",
			"mimeType":"image/jpeg"
		}
	],
	"scene":0
}
