{
	"asset":{
		"version":"2.0",
		"generator":"Houdini GLTF 2.0 Exporter"
	},
	"accessors":[
		{
			"bufferView":0,
			"componentType":5123,
			"count":19959,
			"type":"SCALAR",
			"min":[0
			],
			"max":[19958
			]
		},
		{
			"bufferView":1,
			"componentType":5126,
			"count":19959,
			"type":"VEC3",
			"min":[-0.281104505,-0.0140817165,-0.218681931
			],
			"max":[0.359128535,1.8094182,0.194455028
			]
		},
		{
			"bufferView":2,
			"componentType":5126,
			"count":19959,
			"type":"VEC2",
			"min":[0.000974658877,0.00444585085
			],
			"max":[0.997360885,0.999025345
			]
		},
		{
			"bufferView":3,
			"componentType":5126,
			"count":19959,
			"type":"VEC3",
			"min":[-0.999887407,-0.998836339,-0.999694765
			],
			"max":[0.999792635,0.998617113,0.999985933
			]
		}
	],
	"buffers":[
		{
			"uri":"evercoast.0142_data.bin",
			"byteLength":678608,
			"name":"main_buffer"
		}
	],
	"bufferViews":[
		{
			"buffer":0,
			"byteLength":39918,
			"target":34963
		},
		{
			"buffer":0,
			"byteOffset":39920,
			"byteLength":239508,
			"target":34962
		},
		{
			"buffer":0,
			"byteOffset":279428,
			"byteLength":159672,
			"target":34962
		},
		{
			"buffer":0,
			"byteOffset":439100,
			"byteLength":239508,
			"target":34962
		}
	],
	"nodes":[
		{
			"name":"HIGH",
			"mesh":0
		}
	],
	"meshes":[
		{
			"primitives":[
				{
					"attributes":{
						"NORMAL":3,
						"TEXCOORD_0":2,
						"POSITION":1
					},
					"indices":0,
					"material":0
				}
			]
		}
	],
	"materials":[
		{
			"name":"Material_1",
			"pbrMetallicRoughness":{
				"metallicFactor":0,
				"baseColorTexture":{
					"index":0
				}
			}
		}
	],
	"scenes":[
		{
			"nodes":[0
			]
		}
	],
	"textures":[
		{
			"source":0
		}
	],
	"images":[
		{
			"uri":"evercoast_0142.jpg",
			"mimeType":"image/jpeg"
		}
	],
	"scene":0
}
