{
	"asset":{
		"version":"2.0",
		"generator":"Houdini GLTF 2.0 Exporter"
	},
	"accessors":[
		{
			"bufferView":0,
			"componentType":5123,
			"count":20001,
			"type":"SCALAR",
			"min":[0
			],
			"max":[20000
			]
		},
		{
			"bufferView":1,
			"componentType":5126,
			"count":20001,
			"type":"VEC3",
			"min":[-0.308461487,-0.0124918222,-0.227692008
			],
			"max":[0.310356498,1.81935024,0.198518038
			]
		},
		{
			"bufferView":2,
			"componentType":5126,
			"count":20001,
			"type":"VEC2",
			"min":[0.000974658877,0.00546908379
			],
			"max":[0.998069882,0.999025345
			]
		},
		{
			"bufferView":3,
			"componentType":5126,
			"count":20001,
			"type":"VEC3",
			"min":[-0.999974728,-0.99995482,-0.99992907
			],
			"max":[0.999287963,0.999808967,0.999776602
			]
		}
	],
	"buffers":[
		{
			"uri":"evercoast.0054_data.bin",
			"byteLength":680036,
			"name":"main_buffer"
		}
	],
	"bufferViews":[
		{
			"buffer":0,
			"byteLength":40002,
			"target":34963
		},
		{
			"buffer":0,
			"byteOffset":40004,
			"byteLength":240012,
			"target":34962
		},
		{
			"buffer":0,
			"byteOffset":280016,
			"byteLength":160008,
			"target":34962
		},
		{
			"buffer":0,
			"byteOffset":440024,
			"byteLength":240012,
			"target":34962
		}
	],
	"nodes":[
		{
			"name":"HIGH",
			"mesh":0
		}
	],
	"meshes":[
		{
			"primitives":[
				{
					"attributes":{
						"NORMAL":3,
						"TEXCOORD_0":2,
						"POSITION":1
					},
					"indices":0,
					"material":0
				}
			]
		}
	],
	"materials":[
		{
			"name":"Material_1",
			"pbrMetallicRoughness":{
				"metallicFactor":0,
				"baseColorTexture":{
					"index":0
				}
			}
		}
	],
	"scenes":[
		{
			"nodes":[0
			]
		}
	],
	"textures":[
		{
			"source":0
		}
	],
	"images":[
		{
			"uri":"evercoast_0054.jpg",
			"mimeType":"image/jpeg"
		}
	],
	"scene":0
}
