{
	"asset":{
		"version":"2.0",
		"generator":"Houdini GLTF 2.0 Exporter"
	},
	"accessors":[
		{
			"bufferView":0,
			"componentType":5123,
			"count":19932,
			"type":"SCALAR",
			"min":[0
			],
			"max":[19931
			]
		},
		{
			"bufferView":1,
			"componentType":5126,
			"count":19932,
			"type":"VEC3",
			"min":[-0.276753485,-0.0132517815,-0.243111968
			],
			"max":[0.331373513,1.81468415,0.266484022
			]
		},
		{
			"bufferView":2,
			"componentType":5126,
			"count":19932,
			"type":"VEC2",
			"min":[0.000974656548,0.019344151
			],
			"max":[0.997493386,0.999025345
			]
		},
		{
			"bufferView":3,
			"componentType":5126,
			"count":19932,
			"type":"VEC3",
			"min":[-0.999794722,-0.999883711,-0.999974728
			],
			"max":[0.999381185,0.993225396,0.999905825
			]
		}
	],
	"buffers":[
		{
			"uri":"evercoast.0124_data.bin",
			"byteLength":677688,
			"name":"main_buffer"
		}
	],
	"bufferViews":[
		{
			"buffer":0,
			"byteLength":39864,
			"target":34963
		},
		{
			"buffer":0,
			"byteOffset":39864,
			"byteLength":239184,
			"target":34962
		},
		{
			"buffer":0,
			"byteOffset":279048,
			"byteLength":159456,
			"target":34962
		},
		{
			"buffer":0,
			"byteOffset":438504,
			"byteLength":239184,
			"target":34962
		}
	],
	"nodes":[
		{
			"name":"HIGH",
			"mesh":0
		}
	],
	"meshes":[
		{
			"primitives":[
				{
					"attributes":{
						"NORMAL":3,
						"TEXCOORD_0":2,
						"POSITION":1
					},
					"indices":0,
					"material":0
				}
			]
		}
	],
	"materials":[
		{
			"name":"Material_1",
			"pbrMetallicRoughness":{
				"metallicFactor":0,
				"baseColorTexture":{
					"index":0
				}
			}
		}
	],
	"scenes":[
		{
			"nodes":[0
			]
		}
	],
	"textures":[
		{
			"source":0
		}
	],
	"images":[
		{
			"uri":"evercoast_0124.jpg",
			"mimeType":"image/jpeg"
		}
	],
	"scene":0
}
