{
	"asset":{
		"version":"2.0",
		"generator":"Houdini GLTF 2.0 Exporter"
	},
	"accessors":[
		{
			"bufferView":0,
			"componentType":5123,
			"count":19950,
			"type":"SCALAR",
			"min":[0
			],
			"max":[19949
			]
		},
		{
			"bufferView":1,
			"componentType":5126,
			"count":19950,
			"type":"VEC3",
			"min":[-0.306150496,-0.017161727,-0.213371992
			],
			"max":[0.30261749,1.82143521,0.207462013
			]
		},
		{
			"bufferView":2,
			"componentType":5126,
			"count":19950,
			"type":"VEC2",
			"min":[0.000974658877,0.00390321016
			],
			"max":[0.998467207,0.999025345
			]
		},
		{
			"bufferView":3,
			"componentType":5126,
			"count":19950,
			"type":"VEC3",
			"min":[-0.999093771,-0.999950171,-0.999891579
			],
			"max":[0.999711096,0.997944832,0.999985337
			]
		}
	],
	"buffers":[
		{
			"uri":"evercoast.0027_data.bin",
			"byteLength":678300,
			"name":"main_buffer"
		}
	],
	"bufferViews":[
		{
			"buffer":0,
			"byteLength":39900,
			"target":34963
		},
		{
			"buffer":0,
			"byteOffset":39900,
			"byteLength":239400,
			"target":34962
		},
		{
			"buffer":0,
			"byteOffset":279300,
			"byteLength":159600,
			"target":34962
		},
		{
			"buffer":0,
			"byteOffset":438900,
			"byteLength":239400,
			"target":34962
		}
	],
	"nodes":[
		{
			"name":"HIGH",
			"mesh":0
		}
	],
	"meshes":[
		{
			"primitives":[
				{
					"attributes":{
						"NORMAL":3,
						"TEXCOORD_0":2,
						"POSITION":1
					},
					"indices":0,
					"material":0
				}
			]
		}
	],
	"materials":[
		{
			"name":"Material_1",
			"pbrMetallicRoughness":{
				"metallicFactor":0,
				"baseColorTexture":{
					"index":0
				}
			}
		}
	],
	"scenes":[
		{
			"nodes":[0
			]
		}
	],
	"textures":[
		{
			"source":0
		}
	],
	"images":[
		{
			"uri":"evercoast_0027.jpg",
			"mimeType":"image/jpeg"
		}
	],
	"scene":0
}
