{
	"asset":{
		"version":"2.0",
		"generator":"Houdini GLTF 2.0 Exporter"
	},
	"accessors":[
		{
			"bufferView":0,
			"componentType":5123,
			"count":19962,
			"type":"SCALAR",
			"min":[0
			],
			"max":[19961
			]
		},
		{
			"bufferView":1,
			"componentType":5126,
			"count":19962,
			"type":"VEC3",
			"min":[-0.304095507,-0.00731182098,-0.217461944
			],
			"max":[0.302876532,1.82157421,0.205953062
			]
		},
		{
			"bufferView":2,
			"componentType":5126,
			"count":19962,
			"type":"VEC2",
			"min":[0.00097464968,0.00245511532
			],
			"max":[0.998068094,0.999025345
			]
		},
		{
			"bufferView":3,
			"componentType":5126,
			"count":19962,
			"type":"VEC3",
			"min":[-0.999915898,-0.999976158,-0.999965549
			],
			"max":[0.999901414,0.998650551,0.999946952
			]
		}
	],
	"buffers":[
		{
			"uri":"evercoast.0033_data.bin",
			"byteLength":678708,
			"name":"main_buffer"
		}
	],
	"bufferViews":[
		{
			"buffer":0,
			"byteLength":39924,
			"target":34963
		},
		{
			"buffer":0,
			"byteOffset":39924,
			"byteLength":239544,
			"target":34962
		},
		{
			"buffer":0,
			"byteOffset":279468,
			"byteLength":159696,
			"target":34962
		},
		{
			"buffer":0,
			"byteOffset":439164,
			"byteLength":239544,
			"target":34962
		}
	],
	"nodes":[
		{
			"name":"HIGH",
			"mesh":0
		}
	],
	"meshes":[
		{
			"primitives":[
				{
					"attributes":{
						"NORMAL":3,
						"TEXCOORD_0":2,
						"POSITION":1
					},
					"indices":0,
					"material":0
				}
			]
		}
	],
	"materials":[
		{
			"name":"Material_1",
			"pbrMetallicRoughness":{
				"metallicFactor":0,
				"baseColorTexture":{
					"index":0
				}
			}
		}
	],
	"scenes":[
		{
			"nodes":[0
			]
		}
	],
	"textures":[
		{
			"source":0
		}
	],
	"images":[
		{
			"uri":"evercoast_0033.jpg",
			"mimeType":"image/jpeg"
		}
	],
	"scene":0
}
