{
	"asset":{
		"version":"2.0",
		"generator":"Houdini GLTF 2.0 Exporter"
	},
	"accessors":[
		{
			"bufferView":0,
			"componentType":5123,
			"count":19995,
			"type":"SCALAR",
			"min":[0
			],
			"max":[19994
			]
		},
		{
			"bufferView":1,
			"componentType":5126,
			"count":19995,
			"type":"VEC3",
			"min":[-0.287260473,-0.00625181198,-0.242731929
			],
			"max":[0.337305486,1.81400526,0.223985016
			]
		},
		{
			"bufferView":2,
			"componentType":5126,
			"count":19995,
			"type":"VEC2",
			"min":[0.000974658586,0.0038189292
			],
			"max":[0.997635186,0.999025345
			]
		},
		{
			"bufferView":3,
			"componentType":5126,
			"count":19995,
			"type":"VEC3",
			"min":[-0.999931693,-0.999944091,-0.999533892
			],
			"max":[0.999497354,0.999168754,0.999893963
			]
		}
	],
	"buffers":[
		{
			"uri":"evercoast.0127_data.bin",
			"byteLength":679832,
			"name":"main_buffer"
		}
	],
	"bufferViews":[
		{
			"buffer":0,
			"byteLength":39990,
			"target":34963
		},
		{
			"buffer":0,
			"byteOffset":39992,
			"byteLength":239940,
			"target":34962
		},
		{
			"buffer":0,
			"byteOffset":279932,
			"byteLength":159960,
			"target":34962
		},
		{
			"buffer":0,
			"byteOffset":439892,
			"byteLength":239940,
			"target":34962
		}
	],
	"nodes":[
		{
			"name":"HIGH",
			"mesh":0
		}
	],
	"meshes":[
		{
			"primitives":[
				{
					"attributes":{
						"NORMAL":3,
						"TEXCOORD_0":2,
						"POSITION":1
					},
					"indices":0,
					"material":0
				}
			]
		}
	],
	"materials":[
		{
			"name":"Material_1",
			"pbrMetallicRoughness":{
				"metallicFactor":0,
				"baseColorTexture":{
					"index":0
				}
			}
		}
	],
	"scenes":[
		{
			"nodes":[0
			]
		}
	],
	"textures":[
		{
			"source":0
		}
	],
	"images":[
		{
			"uri":"evercoast_0127.jpg",
			"mimeType":"image/jpeg"
		}
	],
	"scene":0
}
