{
	"asset":{
		"version":"2.0",
		"generator":"Houdini GLTF 2.0 Exporter"
	},
	"accessors":[
		{
			"bufferView":0,
			"componentType":5123,
			"count":19950,
			"type":"SCALAR",
			"min":[0
			],
			"max":[19949
			]
		},
		{
			"bufferView":1,
			"componentType":5126,
			"count":19950,
			"type":"VEC3",
			"min":[-0.283495486,-0.0140618086,-0.217461944
			],
			"max":[0.345646501,1.81079423,0.229216039
			]
		},
		{
			"bufferView":2,
			"componentType":5126,
			"count":19950,
			"type":"VEC2",
			"min":[0.000974659633,0.0079960227
			],
			"max":[0.998205841,0.999025345
			]
		},
		{
			"bufferView":3,
			"componentType":5126,
			"count":19950,
			"type":"VEC3",
			"min":[-0.999997079,-0.999343991,-0.999743164
			],
			"max":[0.999449968,0.99762398,0.999871552
			]
		}
	],
	"buffers":[
		{
			"uri":"evercoast.0144_data.bin",
			"byteLength":678300,
			"name":"main_buffer"
		}
	],
	"bufferViews":[
		{
			"buffer":0,
			"byteLength":39900,
			"target":34963
		},
		{
			"buffer":0,
			"byteOffset":39900,
			"byteLength":239400,
			"target":34962
		},
		{
			"buffer":0,
			"byteOffset":279300,
			"byteLength":159600,
			"target":34962
		},
		{
			"buffer":0,
			"byteOffset":438900,
			"byteLength":239400,
			"target":34962
		}
	],
	"nodes":[
		{
			"name":"HIGH",
			"mesh":0
		}
	],
	"meshes":[
		{
			"primitives":[
				{
					"attributes":{
						"NORMAL":3,
						"TEXCOORD_0":2,
						"POSITION":1
					},
					"indices":0,
					"material":0
				}
			]
		}
	],
	"materials":[
		{
			"name":"Material_1",
			"pbrMetallicRoughness":{
				"metallicFactor":0,
				"baseColorTexture":{
					"index":0
				}
			}
		}
	],
	"scenes":[
		{
			"nodes":[0
			]
		}
	],
	"textures":[
		{
			"source":0
		}
	],
	"images":[
		{
			"uri":"evercoast_0144.jpg",
			"mimeType":"image/jpeg"
		}
	],
	"scene":0
}
