{
	"asset":{
		"version":"2.0",
		"generator":"Houdini GLTF 2.0 Exporter"
	},
	"accessors":[
		{
			"bufferView":0,
			"componentType":5123,
			"count":19953,
			"type":"SCALAR",
			"min":[0
			],
			"max":[19952
			]
		},
		{
			"bufferView":1,
			"componentType":5126,
			"count":19953,
			"type":"VEC3",
			"min":[-0.277726471,-0.00690174103,-0.239061952
			],
			"max":[0.325087488,1.81550121,0.302250028
			]
		},
		{
			"bufferView":2,
			"componentType":5126,
			"count":19953,
			"type":"VEC2",
			"min":[0.000974658877,0.00950992107
			],
			"max":[0.998453557,0.999025345
			]
		},
		{
			"bufferView":3,
			"componentType":5126,
			"count":19953,
			"type":"VEC3",
			"min":[-0.999953747,-0.999159515,-1
			],
			"max":[0.999992728,0.990839601,0.999980807
			]
		}
	],
	"buffers":[
		{
			"uri":"evercoast.0121_data.bin",
			"byteLength":678404,
			"name":"main_buffer"
		}
	],
	"bufferViews":[
		{
			"buffer":0,
			"byteLength":39906,
			"target":34963
		},
		{
			"buffer":0,
			"byteOffset":39908,
			"byteLength":239436,
			"target":34962
		},
		{
			"buffer":0,
			"byteOffset":279344,
			"byteLength":159624,
			"target":34962
		},
		{
			"buffer":0,
			"byteOffset":438968,
			"byteLength":239436,
			"target":34962
		}
	],
	"nodes":[
		{
			"name":"HIGH",
			"mesh":0
		}
	],
	"meshes":[
		{
			"primitives":[
				{
					"attributes":{
						"NORMAL":3,
						"TEXCOORD_0":2,
						"POSITION":1
					},
					"indices":0,
					"material":0
				}
			]
		}
	],
	"materials":[
		{
			"name":"Material_1",
			"pbrMetallicRoughness":{
				"metallicFactor":0,
				"baseColorTexture":{
					"index":0
				}
			}
		}
	],
	"scenes":[
		{
			"nodes":[0
			]
		}
	],
	"textures":[
		{
			"source":0
		}
	],
	"images":[
		{
			"uri":"evercoast_0121.jpg",
			"mimeType":"image/jpeg"
		}
	],
	"scene":0
}
