{
	"asset":{
		"version":"2.0",
		"generator":"Houdini GLTF 2.0 Exporter"
	},
	"accessors":[
		{
			"bufferView":0,
			"componentType":5123,
			"count":20016,
			"type":"SCALAR",
			"min":[0
			],
			"max":[20015
			]
		},
		{
			"bufferView":1,
			"componentType":5126,
			"count":20016,
			"type":"VEC3",
			"min":[-0.306588471,-0.0102918148,-0.212841988
			],
			"max":[0.305521488,1.82216823,0.210900009
			]
		},
		{
			"bufferView":2,
			"componentType":5126,
			"count":20016,
			"type":"VEC2",
			"min":[0.000974658877,0.0122428536
			],
			"max":[0.998304188,0.999025345
			]
		},
		{
			"bufferView":3,
			"componentType":5126,
			"count":20016,
			"type":"VEC3",
			"min":[-0.999883831,-0.999954879,-0.999964595
			],
			"max":[0.99940002,0.994633198,0.999265373
			]
		}
	],
	"buffers":[
		{
			"uri":"evercoast.0019_data.bin",
			"byteLength":680544,
			"name":"main_buffer"
		}
	],
	"bufferViews":[
		{
			"buffer":0,
			"byteLength":40032,
			"target":34963
		},
		{
			"buffer":0,
			"byteOffset":40032,
			"byteLength":240192,
			"target":34962
		},
		{
			"buffer":0,
			"byteOffset":280224,
			"byteLength":160128,
			"target":34962
		},
		{
			"buffer":0,
			"byteOffset":440352,
			"byteLength":240192,
			"target":34962
		}
	],
	"nodes":[
		{
			"name":"HIGH",
			"mesh":0
		}
	],
	"meshes":[
		{
			"primitives":[
				{
					"attributes":{
						"NORMAL":3,
						"TEXCOORD_0":2,
						"POSITION":1
					},
					"indices":0,
					"material":0
				}
			]
		}
	],
	"materials":[
		{
			"name":"Material_1",
			"pbrMetallicRoughness":{
				"metallicFactor":0,
				"baseColorTexture":{
					"index":0
				}
			}
		}
	],
	"scenes":[
		{
			"nodes":[0
			]
		}
	],
	"textures":[
		{
			"source":0
		}
	],
	"images":[
		{
			"uri":"evercoast_0019.jpg",
			"mimeType":"image/jpeg"
		}
	],
	"scene":0
}
