{
	"asset":{
		"version":"2.0",
		"generator":"Houdini GLTF 2.0 Exporter"
	},
	"accessors":[
		{
			"bufferView":0,
			"componentType":5123,
			"count":19941,
			"type":"SCALAR",
			"min":[0
			],
			"max":[19940
			]
		},
		{
			"bufferView":1,
			"componentType":5126,
			"count":19941,
			"type":"VEC3",
			"min":[-0.284075499,-0.0119017363,-0.225721955
			],
			"max":[0.309524536,1.81240022,0.284512043
			]
		},
		{
			"bufferView":2,
			"componentType":5126,
			"count":19941,
			"type":"VEC2",
			"min":[0.000974658004,0.0154690742
			],
			"max":[0.998290777,0.999025345
			]
		},
		{
			"bufferView":3,
			"componentType":5126,
			"count":19941,
			"type":"VEC3",
			"min":[-0.999503255,-0.999631047,-0.999964774
			],
			"max":[0.99994719,0.999129534,0.999952674
			]
		}
	],
	"buffers":[
		{
			"uri":"evercoast.0112_data.bin",
			"byteLength":677996,
			"name":"main_buffer"
		}
	],
	"bufferViews":[
		{
			"buffer":0,
			"byteLength":39882,
			"target":34963
		},
		{
			"buffer":0,
			"byteOffset":39884,
			"byteLength":239292,
			"target":34962
		},
		{
			"buffer":0,
			"byteOffset":279176,
			"byteLength":159528,
			"target":34962
		},
		{
			"buffer":0,
			"byteOffset":438704,
			"byteLength":239292,
			"target":34962
		}
	],
	"nodes":[
		{
			"name":"HIGH",
			"mesh":0
		}
	],
	"meshes":[
		{
			"primitives":[
				{
					"attributes":{
						"NORMAL":3,
						"TEXCOORD_0":2,
						"POSITION":1
					},
					"indices":0,
					"material":0
				}
			]
		}
	],
	"materials":[
		{
			"name":"Material_1",
			"pbrMetallicRoughness":{
				"metallicFactor":0,
				"baseColorTexture":{
					"index":0
				}
			}
		}
	],
	"scenes":[
		{
			"nodes":[0
			]
		}
	],
	"textures":[
		{
			"source":0
		}
	],
	"images":[
		{
			"uri":"evercoast_0112.jpg",
			"mimeType":"image/jpeg"
		}
	],
	"scene":0
}
