{
	"asset":{
		"version":"2.0",
		"generator":"Houdini GLTF 2.0 Exporter"
	},
	"accessors":[
		{
			"bufferView":0,
			"componentType":5123,
			"count":20019,
			"type":"SCALAR",
			"min":[0
			],
			"max":[20018
			]
		},
		{
			"bufferView":1,
			"componentType":5126,
			"count":20019,
			"type":"VEC3",
			"min":[-0.308487475,-0.00663173199,-0.228582025
			],
			"max":[0.307342529,1.81829619,0.198534012
			]
		},
		{
			"bufferView":2,
			"componentType":5126,
			"count":20019,
			"type":"VEC2",
			"min":[0.000974658818,0.00947117805
			],
			"max":[0.998392761,0.999025345
			]
		},
		{
			"bufferView":3,
			"componentType":5126,
			"count":20019,
			"type":"VEC3",
			"min":[-0.999592543,-0.999991298,-0.999996305
			],
			"max":[0.999866307,0.997327387,0.999705195
			]
		}
	],
	"buffers":[
		{
			"uri":"evercoast.0057_data.bin",
			"byteLength":680648,
			"name":"main_buffer"
		}
	],
	"bufferViews":[
		{
			"buffer":0,
			"byteLength":40038,
			"target":34963
		},
		{
			"buffer":0,
			"byteOffset":40040,
			"byteLength":240228,
			"target":34962
		},
		{
			"buffer":0,
			"byteOffset":280268,
			"byteLength":160152,
			"target":34962
		},
		{
			"buffer":0,
			"byteOffset":440420,
			"byteLength":240228,
			"target":34962
		}
	],
	"nodes":[
		{
			"name":"HIGH",
			"mesh":0
		}
	],
	"meshes":[
		{
			"primitives":[
				{
					"attributes":{
						"NORMAL":3,
						"TEXCOORD_0":2,
						"POSITION":1
					},
					"indices":0,
					"material":0
				}
			]
		}
	],
	"materials":[
		{
			"name":"Material_1",
			"pbrMetallicRoughness":{
				"metallicFactor":0,
				"baseColorTexture":{
					"index":0
				}
			}
		}
	],
	"scenes":[
		{
			"nodes":[0
			]
		}
	],
	"textures":[
		{
			"source":0
		}
	],
	"images":[
		{
			"uri":"evercoast_0057.jpg",
			"mimeType":"image/jpeg"
		}
	],
	"scene":0
}
