{
	"asset":{
		"version":"2.0",
		"generator":"Houdini GLTF 2.0 Exporter"
	},
	"accessors":[
		{
			"bufferView":0,
			"componentType":5123,
			"count":19878,
			"type":"SCALAR",
			"min":[0
			],
			"max":[19877
			]
		},
		{
			"bufferView":1,
			"componentType":5126,
			"count":19878,
			"type":"VEC3",
			"min":[-0.315766513,-0.0171717405,-0.219012022
			],
			"max":[0.339090526,1.81753516,0.300074041
			]
		},
		{
			"bufferView":2,
			"componentType":5126,
			"count":19878,
			"type":"VEC2",
			"min":[0.000974654104,0.00766909122
			],
			"max":[0.998478532,0.999025345
			]
		},
		{
			"bufferView":3,
			"componentType":5126,
			"count":19878,
			"type":"VEC3",
			"min":[-0.999308348,-0.999505699,-0.999955833
			],
			"max":[0.999665201,0.999892116,0.999903381
			]
		}
	],
	"buffers":[
		{
			"uri":"evercoast.0107_data.bin",
			"byteLength":675852,
			"name":"main_buffer"
		}
	],
	"bufferViews":[
		{
			"buffer":0,
			"byteLength":39756,
			"target":34963
		},
		{
			"buffer":0,
			"byteOffset":39756,
			"byteLength":238536,
			"target":34962
		},
		{
			"buffer":0,
			"byteOffset":278292,
			"byteLength":159024,
			"target":34962
		},
		{
			"buffer":0,
			"byteOffset":437316,
			"byteLength":238536,
			"target":34962
		}
	],
	"nodes":[
		{
			"name":"HIGH",
			"mesh":0
		}
	],
	"meshes":[
		{
			"primitives":[
				{
					"attributes":{
						"NORMAL":3,
						"TEXCOORD_0":2,
						"POSITION":1
					},
					"indices":0,
					"material":0
				}
			]
		}
	],
	"materials":[
		{
			"name":"Material_1",
			"pbrMetallicRoughness":{
				"metallicFactor":0,
				"baseColorTexture":{
					"index":0
				}
			}
		}
	],
	"scenes":[
		{
			"nodes":[0
			]
		}
	],
	"textures":[
		{
			"source":0
		}
	],
	"images":[
		{
			"uri":"evercoast_0107.jpg",
			"mimeType":"image/jpeg"
		}
	],
	"scene":0
}
