{
	"asset":{
		"version":"2.0",
		"generator":"Houdini GLTF 2.0 Exporter"
	},
	"accessors":[
		{
			"bufferView":0,
			"componentType":5123,
			"count":19995,
			"type":"SCALAR",
			"min":[0
			],
			"max":[19994
			]
		},
		{
			"bufferView":1,
			"componentType":5126,
			"count":19995,
			"type":"VEC3",
			"min":[-0.308290482,-0.0132917166,-0.228211999
			],
			"max":[0.308793485,1.81844926,0.198217034
			]
		},
		{
			"bufferView":2,
			"componentType":5126,
			"count":19995,
			"type":"VEC2",
			"min":[0.000974658702,0.00155711174
			],
			"max":[0.99740392,0.999025345
			]
		},
		{
			"bufferView":3,
			"componentType":5126,
			"count":19995,
			"type":"VEC3",
			"min":[-0.999943793,-0.999683499,-0.999997437
			],
			"max":[0.999959886,0.99077338,0.999762297
			]
		}
	],
	"buffers":[
		{
			"uri":"evercoast.0055_data.bin",
			"byteLength":679832,
			"name":"main_buffer"
		}
	],
	"bufferViews":[
		{
			"buffer":0,
			"byteLength":39990,
			"target":34963
		},
		{
			"buffer":0,
			"byteOffset":39992,
			"byteLength":239940,
			"target":34962
		},
		{
			"buffer":0,
			"byteOffset":279932,
			"byteLength":159960,
			"target":34962
		},
		{
			"buffer":0,
			"byteOffset":439892,
			"byteLength":239940,
			"target":34962
		}
	],
	"nodes":[
		{
			"name":"HIGH",
			"mesh":0
		}
	],
	"meshes":[
		{
			"primitives":[
				{
					"attributes":{
						"NORMAL":3,
						"TEXCOORD_0":2,
						"POSITION":1
					},
					"indices":0,
					"material":0
				}
			]
		}
	],
	"materials":[
		{
			"name":"Material_1",
			"pbrMetallicRoughness":{
				"metallicFactor":0,
				"baseColorTexture":{
					"index":0
				}
			}
		}
	],
	"scenes":[
		{
			"nodes":[0
			]
		}
	],
	"textures":[
		{
			"source":0
		}
	],
	"images":[
		{
			"uri":"evercoast_0055.jpg",
			"mimeType":"image/jpeg"
		}
	],
	"scene":0
}
