{
	"asset":{
		"version":"2.0",
		"generator":"Houdini GLTF 2.0 Exporter"
	},
	"accessors":[
		{
			"bufferView":0,
			"componentType":5123,
			"count":20031,
			"type":"SCALAR",
			"min":[0
			],
			"max":[20030
			]
		},
		{
			"bufferView":1,
			"componentType":5126,
			"count":20031,
			"type":"VEC3",
			"min":[-0.310886502,-0.0051817894,-0.232671976
			],
			"max":[0.302557528,1.81913924,0.208199024
			]
		},
		{
			"bufferView":2,
			"componentType":5126,
			"count":20031,
			"type":"VEC2",
			"min":[0.000974658877,0.00144708157
			],
			"max":[0.99790585,0.999025345
			]
		},
		{
			"bufferView":3,
			"componentType":5126,
			"count":20031,
			"type":"VEC3",
			"min":[-0.998919725,-0.998792946,-0.999991536
			],
			"max":[0.999974966,0.999789953,0.999606729
			]
		}
	],
	"buffers":[
		{
			"uri":"evercoast.0075_data.bin",
			"byteLength":681056,
			"name":"main_buffer"
		}
	],
	"bufferViews":[
		{
			"buffer":0,
			"byteLength":40062,
			"target":34963
		},
		{
			"buffer":0,
			"byteOffset":40064,
			"byteLength":240372,
			"target":34962
		},
		{
			"buffer":0,
			"byteOffset":280436,
			"byteLength":160248,
			"target":34962
		},
		{
			"buffer":0,
			"byteOffset":440684,
			"byteLength":240372,
			"target":34962
		}
	],
	"nodes":[
		{
			"name":"HIGH",
			"mesh":0
		}
	],
	"meshes":[
		{
			"primitives":[
				{
					"attributes":{
						"NORMAL":3,
						"TEXCOORD_0":2,
						"POSITION":1
					},
					"indices":0,
					"material":0
				}
			]
		}
	],
	"materials":[
		{
			"name":"Material_1",
			"pbrMetallicRoughness":{
				"metallicFactor":0,
				"baseColorTexture":{
					"index":0
				}
			}
		}
	],
	"scenes":[
		{
			"nodes":[0
			]
		}
	],
	"textures":[
		{
			"source":0
		}
	],
	"images":[
		{
			"uri":"evercoast_0075.jpg",
			"mimeType":"image/jpeg"
		}
	],
	"scene":0
}
