{
	"asset":{
		"version":"2.0",
		"generator":"Houdini GLTF 2.0 Exporter"
	},
	"accessors":[
		{
			"bufferView":0,
			"componentType":5123,
			"count":19932,
			"type":"SCALAR",
			"min":[0
			],
			"max":[19931
			]
		},
		{
			"bufferView":1,
			"componentType":5126,
			"count":19932,
			"type":"VEC3",
			"min":[-0.309119463,-0.0208917856,-0.218212008
			],
			"max":[0.361588538,1.8175993,0.296946049
			]
		},
		{
			"bufferView":2,
			"componentType":5126,
			"count":19932,
			"type":"VEC2",
			"min":[0.000974657596,0.0141085982
			],
			"max":[0.998166621,0.999025345
			]
		},
		{
			"bufferView":3,
			"componentType":5126,
			"count":19932,
			"type":"VEC3",
			"min":[-0.99957329,-0.999893069,-0.999985218
			],
			"max":[0.99867022,0.998138666,0.999999285
			]
		}
	],
	"buffers":[
		{
			"uri":"evercoast.0099_data.bin",
			"byteLength":677688,
			"name":"main_buffer"
		}
	],
	"bufferViews":[
		{
			"buffer":0,
			"byteLength":39864,
			"target":34963
		},
		{
			"buffer":0,
			"byteOffset":39864,
			"byteLength":239184,
			"target":34962
		},
		{
			"buffer":0,
			"byteOffset":279048,
			"byteLength":159456,
			"target":34962
		},
		{
			"buffer":0,
			"byteOffset":438504,
			"byteLength":239184,
			"target":34962
		}
	],
	"nodes":[
		{
			"name":"HIGH",
			"mesh":0
		}
	],
	"meshes":[
		{
			"primitives":[
				{
					"attributes":{
						"NORMAL":3,
						"TEXCOORD_0":2,
						"POSITION":1
					},
					"indices":0,
					"material":0
				}
			]
		}
	],
	"materials":[
		{
			"name":"Material_1",
			"pbrMetallicRoughness":{
				"metallicFactor":0,
				"baseColorTexture":{
					"index":0
				}
			}
		}
	],
	"scenes":[
		{
			"nodes":[0
			]
		}
	],
	"textures":[
		{
			"source":0
		}
	],
	"images":[
		{
			"uri":"evercoast_0099.jpg",
			"mimeType":"image/jpeg"
		}
	],
	"scene":0
}
