{
	"asset":{
		"version":"2.0",
		"generator":"Houdini GLTF 2.0 Exporter"
	},
	"accessors":[
		{
			"bufferView":0,
			"componentType":5123,
			"count":19965,
			"type":"SCALAR",
			"min":[0
			],
			"max":[19964
			]
		},
		{
			"bufferView":1,
			"componentType":5126,
			"count":19965,
			"type":"VEC3",
			"min":[-0.309989512,-0.0115317106,-0.222821951
			],
			"max":[0.301465511,1.8197372,0.199504018
			]
		},
		{
			"bufferView":2,
			"componentType":5126,
			"count":19965,
			"type":"VEC2",
			"min":[0.000974658877,0.000914752483
			],
			"max":[0.997980416,0.999025345
			]
		},
		{
			"bufferView":3,
			"componentType":5126,
			"count":19965,
			"type":"VEC3",
			"min":[-0.99880594,-0.999822795,-0.999995708
			],
			"max":[0.999591947,0.994601667,0.999541819
			]
		}
	],
	"buffers":[
		{
			"uri":"evercoast.0068_data.bin",
			"byteLength":678812,
			"name":"main_buffer"
		}
	],
	"bufferViews":[
		{
			"buffer":0,
			"byteLength":39930,
			"target":34963
		},
		{
			"buffer":0,
			"byteOffset":39932,
			"byteLength":239580,
			"target":34962
		},
		{
			"buffer":0,
			"byteOffset":279512,
			"byteLength":159720,
			"target":34962
		},
		{
			"buffer":0,
			"byteOffset":439232,
			"byteLength":239580,
			"target":34962
		}
	],
	"nodes":[
		{
			"name":"HIGH",
			"mesh":0
		}
	],
	"meshes":[
		{
			"primitives":[
				{
					"attributes":{
						"NORMAL":3,
						"TEXCOORD_0":2,
						"POSITION":1
					},
					"indices":0,
					"material":0
				}
			]
		}
	],
	"materials":[
		{
			"name":"Material_1",
			"pbrMetallicRoughness":{
				"metallicFactor":0,
				"baseColorTexture":{
					"index":0
				}
			}
		}
	],
	"scenes":[
		{
			"nodes":[0
			]
		}
	],
	"textures":[
		{
			"source":0
		}
	],
	"images":[
		{
			"uri":"evercoast_0068.jpg",
			"mimeType":"image/jpeg"
		}
	],
	"scene":0
}
