{
	"asset":{
		"version":"2.0",
		"generator":"Houdini GLTF 2.0 Exporter"
	},
	"accessors":[
		{
			"bufferView":0,
			"componentType":5123,
			"count":19908,
			"type":"SCALAR",
			"min":[0
			],
			"max":[19907
			]
		},
		{
			"bufferView":1,
			"componentType":5126,
			"count":19908,
			"type":"VEC3",
			"min":[-0.293272495,-0.0127817392,-0.218222022
			],
			"max":[0.358231485,1.81673324,0.29835701
			]
		},
		{
			"bufferView":2,
			"componentType":5126,
			"count":19908,
			"type":"VEC2",
			"min":[0.000974658877,0.0140552521
			],
			"max":[0.998285532,0.999025345
			]
		},
		{
			"bufferView":3,
			"componentType":5126,
			"count":19908,
			"type":"VEC3",
			"min":[-0.99996388,-0.999894977,-0.999983668
			],
			"max":[0.999599934,0.999586403,0.99988085
			]
		}
	],
	"buffers":[
		{
			"uri":"evercoast.0098_data.bin",
			"byteLength":676872,
			"name":"main_buffer"
		}
	],
	"bufferViews":[
		{
			"buffer":0,
			"byteLength":39816,
			"target":34963
		},
		{
			"buffer":0,
			"byteOffset":39816,
			"byteLength":238896,
			"target":34962
		},
		{
			"buffer":0,
			"byteOffset":278712,
			"byteLength":159264,
			"target":34962
		},
		{
			"buffer":0,
			"byteOffset":437976,
			"byteLength":238896,
			"target":34962
		}
	],
	"nodes":[
		{
			"name":"HIGH",
			"mesh":0
		}
	],
	"meshes":[
		{
			"primitives":[
				{
					"attributes":{
						"NORMAL":3,
						"TEXCOORD_0":2,
						"POSITION":1
					},
					"indices":0,
					"material":0
				}
			]
		}
	],
	"materials":[
		{
			"name":"Material_1",
			"pbrMetallicRoughness":{
				"metallicFactor":0,
				"baseColorTexture":{
					"index":0
				}
			}
		}
	],
	"scenes":[
		{
			"nodes":[0
			]
		}
	],
	"textures":[
		{
			"source":0
		}
	],
	"images":[
		{
			"uri":"evercoast_0098.jpg",
			"mimeType":"image/jpeg"
		}
	],
	"scene":0
}
