{
	"asset":{
		"version":"2.0",
		"generator":"Houdini GLTF 2.0 Exporter"
	},
	"accessors":[
		{
			"bufferView":0,
			"componentType":5123,
			"count":19881,
			"type":"SCALAR",
			"min":[0
			],
			"max":[19880
			]
		},
		{
			"bufferView":1,
			"componentType":5126,
			"count":19881,
			"type":"VEC3",
			"min":[-0.271220505,-0.00958180428,-0.234712005
			],
			"max":[0.345007539,1.81304717,0.183656037
			]
		},
		{
			"bufferView":2,
			"componentType":5126,
			"count":19881,
			"type":"VEC2",
			"min":[0.000974651193,0.0200455785
			],
			"max":[0.99717325,0.999025345
			]
		},
		{
			"bufferView":3,
			"componentType":5126,
			"count":19881,
			"type":"VEC3",
			"min":[-0.999917209,-0.999076545,-0.999948025
			],
			"max":[0.999603868,0.994450688,0.999797106
			]
		}
	],
	"buffers":[
		{
			"uri":"evercoast.0134_data.bin",
			"byteLength":675956,
			"name":"main_buffer"
		}
	],
	"bufferViews":[
		{
			"buffer":0,
			"byteLength":39762,
			"target":34963
		},
		{
			"buffer":0,
			"byteOffset":39764,
			"byteLength":238572,
			"target":34962
		},
		{
			"buffer":0,
			"byteOffset":278336,
			"byteLength":159048,
			"target":34962
		},
		{
			"buffer":0,
			"byteOffset":437384,
			"byteLength":238572,
			"target":34962
		}
	],
	"nodes":[
		{
			"name":"HIGH",
			"mesh":0
		}
	],
	"meshes":[
		{
			"primitives":[
				{
					"attributes":{
						"NORMAL":3,
						"TEXCOORD_0":2,
						"POSITION":1
					},
					"indices":0,
					"material":0
				}
			]
		}
	],
	"materials":[
		{
			"name":"Material_1",
			"pbrMetallicRoughness":{
				"metallicFactor":0,
				"baseColorTexture":{
					"index":0
				}
			}
		}
	],
	"scenes":[
		{
			"nodes":[0
			]
		}
	],
	"textures":[
		{
			"source":0
		}
	],
	"images":[
		{
			"uri":"evercoast_0134.jpg",
			"mimeType":"image/jpeg"
		}
	],
	"scene":0
}
