{
	"asset":{
		"version":"2.0",
		"generator":"Houdini GLTF 2.0 Exporter"
	},
	"accessors":[
		{
			"bufferView":0,
			"componentType":5123,
			"count":19968,
			"type":"SCALAR",
			"min":[0
			],
			"max":[19967
			]
		},
		{
			"bufferView":1,
			"componentType":5126,
			"count":19968,
			"type":"VEC3",
			"min":[-0.303289473,-0.0109517574,-0.233611941
			],
			"max":[0.340846539,1.81229126,0.288653016
			]
		},
		{
			"bufferView":2,
			"componentType":5126,
			"count":19968,
			"type":"VEC2",
			"min":[0.000974644267,0.0146588683
			],
			"max":[0.998038471,0.999025345
			]
		},
		{
			"bufferView":3,
			"componentType":5126,
			"count":19968,
			"type":"VEC3",
			"min":[-0.999483109,-0.999761462,-0.999775708
			],
			"max":[0.999872148,0.993161142,0.999929607
			]
		}
	],
	"buffers":[
		{
			"uri":"evercoast.0147_data.bin",
			"byteLength":678912,
			"name":"main_buffer"
		}
	],
	"bufferViews":[
		{
			"buffer":0,
			"byteLength":39936,
			"target":34963
		},
		{
			"buffer":0,
			"byteOffset":39936,
			"byteLength":239616,
			"target":34962
		},
		{
			"buffer":0,
			"byteOffset":279552,
			"byteLength":159744,
			"target":34962
		},
		{
			"buffer":0,
			"byteOffset":439296,
			"byteLength":239616,
			"target":34962
		}
	],
	"nodes":[
		{
			"name":"HIGH",
			"mesh":0
		}
	],
	"meshes":[
		{
			"primitives":[
				{
					"attributes":{
						"NORMAL":3,
						"TEXCOORD_0":2,
						"POSITION":1
					},
					"indices":0,
					"material":0
				}
			]
		}
	],
	"materials":[
		{
			"name":"Material_1",
			"pbrMetallicRoughness":{
				"metallicFactor":0,
				"baseColorTexture":{
					"index":0
				}
			}
		}
	],
	"scenes":[
		{
			"nodes":[0
			]
		}
	],
	"textures":[
		{
			"source":0
		}
	],
	"images":[
		{
			"uri":"evercoast_0147.jpg",
			"mimeType":"image/jpeg"
		}
	],
	"scene":0
}
