{
	"asset":{
		"version":"2.0",
		"generator":"Houdini GLTF 2.0 Exporter"
	},
	"accessors":[
		{
			"bufferView":0,
			"componentType":5123,
			"count":19962,
			"type":"SCALAR",
			"min":[0
			],
			"max":[19961
			]
		},
		{
			"bufferView":1,
			"componentType":5126,
			"count":19962,
			"type":"VEC3",
			"min":[-0.304236472,-0.00917172432,-0.219012022
			],
			"max":[0.305224538,1.82108831,0.202761054
			]
		},
		{
			"bufferView":2,
			"componentType":5126,
			"count":19962,
			"type":"VEC2",
			"min":[0.000974658877,0.0126498342
			],
			"max":[0.998217762,0.999025345
			]
		},
		{
			"bufferView":3,
			"componentType":5126,
			"count":19962,
			"type":"VEC3",
			"min":[-0.998482049,-0.999916911,-0.999959707
			],
			"max":[0.999680459,0.997053564,0.999964356
			]
		}
	],
	"buffers":[
		{
			"uri":"evercoast.0036_data.bin",
			"byteLength":678708,
			"name":"main_buffer"
		}
	],
	"bufferViews":[
		{
			"buffer":0,
			"byteLength":39924,
			"target":34963
		},
		{
			"buffer":0,
			"byteOffset":39924,
			"byteLength":239544,
			"target":34962
		},
		{
			"buffer":0,
			"byteOffset":279468,
			"byteLength":159696,
			"target":34962
		},
		{
			"buffer":0,
			"byteOffset":439164,
			"byteLength":239544,
			"target":34962
		}
	],
	"nodes":[
		{
			"name":"HIGH",
			"mesh":0
		}
	],
	"meshes":[
		{
			"primitives":[
				{
					"attributes":{
						"NORMAL":3,
						"TEXCOORD_0":2,
						"POSITION":1
					},
					"indices":0,
					"material":0
				}
			]
		}
	],
	"materials":[
		{
			"name":"Material_1",
			"pbrMetallicRoughness":{
				"metallicFactor":0,
				"baseColorTexture":{
					"index":0
				}
			}
		}
	],
	"scenes":[
		{
			"nodes":[0
			]
		}
	],
	"textures":[
		{
			"source":0
		}
	],
	"images":[
		{
			"uri":"evercoast_0036.jpg",
			"mimeType":"image/jpeg"
		}
	],
	"scene":0
}
