{
	"asset":{
		"version":"2.0",
		"generator":"Houdini GLTF 2.0 Exporter"
	},
	"accessors":[
		{
			"bufferView":0,
			"componentType":5123,
			"count":19986,
			"type":"SCALAR",
			"min":[0
			],
			"max":[19985
			]
		},
		{
			"bufferView":1,
			"componentType":5126,
			"count":19986,
			"type":"VEC3",
			"min":[-0.307447493,-0.0101118088,-0.211751938
			],
			"max":[0.306978524,1.8223803,0.210349023
			]
		},
		{
			"bufferView":2,
			"componentType":5126,
			"count":19986,
			"type":"VEC2",
			"min":[0.000974657014,0.00271207094
			],
			"max":[0.997258306,0.999025345
			]
		},
		{
			"bufferView":3,
			"componentType":5126,
			"count":19986,
			"type":"VEC3",
			"min":[-0.999960065,-0.999876201,-0.999943137
			],
			"max":[0.999899566,0.99979496,0.999714434
			]
		}
	],
	"buffers":[
		{
			"uri":"evercoast.0018_data.bin",
			"byteLength":679524,
			"name":"main_buffer"
		}
	],
	"bufferViews":[
		{
			"buffer":0,
			"byteLength":39972,
			"target":34963
		},
		{
			"buffer":0,
			"byteOffset":39972,
			"byteLength":239832,
			"target":34962
		},
		{
			"buffer":0,
			"byteOffset":279804,
			"byteLength":159888,
			"target":34962
		},
		{
			"buffer":0,
			"byteOffset":439692,
			"byteLength":239832,
			"target":34962
		}
	],
	"nodes":[
		{
			"name":"HIGH",
			"mesh":0
		}
	],
	"meshes":[
		{
			"primitives":[
				{
					"attributes":{
						"NORMAL":3,
						"TEXCOORD_0":2,
						"POSITION":1
					},
					"indices":0,
					"material":0
				}
			]
		}
	],
	"materials":[
		{
			"name":"Material_1",
			"pbrMetallicRoughness":{
				"metallicFactor":0,
				"baseColorTexture":{
					"index":0
				}
			}
		}
	],
	"scenes":[
		{
			"nodes":[0
			]
		}
	],
	"textures":[
		{
			"source":0
		}
	],
	"images":[
		{
			"uri":"evercoast_0018.jpg",
			"mimeType":"image/jpeg"
		}
	],
	"scene":0
}
