{
	"asset":{
		"version":"2.0",
		"generator":"Houdini GLTF 2.0 Exporter"
	},
	"accessors":[
		{
			"bufferView":0,
			"componentType":5123,
			"count":19995,
			"type":"SCALAR",
			"min":[0
			],
			"max":[19994
			]
		},
		{
			"bufferView":1,
			"componentType":5126,
			"count":19995,
			"type":"VEC3",
			"min":[-0.307101488,-0.00815176964,-0.214872003
			],
			"max":[0.30577451,1.82231832,0.207042038
			]
		},
		{
			"bufferView":2,
			"componentType":5126,
			"count":19995,
			"type":"VEC2",
			"min":[0.000974658877,0.00955092907
			],
			"max":[0.997896194,0.999025345
			]
		},
		{
			"bufferView":3,
			"componentType":5126,
			"count":19995,
			"type":"VEC3",
			"min":[-0.999667406,-0.999999404,-1
			],
			"max":[0.99991858,0.998289704,0.999908447
			]
		}
	],
	"buffers":[
		{
			"uri":"evercoast.0029_data.bin",
			"byteLength":679832,
			"name":"main_buffer"
		}
	],
	"bufferViews":[
		{
			"buffer":0,
			"byteLength":39990,
			"target":34963
		},
		{
			"buffer":0,
			"byteOffset":39992,
			"byteLength":239940,
			"target":34962
		},
		{
			"buffer":0,
			"byteOffset":279932,
			"byteLength":159960,
			"target":34962
		},
		{
			"buffer":0,
			"byteOffset":439892,
			"byteLength":239940,
			"target":34962
		}
	],
	"nodes":[
		{
			"name":"HIGH",
			"mesh":0
		}
	],
	"meshes":[
		{
			"primitives":[
				{
					"attributes":{
						"NORMAL":3,
						"TEXCOORD_0":2,
						"POSITION":1
					},
					"indices":0,
					"material":0
				}
			]
		}
	],
	"materials":[
		{
			"name":"Material_1",
			"pbrMetallicRoughness":{
				"metallicFactor":0,
				"baseColorTexture":{
					"index":0
				}
			}
		}
	],
	"scenes":[
		{
			"nodes":[0
			]
		}
	],
	"textures":[
		{
			"source":0
		}
	],
	"images":[
		{
			"uri":"evercoast_0029.jpg",
			"mimeType":"image/jpeg"
		}
	],
	"scene":0
}
