{
	"asset":{
		"version":"2.0",
		"generator":"Houdini GLTF 2.0 Exporter"
	},
	"accessors":[
		{
			"bufferView":0,
			"componentType":5123,
			"count":20067,
			"type":"SCALAR",
			"min":[0
			],
			"max":[20066
			]
		},
		{
			"bufferView":1,
			"componentType":5126,
			"count":20067,
			"type":"VEC3",
			"min":[-0.28253746,-0.0145317316,-0.221871972
			],
			"max":[0.372782528,1.80837226,0.178226054
			]
		},
		{
			"bufferView":2,
			"componentType":5126,
			"count":20067,
			"type":"VEC2",
			"min":[0.000974658877,0.00490427017
			],
			"max":[0.998546541,0.999025345
			]
		},
		{
			"bufferView":3,
			"componentType":5126,
			"count":20067,
			"type":"VEC3",
			"min":[-0.999755442,-0.999741256,-0.999925852
			],
			"max":[0.999894619,0.996488035,0.999980271
			]
		}
	],
	"buffers":[
		{
			"uri":"evercoast.0140_data.bin",
			"byteLength":682280,
			"name":"main_buffer"
		}
	],
	"bufferViews":[
		{
			"buffer":0,
			"byteLength":40134,
			"target":34963
		},
		{
			"buffer":0,
			"byteOffset":40136,
			"byteLength":240804,
			"target":34962
		},
		{
			"buffer":0,
			"byteOffset":280940,
			"byteLength":160536,
			"target":34962
		},
		{
			"buffer":0,
			"byteOffset":441476,
			"byteLength":240804,
			"target":34962
		}
	],
	"nodes":[
		{
			"name":"HIGH",
			"mesh":0
		}
	],
	"meshes":[
		{
			"primitives":[
				{
					"attributes":{
						"NORMAL":3,
						"TEXCOORD_0":2,
						"POSITION":1
					},
					"indices":0,
					"material":0
				}
			]
		}
	],
	"materials":[
		{
			"name":"Material_1",
			"pbrMetallicRoughness":{
				"metallicFactor":0,
				"baseColorTexture":{
					"index":0
				}
			}
		}
	],
	"scenes":[
		{
			"nodes":[0
			]
		}
	],
	"textures":[
		{
			"source":0
		}
	],
	"images":[
		{
			"uri":"evercoast_0140.jpg",
			"mimeType":"image/jpeg"
		}
	],
	"scene":0
}
