{
	"asset":{
		"version":"2.0",
		"generator":"Houdini GLTF 2.0 Exporter"
	},
	"accessors":[
		{
			"bufferView":0,
			"componentType":5123,
			"count":19935,
			"type":"SCALAR",
			"min":[0
			],
			"max":[19934
			]
		},
		{
			"bufferView":1,
			"componentType":5126,
			"count":19935,
			"type":"VEC3",
			"min":[-0.289892495,-0.00847172737,-0.23347199
			],
			"max":[0.345350504,1.81294131,0.200910032
			]
		},
		{
			"bufferView":2,
			"componentType":5126,
			"count":19935,
			"type":"VEC2",
			"min":[0.000974650204,0.042537868
			],
			"max":[0.998167574,0.999025345
			]
		},
		{
			"bufferView":3,
			"componentType":5126,
			"count":19935,
			"type":"VEC3",
			"min":[-0.999947131,-0.99732846,-0.999798894
			],
			"max":[0.999866486,0.99732089,0.999946892
			]
		}
	],
	"buffers":[
		{
			"uri":"evercoast.0130_data.bin",
			"byteLength":677792,
			"name":"main_buffer"
		}
	],
	"bufferViews":[
		{
			"buffer":0,
			"byteLength":39870,
			"target":34963
		},
		{
			"buffer":0,
			"byteOffset":39872,
			"byteLength":239220,
			"target":34962
		},
		{
			"buffer":0,
			"byteOffset":279092,
			"byteLength":159480,
			"target":34962
		},
		{
			"buffer":0,
			"byteOffset":438572,
			"byteLength":239220,
			"target":34962
		}
	],
	"nodes":[
		{
			"name":"HIGH",
			"mesh":0
		}
	],
	"meshes":[
		{
			"primitives":[
				{
					"attributes":{
						"NORMAL":3,
						"TEXCOORD_0":2,
						"POSITION":1
					},
					"indices":0,
					"material":0
				}
			]
		}
	],
	"materials":[
		{
			"name":"Material_1",
			"pbrMetallicRoughness":{
				"metallicFactor":0,
				"baseColorTexture":{
					"index":0
				}
			}
		}
	],
	"scenes":[
		{
			"nodes":[0
			]
		}
	],
	"textures":[
		{
			"source":0
		}
	],
	"images":[
		{
			"uri":"evercoast_0130.jpg",
			"mimeType":"image/jpeg"
		}
	],
	"scene":0
}
