{
	"asset":{
		"version":"2.0",
		"generator":"Houdini GLTF 2.0 Exporter"
	},
	"accessors":[
		{
			"bufferView":0,
			"componentType":5123,
			"count":19842,
			"type":"SCALAR",
			"min":[0
			],
			"max":[19841
			]
		},
		{
			"bufferView":1,
			"componentType":5126,
			"count":19842,
			"type":"VEC3",
			"min":[-0.28826052,-0.0145817995,-0.23791194
			],
			"max":[0.341316521,1.81399226,0.204290032
			]
		},
		{
			"bufferView":2,
			"componentType":5126,
			"count":19842,
			"type":"VEC2",
			"min":[0.000974642171,0.0299993753
			],
			"max":[0.99637574,0.999025345
			]
		},
		{
			"bufferView":3,
			"componentType":5126,
			"count":19842,
			"type":"VEC3",
			"min":[-0.999415874,-0.998697937,-0.999751389
			],
			"max":[0.999900877,0.995527387,0.999918699
			]
		}
	],
	"buffers":[
		{
			"uri":"evercoast.0129_data.bin",
			"byteLength":674628,
			"name":"main_buffer"
		}
	],
	"bufferViews":[
		{
			"buffer":0,
			"byteLength":39684,
			"target":34963
		},
		{
			"buffer":0,
			"byteOffset":39684,
			"byteLength":238104,
			"target":34962
		},
		{
			"buffer":0,
			"byteOffset":277788,
			"byteLength":158736,
			"target":34962
		},
		{
			"buffer":0,
			"byteOffset":436524,
			"byteLength":238104,
			"target":34962
		}
	],
	"nodes":[
		{
			"name":"HIGH",
			"mesh":0
		}
	],
	"meshes":[
		{
			"primitives":[
				{
					"attributes":{
						"NORMAL":3,
						"TEXCOORD_0":2,
						"POSITION":1
					},
					"indices":0,
					"material":0
				}
			]
		}
	],
	"materials":[
		{
			"name":"Material_1",
			"pbrMetallicRoughness":{
				"metallicFactor":0,
				"baseColorTexture":{
					"index":0
				}
			}
		}
	],
	"scenes":[
		{
			"nodes":[0
			]
		}
	],
	"textures":[
		{
			"source":0
		}
	],
	"images":[
		{
			"uri":"evercoast_0129.jpg",
			"mimeType":"image/jpeg"
		}
	],
	"scene":0
}
