{
	"asset":{
		"version":"2.0",
		"generator":"Houdini GLTF 2.0 Exporter"
	},
	"accessors":[
		{
			"bufferView":0,
			"componentType":5123,
			"count":20001,
			"type":"SCALAR",
			"min":[0
			],
			"max":[20000
			]
		},
		{
			"bufferView":1,
			"componentType":5126,
			"count":20001,
			"type":"VEC3",
			"min":[-0.295556486,-0.0175317526,-0.213901997
			],
			"max":[0.308754504,1.82093322,0.310484052
			]
		},
		{
			"bufferView":2,
			"componentType":5126,
			"count":20001,
			"type":"VEC2",
			"min":[0.000974652066,0.00879770517
			],
			"max":[0.997372091,0.999025345
			]
		},
		{
			"bufferView":3,
			"componentType":5126,
			"count":20001,
			"type":"VEC3",
			"min":[-0.999496222,-0.999261677,-0.999975085
			],
			"max":[0.999958813,0.999970257,0.999937177
			]
		}
	],
	"buffers":[
		{
			"uri":"evercoast.0088_data.bin",
			"byteLength":680036,
			"name":"main_buffer"
		}
	],
	"bufferViews":[
		{
			"buffer":0,
			"byteLength":40002,
			"target":34963
		},
		{
			"buffer":0,
			"byteOffset":40004,
			"byteLength":240012,
			"target":34962
		},
		{
			"buffer":0,
			"byteOffset":280016,
			"byteLength":160008,
			"target":34962
		},
		{
			"buffer":0,
			"byteOffset":440024,
			"byteLength":240012,
			"target":34962
		}
	],
	"nodes":[
		{
			"name":"HIGH",
			"mesh":0
		}
	],
	"meshes":[
		{
			"primitives":[
				{
					"attributes":{
						"NORMAL":3,
						"TEXCOORD_0":2,
						"POSITION":1
					},
					"indices":0,
					"material":0
				}
			]
		}
	],
	"materials":[
		{
			"name":"Material_1",
			"pbrMetallicRoughness":{
				"metallicFactor":0,
				"baseColorTexture":{
					"index":0
				}
			}
		}
	],
	"scenes":[
		{
			"nodes":[0
			]
		}
	],
	"textures":[
		{
			"source":0
		}
	],
	"images":[
		{
			"uri":"evercoast_0088.jpg",
			"mimeType":"image/jpeg"
		}
	],
	"scene":0
}
