{
	"asset":{
		"version":"2.0",
		"generator":"Houdini GLTF 2.0 Exporter"
	},
	"accessors":[
		{
			"bufferView":0,
			"componentType":5123,
			"count":20103,
			"type":"SCALAR",
			"min":[0
			],
			"max":[20102
			]
		},
		{
			"bufferView":1,
			"componentType":5126,
			"count":20103,
			"type":"VEC3",
			"min":[-0.28074652,-0.0161417723,-0.231341958
			],
			"max":[0.371044517,1.80780625,0.171503007
			]
		},
		{
			"bufferView":2,
			"componentType":5126,
			"count":20103,
			"type":"VEC2",
			"min":[0.000974654104,0.00571364164
			],
			"max":[0.99434489,0.999025345
			]
		},
		{
			"bufferView":3,
			"componentType":5126,
			"count":20103,
			"type":"VEC3",
			"min":[-0.999978304,-0.999450803,-0.999885619
			],
			"max":[0.999975741,0.994701326,0.999912679
			]
		}
	],
	"buffers":[
		{
			"uri":"evercoast.0139_data.bin",
			"byteLength":683504,
			"name":"main_buffer"
		}
	],
	"bufferViews":[
		{
			"buffer":0,
			"byteLength":40206,
			"target":34963
		},
		{
			"buffer":0,
			"byteOffset":40208,
			"byteLength":241236,
			"target":34962
		},
		{
			"buffer":0,
			"byteOffset":281444,
			"byteLength":160824,
			"target":34962
		},
		{
			"buffer":0,
			"byteOffset":442268,
			"byteLength":241236,
			"target":34962
		}
	],
	"nodes":[
		{
			"name":"HIGH",
			"mesh":0
		}
	],
	"meshes":[
		{
			"primitives":[
				{
					"attributes":{
						"NORMAL":3,
						"TEXCOORD_0":2,
						"POSITION":1
					},
					"indices":0,
					"material":0
				}
			]
		}
	],
	"materials":[
		{
			"name":"Material_1",
			"pbrMetallicRoughness":{
				"metallicFactor":0,
				"baseColorTexture":{
					"index":0
				}
			}
		}
	],
	"scenes":[
		{
			"nodes":[0
			]
		}
	],
	"textures":[
		{
			"source":0
		}
	],
	"images":[
		{
			"uri":"evercoast_0139.jpg",
			"mimeType":"image/jpeg"
		}
	],
	"scene":0
}
