{
	"asset":{
		"version":"2.0",
		"generator":"Houdini GLTF 2.0 Exporter"
	},
	"accessors":[
		{
			"bufferView":0,
			"componentType":5123,
			"count":20022,
			"type":"SCALAR",
			"min":[0
			],
			"max":[20021
			]
		},
		{
			"bufferView":1,
			"componentType":5126,
			"count":20022,
			"type":"VEC3",
			"min":[-0.308775485,-0.00602173805,-0.215211987
			],
			"max":[0.303019524,1.81971025,0.215040028
			]
		},
		{
			"bufferView":2,
			"componentType":5126,
			"count":20022,
			"type":"VEC2",
			"min":[0.000974658877,0.00792127848
			],
			"max":[0.998201787,0.999025345
			]
		},
		{
			"bufferView":3,
			"componentType":5126,
			"count":20022,
			"type":"VEC3",
			"min":[-0.999926925,-0.999792755,-0.999994695
			],
			"max":[0.999730229,0.997355878,0.999956012
			]
		}
	],
	"buffers":[
		{
			"uri":"evercoast.0082_data.bin",
			"byteLength":680748,
			"name":"main_buffer"
		}
	],
	"bufferViews":[
		{
			"buffer":0,
			"byteLength":40044,
			"target":34963
		},
		{
			"buffer":0,
			"byteOffset":40044,
			"byteLength":240264,
			"target":34962
		},
		{
			"buffer":0,
			"byteOffset":280308,
			"byteLength":160176,
			"target":34962
		},
		{
			"buffer":0,
			"byteOffset":440484,
			"byteLength":240264,
			"target":34962
		}
	],
	"nodes":[
		{
			"name":"HIGH",
			"mesh":0
		}
	],
	"meshes":[
		{
			"primitives":[
				{
					"attributes":{
						"NORMAL":3,
						"TEXCOORD_0":2,
						"POSITION":1
					},
					"indices":0,
					"material":0
				}
			]
		}
	],
	"materials":[
		{
			"name":"Material_1",
			"pbrMetallicRoughness":{
				"metallicFactor":0,
				"baseColorTexture":{
					"index":0
				}
			}
		}
	],
	"scenes":[
		{
			"nodes":[0
			]
		}
	],
	"textures":[
		{
			"source":0
		}
	],
	"images":[
		{
			"uri":"evercoast_0082.jpg",
			"mimeType":"image/jpeg"
		}
	],
	"scene":0
}
