{
	"asset":{
		"version":"2.0",
		"generator":"Houdini GLTF 2.0 Exporter"
	},
	"accessors":[
		{
			"bufferView":0,
			"componentType":5123,
			"count":19971,
			"type":"SCALAR",
			"min":[0
			],
			"max":[19970
			]
		},
		{
			"bufferView":1,
			"componentType":5126,
			"count":19971,
			"type":"VEC3",
			"min":[-0.304469466,-0.0113017559,-0.218711972
			],
			"max":[0.306286514,1.81888223,0.30320102
			]
		},
		{
			"bufferView":2,
			"componentType":5126,
			"count":19971,
			"type":"VEC2",
			"min":[0.000974657596,0.0118004084
			],
			"max":[0.997958958,0.999025345
			]
		},
		{
			"bufferView":3,
			"componentType":5126,
			"count":19971,
			"type":"VEC3",
			"min":[-0.999958634,-0.999062181,-0.999959886
			],
			"max":[0.999949932,0.999370039,0.999993503
			]
		}
	],
	"buffers":[
		{
			"uri":"evercoast.0108_data.bin",
			"byteLength":679016,
			"name":"main_buffer"
		}
	],
	"bufferViews":[
		{
			"buffer":0,
			"byteLength":39942,
			"target":34963
		},
		{
			"buffer":0,
			"byteOffset":39944,
			"byteLength":239652,
			"target":34962
		},
		{
			"buffer":0,
			"byteOffset":279596,
			"byteLength":159768,
			"target":34962
		},
		{
			"buffer":0,
			"byteOffset":439364,
			"byteLength":239652,
			"target":34962
		}
	],
	"nodes":[
		{
			"name":"HIGH",
			"mesh":0
		}
	],
	"meshes":[
		{
			"primitives":[
				{
					"attributes":{
						"NORMAL":3,
						"TEXCOORD_0":2,
						"POSITION":1
					},
					"indices":0,
					"material":0
				}
			]
		}
	],
	"materials":[
		{
			"name":"Material_1",
			"pbrMetallicRoughness":{
				"metallicFactor":0,
				"baseColorTexture":{
					"index":0
				}
			}
		}
	],
	"scenes":[
		{
			"nodes":[0
			]
		}
	],
	"textures":[
		{
			"source":0
		}
	],
	"images":[
		{
			"uri":"evercoast_0108.jpg",
			"mimeType":"image/jpeg"
		}
	],
	"scene":0
}
