{
	"asset":{
		"version":"2.0",
		"generator":"Houdini GLTF 2.0 Exporter"
	},
	"accessors":[
		{
			"bufferView":0,
			"componentType":5123,
			"count":19908,
			"type":"SCALAR",
			"min":[0
			],
			"max":[19907
			]
		},
		{
			"bufferView":1,
			"componentType":5126,
			"count":19908,
			"type":"VEC3",
			"min":[-0.30924046,-0.011841774,-0.22655201
			],
			"max":[0.306086481,1.81905031,0.197297037
			]
		},
		{
			"bufferView":2,
			"componentType":5126,
			"count":19908,
			"type":"VEC2",
			"min":[0.000974658877,0.0223055482
			],
			"max":[0.998459399,0.999025345
			]
		},
		{
			"bufferView":3,
			"componentType":5126,
			"count":19908,
			"type":"VEC3",
			"min":[-0.999325216,-0.998610497,-1
			],
			"max":[0.999579966,0.999669135,0.999769866
			]
		}
	],
	"buffers":[
		{
			"uri":"evercoast.0051_data.bin",
			"byteLength":676872,
			"name":"main_buffer"
		}
	],
	"bufferViews":[
		{
			"buffer":0,
			"byteLength":39816,
			"target":34963
		},
		{
			"buffer":0,
			"byteOffset":39816,
			"byteLength":238896,
			"target":34962
		},
		{
			"buffer":0,
			"byteOffset":278712,
			"byteLength":159264,
			"target":34962
		},
		{
			"buffer":0,
			"byteOffset":437976,
			"byteLength":238896,
			"target":34962
		}
	],
	"nodes":[
		{
			"name":"HIGH",
			"mesh":0
		}
	],
	"meshes":[
		{
			"primitives":[
				{
					"attributes":{
						"NORMAL":3,
						"TEXCOORD_0":2,
						"POSITION":1
					},
					"indices":0,
					"material":0
				}
			]
		}
	],
	"materials":[
		{
			"name":"Material_1",
			"pbrMetallicRoughness":{
				"metallicFactor":0,
				"baseColorTexture":{
					"index":0
				}
			}
		}
	],
	"scenes":[
		{
			"nodes":[0
			]
		}
	],
	"textures":[
		{
			"source":0
		}
	],
	"images":[
		{
			"uri":"evercoast_0051.jpg",
			"mimeType":"image/jpeg"
		}
	],
	"scene":0
}
