{
	"asset":{
		"version":"2.0",
		"generator":"Houdini GLTF 2.0 Exporter"
	},
	"accessors":[
		{
			"bufferView":0,
			"componentType":5123,
			"count":20022,
			"type":"SCALAR",
			"min":[0
			],
			"max":[20021
			]
		},
		{
			"bufferView":1,
			"componentType":5126,
			"count":20022,
			"type":"VEC3",
			"min":[-0.306126475,-0.0107417107,-0.213551998
			],
			"max":[0.307446539,1.82162023,0.209641039
			]
		},
		{
			"bufferView":2,
			"componentType":5126,
			"count":20022,
			"type":"VEC2",
			"min":[0.000974658877,0.00457119942
			],
			"max":[0.998397768,0.999025345
			]
		},
		{
			"bufferView":3,
			"componentType":5126,
			"count":20022,
			"type":"VEC3",
			"min":[-0.998302877,-0.999847472,-0.999914944
			],
			"max":[0.999642193,0.995386779,0.999863386
			]
		}
	],
	"buffers":[
		{
			"uri":"evercoast.0024_data.bin",
			"byteLength":680748,
			"name":"main_buffer"
		}
	],
	"bufferViews":[
		{
			"buffer":0,
			"byteLength":40044,
			"target":34963
		},
		{
			"buffer":0,
			"byteOffset":40044,
			"byteLength":240264,
			"target":34962
		},
		{
			"buffer":0,
			"byteOffset":280308,
			"byteLength":160176,
			"target":34962
		},
		{
			"buffer":0,
			"byteOffset":440484,
			"byteLength":240264,
			"target":34962
		}
	],
	"nodes":[
		{
			"name":"HIGH",
			"mesh":0
		}
	],
	"meshes":[
		{
			"primitives":[
				{
					"attributes":{
						"NORMAL":3,
						"TEXCOORD_0":2,
						"POSITION":1
					},
					"indices":0,
					"material":0
				}
			]
		}
	],
	"materials":[
		{
			"name":"Material_1",
			"pbrMetallicRoughness":{
				"metallicFactor":0,
				"baseColorTexture":{
					"index":0
				}
			}
		}
	],
	"scenes":[
		{
			"nodes":[0
			]
		}
	],
	"textures":[
		{
			"source":0
		}
	],
	"images":[
		{
			"uri":"evercoast_0024.jpg",
			"mimeType":"image/jpeg"
		}
	],
	"scene":0
}
