{
	"asset":{
		"version":"2.0",
		"generator":"Houdini GLTF 2.0 Exporter"
	},
	"accessors":[
		{
			"bufferView":0,
			"componentType":5123,
			"count":19965,
			"type":"SCALAR",
			"min":[0
			],
			"max":[19964
			]
		},
		{
			"bufferView":1,
			"componentType":5126,
			"count":19965,
			"type":"VEC3",
			"min":[-0.301713467,-0.0115917921,-0.214712024
			],
			"max":[0.307834506,1.8211863,0.269329011
			]
		},
		{
			"bufferView":2,
			"componentType":5126,
			"count":19965,
			"type":"VEC2",
			"min":[0.000974658877,0.0133084059
			],
			"max":[0.996433377,0.999025345
			]
		},
		{
			"bufferView":3,
			"componentType":5126,
			"count":19965,
			"type":"VEC3",
			"min":[-0.99992013,-0.999940395,-0.999970794
			],
			"max":[0.999984205,0.999754667,0.999984324
			]
		}
	],
	"buffers":[
		{
			"uri":"evercoast.0086_data.bin",
			"byteLength":678812,
			"name":"main_buffer"
		}
	],
	"bufferViews":[
		{
			"buffer":0,
			"byteLength":39930,
			"target":34963
		},
		{
			"buffer":0,
			"byteOffset":39932,
			"byteLength":239580,
			"target":34962
		},
		{
			"buffer":0,
			"byteOffset":279512,
			"byteLength":159720,
			"target":34962
		},
		{
			"buffer":0,
			"byteOffset":439232,
			"byteLength":239580,
			"target":34962
		}
	],
	"nodes":[
		{
			"name":"HIGH",
			"mesh":0
		}
	],
	"meshes":[
		{
			"primitives":[
				{
					"attributes":{
						"NORMAL":3,
						"TEXCOORD_0":2,
						"POSITION":1
					},
					"indices":0,
					"material":0
				}
			]
		}
	],
	"materials":[
		{
			"name":"Material_1",
			"pbrMetallicRoughness":{
				"metallicFactor":0,
				"baseColorTexture":{
					"index":0
				}
			}
		}
	],
	"scenes":[
		{
			"nodes":[0
			]
		}
	],
	"textures":[
		{
			"source":0
		}
	],
	"images":[
		{
			"uri":"evercoast_0086.jpg",
			"mimeType":"image/jpeg"
		}
	],
	"scene":0
}
