{
	"asset":{
		"version":"2.0",
		"generator":"Houdini GLTF 2.0 Exporter"
	},
	"accessors":[
		{
			"bufferView":0,
			"componentType":5123,
			"count":20010,
			"type":"SCALAR",
			"min":[0
			],
			"max":[20009
			]
		},
		{
			"bufferView":1,
			"componentType":5126,
			"count":20010,
			"type":"VEC3",
			"min":[-0.282097518,-0.00419175625,-0.229701996
			],
			"max":[0.347958505,1.81294525,0.192880034
			]
		},
		{
			"bufferView":2,
			"componentType":5126,
			"count":20010,
			"type":"VEC2",
			"min":[0.00097463408,0.00173854828
			],
			"max":[0.998484194,0.999025345
			]
		},
		{
			"bufferView":3,
			"componentType":5126,
			"count":20010,
			"type":"VEC3",
			"min":[-0.999932349,-0.999771237,-0.999993324
			],
			"max":[0.999864817,0.998243153,0.999938428
			]
		}
	],
	"buffers":[
		{
			"uri":"evercoast.0132_data.bin",
			"byteLength":680340,
			"name":"main_buffer"
		}
	],
	"bufferViews":[
		{
			"buffer":0,
			"byteLength":40020,
			"target":34963
		},
		{
			"buffer":0,
			"byteOffset":40020,
			"byteLength":240120,
			"target":34962
		},
		{
			"buffer":0,
			"byteOffset":280140,
			"byteLength":160080,
			"target":34962
		},
		{
			"buffer":0,
			"byteOffset":440220,
			"byteLength":240120,
			"target":34962
		}
	],
	"nodes":[
		{
			"name":"HIGH",
			"mesh":0
		}
	],
	"meshes":[
		{
			"primitives":[
				{
					"attributes":{
						"NORMAL":3,
						"TEXCOORD_0":2,
						"POSITION":1
					},
					"indices":0,
					"material":0
				}
			]
		}
	],
	"materials":[
		{
			"name":"Material_1",
			"pbrMetallicRoughness":{
				"metallicFactor":0,
				"baseColorTexture":{
					"index":0
				}
			}
		}
	],
	"scenes":[
		{
			"nodes":[0
			]
		}
	],
	"textures":[
		{
			"source":0
		}
	],
	"images":[
		{
			"uri":"evercoast_0132.jpg",
			"mimeType":"image/jpeg"
		}
	],
	"scene":0
}
