{
	"asset":{
		"version":"2.0",
		"generator":"Houdini GLTF 2.0 Exporter"
	},
	"accessors":[
		{
			"bufferView":0,
			"componentType":5123,
			"count":19851,
			"type":"SCALAR",
			"min":[0
			],
			"max":[19850
			]
		},
		{
			"bufferView":1,
			"componentType":5126,
			"count":19851,
			"type":"VEC3",
			"min":[-0.281685472,-0.0175818205,-0.218851924
			],
			"max":[0.352996528,1.81481123,0.304204047
			]
		},
		{
			"bufferView":2,
			"componentType":5126,
			"count":19851,
			"type":"VEC2",
			"min":[0.00097465748,0.018666029
			],
			"max":[0.997656822,0.999025345
			]
		},
		{
			"bufferView":3,
			"componentType":5126,
			"count":19851,
			"type":"VEC3",
			"min":[-0.999895453,-0.997855067,-0.999957442
			],
			"max":[0.999939203,0.997287095,0.999991834
			]
		}
	],
	"buffers":[
		{
			"uri":"evercoast.0096_data.bin",
			"byteLength":674936,
			"name":"main_buffer"
		}
	],
	"bufferViews":[
		{
			"buffer":0,
			"byteLength":39702,
			"target":34963
		},
		{
			"buffer":0,
			"byteOffset":39704,
			"byteLength":238212,
			"target":34962
		},
		{
			"buffer":0,
			"byteOffset":277916,
			"byteLength":158808,
			"target":34962
		},
		{
			"buffer":0,
			"byteOffset":436724,
			"byteLength":238212,
			"target":34962
		}
	],
	"nodes":[
		{
			"name":"HIGH",
			"mesh":0
		}
	],
	"meshes":[
		{
			"primitives":[
				{
					"attributes":{
						"NORMAL":3,
						"TEXCOORD_0":2,
						"POSITION":1
					},
					"indices":0,
					"material":0
				}
			]
		}
	],
	"materials":[
		{
			"name":"Material_1",
			"pbrMetallicRoughness":{
				"metallicFactor":0,
				"baseColorTexture":{
					"index":0
				}
			}
		}
	],
	"scenes":[
		{
			"nodes":[0
			]
		}
	],
	"textures":[
		{
			"source":0
		}
	],
	"images":[
		{
			"uri":"evercoast_0096.jpg",
			"mimeType":"image/jpeg"
		}
	],
	"scene":0
}
