{
	"asset":{
		"version":"2.0",
		"generator":"Houdini GLTF 2.0 Exporter"
	},
	"accessors":[
		{
			"bufferView":0,
			"componentType":5123,
			"count":19950,
			"type":"SCALAR",
			"min":[0
			],
			"max":[19949
			]
		},
		{
			"bufferView":1,
			"componentType":5126,
			"count":19950,
			"type":"VEC3",
			"min":[-0.284853518,-0.0179817677,-0.220921993
			],
			"max":[0.344600499,1.81729317,0.308611035
			]
		},
		{
			"bufferView":2,
			"componentType":5126,
			"count":19950,
			"type":"VEC2",
			"min":[0.000974653813,0.0119107366
			],
			"max":[0.99839884,0.999025345
			]
		},
		{
			"bufferView":3,
			"componentType":5126,
			"count":19950,
			"type":"VEC3",
			"min":[-0.998936355,-0.998699367,-0.999947548
			],
			"max":[0.999570012,0.999471247,0.999894381
			]
		}
	],
	"buffers":[
		{
			"uri":"evercoast.0094_data.bin",
			"byteLength":678300,
			"name":"main_buffer"
		}
	],
	"bufferViews":[
		{
			"buffer":0,
			"byteLength":39900,
			"target":34963
		},
		{
			"buffer":0,
			"byteOffset":39900,
			"byteLength":239400,
			"target":34962
		},
		{
			"buffer":0,
			"byteOffset":279300,
			"byteLength":159600,
			"target":34962
		},
		{
			"buffer":0,
			"byteOffset":438900,
			"byteLength":239400,
			"target":34962
		}
	],
	"nodes":[
		{
			"name":"HIGH",
			"mesh":0
		}
	],
	"meshes":[
		{
			"primitives":[
				{
					"attributes":{
						"NORMAL":3,
						"TEXCOORD_0":2,
						"POSITION":1
					},
					"indices":0,
					"material":0
				}
			]
		}
	],
	"materials":[
		{
			"name":"Material_1",
			"pbrMetallicRoughness":{
				"metallicFactor":0,
				"baseColorTexture":{
					"index":0
				}
			}
		}
	],
	"scenes":[
		{
			"nodes":[0
			]
		}
	],
	"textures":[
		{
			"source":0
		}
	],
	"images":[
		{
			"uri":"evercoast_0094.jpg",
			"mimeType":"image/jpeg"
		}
	],
	"scene":0
}
