{
	"asset":{
		"version":"2.0",
		"generator":"Houdini GLTF 2.0 Exporter"
	},
	"accessors":[
		{
			"bufferView":0,
			"componentType":5123,
			"count":19938,
			"type":"SCALAR",
			"min":[0
			],
			"max":[19937
			]
		},
		{
			"bufferView":1,
			"componentType":5126,
			"count":19938,
			"type":"VEC3",
			"min":[-0.283800483,-0.0180617571,-0.219661951
			],
			"max":[0.34532851,1.81624925,0.308176041
			]
		},
		{
			"bufferView":2,
			"componentType":5126,
			"count":19938,
			"type":"VEC2",
			"min":[0.00097465486,0.0169848204
			],
			"max":[0.998492599,0.999025345
			]
		},
		{
			"bufferView":3,
			"componentType":5126,
			"count":19938,
			"type":"VEC3",
			"min":[-0.99986583,-0.999792278,-0.999889791
			],
			"max":[0.999855816,0.997764468,0.999996185
			]
		}
	],
	"buffers":[
		{
			"uri":"evercoast.0095_data.bin",
			"byteLength":677892,
			"name":"main_buffer"
		}
	],
	"bufferViews":[
		{
			"buffer":0,
			"byteLength":39876,
			"target":34963
		},
		{
			"buffer":0,
			"byteOffset":39876,
			"byteLength":239256,
			"target":34962
		},
		{
			"buffer":0,
			"byteOffset":279132,
			"byteLength":159504,
			"target":34962
		},
		{
			"buffer":0,
			"byteOffset":438636,
			"byteLength":239256,
			"target":34962
		}
	],
	"nodes":[
		{
			"name":"HIGH",
			"mesh":0
		}
	],
	"meshes":[
		{
			"primitives":[
				{
					"attributes":{
						"NORMAL":3,
						"TEXCOORD_0":2,
						"POSITION":1
					},
					"indices":0,
					"material":0
				}
			]
		}
	],
	"materials":[
		{
			"name":"Material_1",
			"pbrMetallicRoughness":{
				"metallicFactor":0,
				"baseColorTexture":{
					"index":0
				}
			}
		}
	],
	"scenes":[
		{
			"nodes":[0
			]
		}
	],
	"textures":[
		{
			"source":0
		}
	],
	"images":[
		{
			"uri":"evercoast_0095.jpg",
			"mimeType":"image/jpeg"
		}
	],
	"scene":0
}
