{
	"asset":{
		"version":"2.0",
		"generator":"Houdini GLTF 2.0 Exporter"
	},
	"accessors":[
		{
			"bufferView":0,
			"componentType":5123,
			"count":20019,
			"type":"SCALAR",
			"min":[0
			],
			"max":[20018
			]
		},
		{
			"bufferView":1,
			"componentType":5126,
			"count":20019,
			"type":"VEC3",
			"min":[-0.293472469,-0.0116317272,-0.213671923
			],
			"max":[0.309100509,1.82075119,0.319758058
			]
		},
		{
			"bufferView":2,
			"componentType":5126,
			"count":20019,
			"type":"VEC2",
			"min":[0.000974652066,0.0168098211
			],
			"max":[0.998122633,0.999025345
			]
		},
		{
			"bufferView":3,
			"componentType":5126,
			"count":20019,
			"type":"VEC3",
			"min":[-0.999749362,-0.999860287,-0.999971926
			],
			"max":[0.999898911,0.999791265,0.999955535
			]
		}
	],
	"buffers":[
		{
			"uri":"evercoast.0089_data.bin",
			"byteLength":680648,
			"name":"main_buffer"
		}
	],
	"bufferViews":[
		{
			"buffer":0,
			"byteLength":40038,
			"target":34963
		},
		{
			"buffer":0,
			"byteOffset":40040,
			"byteLength":240228,
			"target":34962
		},
		{
			"buffer":0,
			"byteOffset":280268,
			"byteLength":160152,
			"target":34962
		},
		{
			"buffer":0,
			"byteOffset":440420,
			"byteLength":240228,
			"target":34962
		}
	],
	"nodes":[
		{
			"name":"HIGH",
			"mesh":0
		}
	],
	"meshes":[
		{
			"primitives":[
				{
					"attributes":{
						"NORMAL":3,
						"TEXCOORD_0":2,
						"POSITION":1
					},
					"indices":0,
					"material":0
				}
			]
		}
	],
	"materials":[
		{
			"name":"Material_1",
			"pbrMetallicRoughness":{
				"metallicFactor":0,
				"baseColorTexture":{
					"index":0
				}
			}
		}
	],
	"scenes":[
		{
			"nodes":[0
			]
		}
	],
	"textures":[
		{
			"source":0
		}
	],
	"images":[
		{
			"uri":"evercoast_0089.jpg",
			"mimeType":"image/jpeg"
		}
	],
	"scene":0
}
