{
	"asset":{
		"version":"2.0",
		"generator":"Houdini GLTF 2.0 Exporter"
	},
	"accessors":[
		{
			"bufferView":0,
			"componentType":5123,
			"count":19980,
			"type":"SCALAR",
			"min":[0
			],
			"max":[19979
			]
		},
		{
			"bufferView":1,
			"componentType":5126,
			"count":19980,
			"type":"VEC3",
			"min":[-0.309508502,-0.010871768,-0.22595191
			],
			"max":[0.309181511,1.82001925,0.197287023
			]
		},
		{
			"bufferView":2,
			"componentType":5126,
			"count":19980,
			"type":"VEC2",
			"min":[0.000974653638,0.0152478814
			],
			"max":[0.998301566,0.999025345
			]
		},
		{
			"bufferView":3,
			"componentType":5126,
			"count":19980,
			"type":"VEC3",
			"min":[-0.999465048,-0.999983251,-0.999924541
			],
			"max":[0.999728858,0.997806072,0.999688387
			]
		}
	],
	"buffers":[
		{
			"uri":"evercoast.0049_data.bin",
			"byteLength":679320,
			"name":"main_buffer"
		}
	],
	"bufferViews":[
		{
			"buffer":0,
			"byteLength":39960,
			"target":34963
		},
		{
			"buffer":0,
			"byteOffset":39960,
			"byteLength":239760,
			"target":34962
		},
		{
			"buffer":0,
			"byteOffset":279720,
			"byteLength":159840,
			"target":34962
		},
		{
			"buffer":0,
			"byteOffset":439560,
			"byteLength":239760,
			"target":34962
		}
	],
	"nodes":[
		{
			"name":"HIGH",
			"mesh":0
		}
	],
	"meshes":[
		{
			"primitives":[
				{
					"attributes":{
						"NORMAL":3,
						"TEXCOORD_0":2,
						"POSITION":1
					},
					"indices":0,
					"material":0
				}
			]
		}
	],
	"materials":[
		{
			"name":"Material_1",
			"pbrMetallicRoughness":{
				"metallicFactor":0,
				"baseColorTexture":{
					"index":0
				}
			}
		}
	],
	"scenes":[
		{
			"nodes":[0
			]
		}
	],
	"textures":[
		{
			"source":0
		}
	],
	"images":[
		{
			"uri":"evercoast_0049.jpg",
			"mimeType":"image/jpeg"
		}
	],
	"scene":0
}
