{
	"asset":{
		"version":"2.0",
		"generator":"Houdini GLTF 2.0 Exporter"
	},
	"accessors":[
		{
			"bufferView":0,
			"componentType":5123,
			"count":19962,
			"type":"SCALAR",
			"min":[0
			],
			"max":[19961
			]
		},
		{
			"bufferView":1,
			"componentType":5126,
			"count":19962,
			"type":"VEC3",
			"min":[-0.307979465,-0.00712180138,-0.233361959
			],
			"max":[0.303815484,1.81702828,0.197606027
			]
		},
		{
			"bufferView":2,
			"componentType":5126,
			"count":19962,
			"type":"VEC2",
			"min":[0.000974658353,0.00471764803
			],
			"max":[0.998511374,0.999025345
			]
		},
		{
			"bufferView":3,
			"componentType":5126,
			"count":19962,
			"type":"VEC3",
			"min":[-0.9998703,-0.999501526,-0.999709547
			],
			"max":[0.999967217,0.999366581,0.999783039
			]
		}
	],
	"buffers":[
		{
			"uri":"evercoast.0064_data.bin",
			"byteLength":678708,
			"name":"main_buffer"
		}
	],
	"bufferViews":[
		{
			"buffer":0,
			"byteLength":39924,
			"target":34963
		},
		{
			"buffer":0,
			"byteOffset":39924,
			"byteLength":239544,
			"target":34962
		},
		{
			"buffer":0,
			"byteOffset":279468,
			"byteLength":159696,
			"target":34962
		},
		{
			"buffer":0,
			"byteOffset":439164,
			"byteLength":239544,
			"target":34962
		}
	],
	"nodes":[
		{
			"name":"HIGH",
			"mesh":0
		}
	],
	"meshes":[
		{
			"primitives":[
				{
					"attributes":{
						"NORMAL":3,
						"TEXCOORD_0":2,
						"POSITION":1
					},
					"indices":0,
					"material":0
				}
			]
		}
	],
	"materials":[
		{
			"name":"Material_1",
			"pbrMetallicRoughness":{
				"metallicFactor":0,
				"baseColorTexture":{
					"index":0
				}
			}
		}
	],
	"scenes":[
		{
			"nodes":[0
			]
		}
	],
	"textures":[
		{
			"source":0
		}
	],
	"images":[
		{
			"uri":"evercoast_0064.jpg",
			"mimeType":"image/jpeg"
		}
	],
	"scene":0
}
