{
	"asset":{
		"version":"2.0",
		"generator":"Houdini GLTF 2.0 Exporter"
	},
	"accessors":[
		{
			"bufferView":0,
			"componentType":5123,
			"count":19947,
			"type":"SCALAR",
			"min":[0
			],
			"max":[19946
			]
		},
		{
			"bufferView":1,
			"componentType":5126,
			"count":19947,
			"type":"VEC3",
			"min":[-0.289678514,-0.0109417439,-0.220762014
			],
			"max":[0.305332482,1.81579828,0.298394024
			]
		},
		{
			"bufferView":2,
			"componentType":5126,
			"count":19947,
			"type":"VEC2",
			"min":[0.000974658702,0.00294417143
			],
			"max":[0.998430431,0.999025345
			]
		},
		{
			"bufferView":3,
			"componentType":5126,
			"count":19947,
			"type":"VEC3",
			"min":[-0.999656141,-0.999985158,-0.999946535
			],
			"max":[0.999517918,0.999886334,0.999944448
			]
		}
	],
	"buffers":[
		{
			"uri":"evercoast.0110_data.bin",
			"byteLength":678200,
			"name":"main_buffer"
		}
	],
	"bufferViews":[
		{
			"buffer":0,
			"byteLength":39894,
			"target":34963
		},
		{
			"buffer":0,
			"byteOffset":39896,
			"byteLength":239364,
			"target":34962
		},
		{
			"buffer":0,
			"byteOffset":279260,
			"byteLength":159576,
			"target":34962
		},
		{
			"buffer":0,
			"byteOffset":438836,
			"byteLength":239364,
			"target":34962
		}
	],
	"nodes":[
		{
			"name":"HIGH",
			"mesh":0
		}
	],
	"meshes":[
		{
			"primitives":[
				{
					"attributes":{
						"NORMAL":3,
						"TEXCOORD_0":2,
						"POSITION":1
					},
					"indices":0,
					"material":0
				}
			]
		}
	],
	"materials":[
		{
			"name":"Material_1",
			"pbrMetallicRoughness":{
				"metallicFactor":0,
				"baseColorTexture":{
					"index":0
				}
			}
		}
	],
	"scenes":[
		{
			"nodes":[0
			]
		}
	],
	"textures":[
		{
			"source":0
		}
	],
	"images":[
		{
			"uri":"evercoast_0110.jpg",
			"mimeType":"image/jpeg"
		}
	],
	"scene":0
}
