{
	"asset":{
		"version":"2.0",
		"generator":"Houdini GLTF 2.0 Exporter"
	},
	"accessors":[
		{
			"bufferView":0,
			"componentType":5123,
			"count":19866,
			"type":"SCALAR",
			"min":[0
			],
			"max":[19865
			]
		},
		{
			"bufferView":1,
			"componentType":5126,
			"count":19866,
			"type":"VEC3",
			"min":[-0.279238462,-0.0187517405,-0.217811942
			],
			"max":[0.353009522,1.81036723,0.209907055
			]
		},
		{
			"bufferView":2,
			"componentType":5126,
			"count":19866,
			"type":"VEC2",
			"min":[0.000974654511,0.0185633302
			],
			"max":[0.998131454,0.999025345
			]
		},
		{
			"bufferView":3,
			"componentType":5126,
			"count":19866,
			"type":"VEC3",
			"min":[-0.999723136,-0.999889433,-0.999814093
			],
			"max":[0.999734521,0.997968435,0.999938488
			]
		}
	],
	"buffers":[
		{
			"uri":"evercoast.0143_data.bin",
			"byteLength":675444,
			"name":"main_buffer"
		}
	],
	"bufferViews":[
		{
			"buffer":0,
			"byteLength":39732,
			"target":34963
		},
		{
			"buffer":0,
			"byteOffset":39732,
			"byteLength":238392,
			"target":34962
		},
		{
			"buffer":0,
			"byteOffset":278124,
			"byteLength":158928,
			"target":34962
		},
		{
			"buffer":0,
			"byteOffset":437052,
			"byteLength":238392,
			"target":34962
		}
	],
	"nodes":[
		{
			"name":"HIGH",
			"mesh":0
		}
	],
	"meshes":[
		{
			"primitives":[
				{
					"attributes":{
						"NORMAL":3,
						"TEXCOORD_0":2,
						"POSITION":1
					},
					"indices":0,
					"material":0
				}
			]
		}
	],
	"materials":[
		{
			"name":"Material_1",
			"pbrMetallicRoughness":{
				"metallicFactor":0,
				"baseColorTexture":{
					"index":0
				}
			}
		}
	],
	"scenes":[
		{
			"nodes":[0
			]
		}
	],
	"textures":[
		{
			"source":0
		}
	],
	"images":[
		{
			"uri":"evercoast_0143.jpg",
			"mimeType":"image/jpeg"
		}
	],
	"scene":0
}
