{
	"asset":{
		"version":"2.0",
		"generator":"Houdini GLTF 2.0 Exporter"
	},
	"accessors":[
		{
			"bufferView":0,
			"componentType":5123,
			"count":19980,
			"type":"SCALAR",
			"min":[0
			],
			"max":[19979
			]
		},
		{
			"bufferView":1,
			"componentType":5126,
			"count":19980,
			"type":"VEC3",
			"min":[-0.309051514,-0.0111917257,-0.228171945
			],
			"max":[0.304182529,1.81958818,0.198542058
			]
		},
		{
			"bufferView":2,
			"componentType":5126,
			"count":19980,
			"type":"VEC2",
			"min":[0.000974657887,0.00939637423
			],
			"max":[0.998158634,0.999025345
			]
		},
		{
			"bufferView":3,
			"componentType":5126,
			"count":19980,
			"type":"VEC3",
			"min":[-0.999159813,-0.999394774,-1
			],
			"max":[0.999948204,0.998824358,0.999801695
			]
		}
	],
	"buffers":[
		{
			"uri":"evercoast.0056_data.bin",
			"byteLength":679320,
			"name":"main_buffer"
		}
	],
	"bufferViews":[
		{
			"buffer":0,
			"byteLength":39960,
			"target":34963
		},
		{
			"buffer":0,
			"byteOffset":39960,
			"byteLength":239760,
			"target":34962
		},
		{
			"buffer":0,
			"byteOffset":279720,
			"byteLength":159840,
			"target":34962
		},
		{
			"buffer":0,
			"byteOffset":439560,
			"byteLength":239760,
			"target":34962
		}
	],
	"nodes":[
		{
			"name":"HIGH",
			"mesh":0
		}
	],
	"meshes":[
		{
			"primitives":[
				{
					"attributes":{
						"NORMAL":3,
						"TEXCOORD_0":2,
						"POSITION":1
					},
					"indices":0,
					"material":0
				}
			]
		}
	],
	"materials":[
		{
			"name":"Material_1",
			"pbrMetallicRoughness":{
				"metallicFactor":0,
				"baseColorTexture":{
					"index":0
				}
			}
		}
	],
	"scenes":[
		{
			"nodes":[0
			]
		}
	],
	"textures":[
		{
			"source":0
		}
	],
	"images":[
		{
			"uri":"evercoast_0056.jpg",
			"mimeType":"image/jpeg"
		}
	],
	"scene":0
}
