{
	"asset":{
		"version":"2.0",
		"generator":"Houdini GLTF 2.0 Exporter"
	},
	"accessors":[
		{
			"bufferView":0,
			"componentType":5123,
			"count":19965,
			"type":"SCALAR",
			"min":[0
			],
			"max":[19964
			]
		},
		{
			"bufferView":1,
			"componentType":5126,
			"count":19965,
			"type":"VEC3",
			"min":[-0.305719495,-0.0121417046,-0.221051931
			],
			"max":[0.30576551,1.8215282,0.201861024
			]
		},
		{
			"bufferView":2,
			"componentType":5126,
			"count":19965,
			"type":"VEC2",
			"min":[0.000974658877,0.0102705359
			],
			"max":[0.996792793,0.999025345
			]
		},
		{
			"bufferView":3,
			"componentType":5126,
			"count":19965,
			"type":"VEC3",
			"min":[-0.999765635,-0.999976814,-0.99985522
			],
			"max":[0.99971807,0.997584403,0.999986947
			]
		}
	],
	"buffers":[
		{
			"uri":"evercoast.0038_data.bin",
			"byteLength":678812,
			"name":"main_buffer"
		}
	],
	"bufferViews":[
		{
			"buffer":0,
			"byteLength":39930,
			"target":34963
		},
		{
			"buffer":0,
			"byteOffset":39932,
			"byteLength":239580,
			"target":34962
		},
		{
			"buffer":0,
			"byteOffset":279512,
			"byteLength":159720,
			"target":34962
		},
		{
			"buffer":0,
			"byteOffset":439232,
			"byteLength":239580,
			"target":34962
		}
	],
	"nodes":[
		{
			"name":"HIGH",
			"mesh":0
		}
	],
	"meshes":[
		{
			"primitives":[
				{
					"attributes":{
						"NORMAL":3,
						"TEXCOORD_0":2,
						"POSITION":1
					},
					"indices":0,
					"material":0
				}
			]
		}
	],
	"materials":[
		{
			"name":"Material_1",
			"pbrMetallicRoughness":{
				"metallicFactor":0,
				"baseColorTexture":{
					"index":0
				}
			}
		}
	],
	"scenes":[
		{
			"nodes":[0
			]
		}
	],
	"textures":[
		{
			"source":0
		}
	],
	"images":[
		{
			"uri":"evercoast_0038.jpg",
			"mimeType":"image/jpeg"
		}
	],
	"scene":0
}
