{
	"asset":{
		"version":"2.0",
		"generator":"Houdini GLTF 2.0 Exporter"
	},
	"accessors":[
		{
			"bufferView":0,
			"componentType":5123,
			"count":20013,
			"type":"SCALAR",
			"min":[0
			],
			"max":[20012
			]
		},
		{
			"bufferView":1,
			"componentType":5126,
			"count":20013,
			"type":"VEC3",
			"min":[-0.309451461,-0.007781744,-0.213652015
			],
			"max":[0.302058518,1.81979823,0.210046053
			]
		},
		{
			"bufferView":2,
			"componentType":5126,
			"count":20013,
			"type":"VEC2",
			"min":[0.000974658877,0.0100679398
			],
			"max":[0.997876108,0.999025345
			]
		},
		{
			"bufferView":3,
			"componentType":5126,
			"count":20013,
			"type":"VEC3",
			"min":[-0.999899447,-0.999481618,-0.999900162
			],
			"max":[0.999636889,0.999827027,0.999673486
			]
		}
	],
	"buffers":[
		{
			"uri":"evercoast.0080_data.bin",
			"byteLength":680444,
			"name":"main_buffer"
		}
	],
	"bufferViews":[
		{
			"buffer":0,
			"byteLength":40026,
			"target":34963
		},
		{
			"buffer":0,
			"byteOffset":40028,
			"byteLength":240156,
			"target":34962
		},
		{
			"buffer":0,
			"byteOffset":280184,
			"byteLength":160104,
			"target":34962
		},
		{
			"buffer":0,
			"byteOffset":440288,
			"byteLength":240156,
			"target":34962
		}
	],
	"nodes":[
		{
			"name":"HIGH",
			"mesh":0
		}
	],
	"meshes":[
		{
			"primitives":[
				{
					"attributes":{
						"NORMAL":3,
						"TEXCOORD_0":2,
						"POSITION":1
					},
					"indices":0,
					"material":0
				}
			]
		}
	],
	"materials":[
		{
			"name":"Material_1",
			"pbrMetallicRoughness":{
				"metallicFactor":0,
				"baseColorTexture":{
					"index":0
				}
			}
		}
	],
	"scenes":[
		{
			"nodes":[0
			]
		}
	],
	"textures":[
		{
			"source":0
		}
	],
	"images":[
		{
			"uri":"evercoast_0080.jpg",
			"mimeType":"image/jpeg"
		}
	],
	"scene":0
}
