{
	"asset":{
		"version":"2.0",
		"generator":"Houdini GLTF 2.0 Exporter"
	},
	"accessors":[
		{
			"bufferView":0,
			"componentType":5123,
			"count":19986,
			"type":"SCALAR",
			"min":[0
			],
			"max":[19985
			]
		},
		{
			"bufferView":1,
			"componentType":5126,
			"count":19986,
			"type":"VEC3",
			"min":[-0.282299519,-0.0122817755,-0.219452024
			],
			"max":[0.367446482,1.80766225,0.182395041
			]
		},
		{
			"bufferView":2,
			"componentType":5126,
			"count":19986,
			"type":"VEC2",
			"min":[0.000974631344,0.00439250469
			],
			"max":[0.998266041,0.999025345
			]
		},
		{
			"bufferView":3,
			"componentType":5126,
			"count":19986,
			"type":"VEC3",
			"min":[-0.999814332,-0.999882877,-0.999815762
			],
			"max":[0.999657393,0.999950528,0.999902606
			]
		}
	],
	"buffers":[
		{
			"uri":"evercoast.0141_data.bin",
			"byteLength":679524,
			"name":"main_buffer"
		}
	],
	"bufferViews":[
		{
			"buffer":0,
			"byteLength":39972,
			"target":34963
		},
		{
			"buffer":0,
			"byteOffset":39972,
			"byteLength":239832,
			"target":34962
		},
		{
			"buffer":0,
			"byteOffset":279804,
			"byteLength":159888,
			"target":34962
		},
		{
			"buffer":0,
			"byteOffset":439692,
			"byteLength":239832,
			"target":34962
		}
	],
	"nodes":[
		{
			"name":"HIGH",
			"mesh":0
		}
	],
	"meshes":[
		{
			"primitives":[
				{
					"attributes":{
						"NORMAL":3,
						"TEXCOORD_0":2,
						"POSITION":1
					},
					"indices":0,
					"material":0
				}
			]
		}
	],
	"materials":[
		{
			"name":"Material_1",
			"pbrMetallicRoughness":{
				"metallicFactor":0,
				"baseColorTexture":{
					"index":0
				}
			}
		}
	],
	"scenes":[
		{
			"nodes":[0
			]
		}
	],
	"textures":[
		{
			"source":0
		}
	],
	"images":[
		{
			"uri":"evercoast_0141.jpg",
			"mimeType":"image/jpeg"
		}
	],
	"scene":0
}
