{
	"asset":{
		"version":"2.0",
		"generator":"Houdini GLTF 2.0 Exporter"
	},
	"accessors":[
		{
			"bufferView":0,
			"componentType":5123,
			"count":19968,
			"type":"SCALAR",
			"min":[0
			],
			"max":[19967
			]
		},
		{
			"bufferView":1,
			"componentType":5126,
			"count":19968,
			"type":"VEC3",
			"min":[-0.308069468,-0.0122917891,-0.211581945
			],
			"max":[0.306743503,1.82396626,0.210100055
			]
		},
		{
			"bufferView":2,
			"componentType":5126,
			"count":19968,
			"type":"VEC2",
			"min":[0.000974658818,0.00565928221
			],
			"max":[0.998079598,0.999025345
			]
		},
		{
			"bufferView":3,
			"componentType":5126,
			"count":19968,
			"type":"VEC3",
			"min":[-0.999617398,-0.999996185,-0.99999994
			],
			"max":[0.99971348,0.984435856,0.999667406
			]
		}
	],
	"buffers":[
		{
			"uri":"evercoast.0015_data.bin",
			"byteLength":678912,
			"name":"main_buffer"
		}
	],
	"bufferViews":[
		{
			"buffer":0,
			"byteLength":39936,
			"target":34963
		},
		{
			"buffer":0,
			"byteOffset":39936,
			"byteLength":239616,
			"target":34962
		},
		{
			"buffer":0,
			"byteOffset":279552,
			"byteLength":159744,
			"target":34962
		},
		{
			"buffer":0,
			"byteOffset":439296,
			"byteLength":239616,
			"target":34962
		}
	],
	"nodes":[
		{
			"name":"HIGH",
			"mesh":0
		}
	],
	"meshes":[
		{
			"primitives":[
				{
					"attributes":{
						"NORMAL":3,
						"TEXCOORD_0":2,
						"POSITION":1
					},
					"indices":0,
					"material":0
				}
			]
		}
	],
	"materials":[
		{
			"name":"Material_1",
			"pbrMetallicRoughness":{
				"metallicFactor":0,
				"baseColorTexture":{
					"index":0
				}
			}
		}
	],
	"scenes":[
		{
			"nodes":[0
			]
		}
	],
	"textures":[
		{
			"source":0
		}
	],
	"images":[
		{
			"uri":"evercoast_0015.jpg",
			"mimeType":"image/jpeg"
		}
	],
	"scene":0
}
