{
	"asset":{
		"version":"2.0",
		"generator":"Houdini GLTF 2.0 Exporter"
	},
	"accessors":[
		{
			"bufferView":0,
			"componentType":5123,
			"count":19944,
			"type":"SCALAR",
			"min":[0
			],
			"max":[19943
			]
		},
		{
			"bufferView":1,
			"componentType":5126,
			"count":19944,
			"type":"VEC3",
			"min":[-0.328047514,-0.0106617212,-0.21805191
			],
			"max":[0.366927505,1.81884217,0.292624056
			]
		},
		{
			"bufferView":2,
			"componentType":5126,
			"count":19944,
			"type":"VEC2",
			"min":[0.000974657713,0.00955158472
			],
			"max":[0.998360872,0.999025345
			]
		},
		{
			"bufferView":3,
			"componentType":5126,
			"count":19944,
			"type":"VEC3",
			"min":[-0.999321818,-0.999855578,-0.999999642
			],
			"max":[0.999843121,0.99815315,0.99986279
			]
		}
	],
	"buffers":[
		{
			"uri":"evercoast.0101_data.bin",
			"byteLength":678096,
			"name":"main_buffer"
		}
	],
	"bufferViews":[
		{
			"buffer":0,
			"byteLength":39888,
			"target":34963
		},
		{
			"buffer":0,
			"byteOffset":39888,
			"byteLength":239328,
			"target":34962
		},
		{
			"buffer":0,
			"byteOffset":279216,
			"byteLength":159552,
			"target":34962
		},
		{
			"buffer":0,
			"byteOffset":438768,
			"byteLength":239328,
			"target":34962
		}
	],
	"nodes":[
		{
			"name":"HIGH",
			"mesh":0
		}
	],
	"meshes":[
		{
			"primitives":[
				{
					"attributes":{
						"NORMAL":3,
						"TEXCOORD_0":2,
						"POSITION":1
					},
					"indices":0,
					"material":0
				}
			]
		}
	],
	"materials":[
		{
			"name":"Material_1",
			"pbrMetallicRoughness":{
				"metallicFactor":0,
				"baseColorTexture":{
					"index":0
				}
			}
		}
	],
	"scenes":[
		{
			"nodes":[0
			]
		}
	],
	"textures":[
		{
			"source":0
		}
	],
	"images":[
		{
			"uri":"evercoast_0101.jpg",
			"mimeType":"image/jpeg"
		}
	],
	"scene":0
}
