{
	"asset":{
		"version":"2.0",
		"generator":"Houdini GLTF 2.0 Exporter"
	},
	"accessors":[
		{
			"bufferView":0,
			"componentType":5123,
			"count":19923,
			"type":"SCALAR",
			"min":[0
			],
			"max":[19922
			]
		},
		{
			"bufferView":1,
			"componentType":5126,
			"count":19923,
			"type":"VEC3",
			"min":[-0.302843511,-0.0152817965,-0.215502024
			],
			"max":[0.30835849,1.82088518,0.250925004
			]
		},
		{
			"bufferView":2,
			"componentType":5126,
			"count":19923,
			"type":"VEC2",
			"min":[0.000974656781,0.0232291818
			],
			"max":[0.998566926,0.999025345
			]
		},
		{
			"bufferView":3,
			"componentType":5126,
			"count":19923,
			"type":"VEC3",
			"min":[-0.999934971,-0.999792874,-0.999975979
			],
			"max":[0.999678731,0.998616397,1
			]
		}
	],
	"buffers":[
		{
			"uri":"evercoast.0085_data.bin",
			"byteLength":677384,
			"name":"main_buffer"
		}
	],
	"bufferViews":[
		{
			"buffer":0,
			"byteLength":39846,
			"target":34963
		},
		{
			"buffer":0,
			"byteOffset":39848,
			"byteLength":239076,
			"target":34962
		},
		{
			"buffer":0,
			"byteOffset":278924,
			"byteLength":159384,
			"target":34962
		},
		{
			"buffer":0,
			"byteOffset":438308,
			"byteLength":239076,
			"target":34962
		}
	],
	"nodes":[
		{
			"name":"HIGH",
			"mesh":0
		}
	],
	"meshes":[
		{
			"primitives":[
				{
					"attributes":{
						"NORMAL":3,
						"TEXCOORD_0":2,
						"POSITION":1
					},
					"indices":0,
					"material":0
				}
			]
		}
	],
	"materials":[
		{
			"name":"Material_1",
			"pbrMetallicRoughness":{
				"metallicFactor":0,
				"baseColorTexture":{
					"index":0
				}
			}
		}
	],
	"scenes":[
		{
			"nodes":[0
			]
		}
	],
	"textures":[
		{
			"source":0
		}
	],
	"images":[
		{
			"uri":"evercoast_0085.jpg",
			"mimeType":"image/jpeg"
		}
	],
	"scene":0
}
