{
	"asset":{
		"version":"2.0",
		"generator":"Houdini GLTF 2.0 Exporter"
	},
	"accessors":[
		{
			"bufferView":0,
			"componentType":5123,
			"count":19857,
			"type":"SCALAR",
			"min":[0
			],
			"max":[19856
			]
		},
		{
			"bufferView":1,
			"componentType":5126,
			"count":19857,
			"type":"VEC3",
			"min":[-0.315601468,-0.00879180431,-0.21805191
			],
			"max":[0.366515517,1.81739616,0.292887032
			]
		},
		{
			"bufferView":2,
			"componentType":5126,
			"count":19857,
			"type":"VEC2",
			"min":[0.000974658877,0.0877909064
			],
			"max":[0.998129189,0.999025345
			]
		},
		{
			"bufferView":3,
			"componentType":5126,
			"count":19857,
			"type":"VEC3",
			"min":[-0.99977386,-0.998834848,-0.99998641
			],
			"max":[0.999786675,0.99866122,0.999969244
			]
		}
	],
	"buffers":[
		{
			"uri":"evercoast.0100_data.bin",
			"byteLength":675140,
			"name":"main_buffer"
		}
	],
	"bufferViews":[
		{
			"buffer":0,
			"byteLength":39714,
			"target":34963
		},
		{
			"buffer":0,
			"byteOffset":39716,
			"byteLength":238284,
			"target":34962
		},
		{
			"buffer":0,
			"byteOffset":278000,
			"byteLength":158856,
			"target":34962
		},
		{
			"buffer":0,
			"byteOffset":436856,
			"byteLength":238284,
			"target":34962
		}
	],
	"nodes":[
		{
			"name":"HIGH",
			"mesh":0
		}
	],
	"meshes":[
		{
			"primitives":[
				{
					"attributes":{
						"NORMAL":3,
						"TEXCOORD_0":2,
						"POSITION":1
					},
					"indices":0,
					"material":0
				}
			]
		}
	],
	"materials":[
		{
			"name":"Material_1",
			"pbrMetallicRoughness":{
				"metallicFactor":0,
				"baseColorTexture":{
					"index":0
				}
			}
		}
	],
	"scenes":[
		{
			"nodes":[0
			]
		}
	],
	"textures":[
		{
			"source":0
		}
	],
	"images":[
		{
			"uri":"evercoast_0100.jpg",
			"mimeType":"image/jpeg"
		}
	],
	"scene":0
}
