{
	"asset":{
		"version":"2.0",
		"generator":"Houdini GLTF 2.0 Exporter"
	},
	"accessors":[
		{
			"bufferView":0,
			"componentType":5123,
			"count":19920,
			"type":"SCALAR",
			"min":[0
			],
			"max":[19919
			]
		},
		{
			"bufferView":1,
			"componentType":5126,
			"count":19920,
			"type":"VEC3",
			"min":[-0.308992505,-0.0112117529,-0.214782
			],
			"max":[0.302532494,1.82005322,0.211716056
			]
		},
		{
			"bufferView":2,
			"componentType":5126,
			"count":19920,
			"type":"VEC2",
			"min":[0.000974650087,0.00382572412
			],
			"max":[0.998491943,0.999025345
			]
		},
		{
			"bufferView":3,
			"componentType":5126,
			"count":19920,
			"type":"VEC3",
			"min":[-0.999983847,-0.999891758,-0.999954164
			],
			"max":[0.999474347,0.999216616,0.999953151
			]
		}
	],
	"buffers":[
		{
			"uri":"evercoast.0081_data.bin",
			"byteLength":677280,
			"name":"main_buffer"
		}
	],
	"bufferViews":[
		{
			"buffer":0,
			"byteLength":39840,
			"target":34963
		},
		{
			"buffer":0,
			"byteOffset":39840,
			"byteLength":239040,
			"target":34962
		},
		{
			"buffer":0,
			"byteOffset":278880,
			"byteLength":159360,
			"target":34962
		},
		{
			"buffer":0,
			"byteOffset":438240,
			"byteLength":239040,
			"target":34962
		}
	],
	"nodes":[
		{
			"name":"HIGH",
			"mesh":0
		}
	],
	"meshes":[
		{
			"primitives":[
				{
					"attributes":{
						"NORMAL":3,
						"TEXCOORD_0":2,
						"POSITION":1
					},
					"indices":0,
					"material":0
				}
			]
		}
	],
	"materials":[
		{
			"name":"Material_1",
			"pbrMetallicRoughness":{
				"metallicFactor":0,
				"baseColorTexture":{
					"index":0
				}
			}
		}
	],
	"scenes":[
		{
			"nodes":[0
			]
		}
	],
	"textures":[
		{
			"source":0
		}
	],
	"images":[
		{
			"uri":"evercoast_0081.jpg",
			"mimeType":"image/jpeg"
		}
	],
	"scene":0
}
