{
	"asset":{
		"version":"2.0",
		"generator":"Houdini GLTF 2.0 Exporter"
	},
	"accessors":[
		{
			"bufferView":0,
			"componentType":5123,
			"count":19992,
			"type":"SCALAR",
			"min":[0
			],
			"max":[19991
			]
		},
		{
			"bufferView":1,
			"componentType":5126,
			"count":19992,
			"type":"VEC3",
			"min":[-0.30567646,-0.0135817528,-0.215701938
			],
			"max":[0.303068519,1.82202423,0.206682026
			]
		},
		{
			"bufferView":2,
			"componentType":5126,
			"count":19992,
			"type":"VEC2",
			"min":[0.000974658877,0.00337332487
			],
			"max":[0.998181343,0.999025345
			]
		},
		{
			"bufferView":3,
			"componentType":5126,
			"count":19992,
			"type":"VEC3",
			"min":[-0.999277294,-0.998539686,-0.999941945
			],
			"max":[0.999788165,0.995656908,0.999921024
			]
		}
	],
	"buffers":[
		{
			"uri":"evercoast.0030_data.bin",
			"byteLength":679728,
			"name":"main_buffer"
		}
	],
	"bufferViews":[
		{
			"buffer":0,
			"byteLength":39984,
			"target":34963
		},
		{
			"buffer":0,
			"byteOffset":39984,
			"byteLength":239904,
			"target":34962
		},
		{
			"buffer":0,
			"byteOffset":279888,
			"byteLength":159936,
			"target":34962
		},
		{
			"buffer":0,
			"byteOffset":439824,
			"byteLength":239904,
			"target":34962
		}
	],
	"nodes":[
		{
			"name":"HIGH",
			"mesh":0
		}
	],
	"meshes":[
		{
			"primitives":[
				{
					"attributes":{
						"NORMAL":3,
						"TEXCOORD_0":2,
						"POSITION":1
					},
					"indices":0,
					"material":0
				}
			]
		}
	],
	"materials":[
		{
			"name":"Material_1",
			"pbrMetallicRoughness":{
				"metallicFactor":0,
				"baseColorTexture":{
					"index":0
				}
			}
		}
	],
	"scenes":[
		{
			"nodes":[0
			]
		}
	],
	"textures":[
		{
			"source":0
		}
	],
	"images":[
		{
			"uri":"evercoast_0030.jpg",
			"mimeType":"image/jpeg"
		}
	],
	"scene":0
}
