{
	"asset":{
		"version":"2.0",
		"generator":"Houdini GLTF 2.0 Exporter"
	},
	"accessors":[
		{
			"bufferView":0,
			"componentType":5123,
			"count":19944,
			"type":"SCALAR",
			"min":[0
			],
			"max":[19943
			]
		},
		{
			"bufferView":1,
			"componentType":5126,
			"count":19944,
			"type":"VEC3",
			"min":[-0.287650466,-0.0124417543,-0.219792008
			],
			"max":[0.316600502,1.82066917,0.318124056
			]
		},
		{
			"bufferView":2,
			"componentType":5126,
			"count":19944,
			"type":"VEC2",
			"min":[0.000974656665,0.00596421957
			],
			"max":[0.998308122,0.999025345
			]
		},
		{
			"bufferView":3,
			"componentType":5126,
			"count":19944,
			"type":"VEC3",
			"min":[-0.999863625,-0.998361647,-0.999948919
			],
			"max":[0.999820352,0.998397052,0.999872386
			]
		}
	],
	"buffers":[
		{
			"uri":"evercoast.0092_data.bin",
			"byteLength":678096,
			"name":"main_buffer"
		}
	],
	"bufferViews":[
		{
			"buffer":0,
			"byteLength":39888,
			"target":34963
		},
		{
			"buffer":0,
			"byteOffset":39888,
			"byteLength":239328,
			"target":34962
		},
		{
			"buffer":0,
			"byteOffset":279216,
			"byteLength":159552,
			"target":34962
		},
		{
			"buffer":0,
			"byteOffset":438768,
			"byteLength":239328,
			"target":34962
		}
	],
	"nodes":[
		{
			"name":"HIGH",
			"mesh":0
		}
	],
	"meshes":[
		{
			"primitives":[
				{
					"attributes":{
						"NORMAL":3,
						"TEXCOORD_0":2,
						"POSITION":1
					},
					"indices":0,
					"material":0
				}
			]
		}
	],
	"materials":[
		{
			"name":"Material_1",
			"pbrMetallicRoughness":{
				"metallicFactor":0,
				"baseColorTexture":{
					"index":0
				}
			}
		}
	],
	"scenes":[
		{
			"nodes":[0
			]
		}
	],
	"textures":[
		{
			"source":0
		}
	],
	"images":[
		{
			"uri":"evercoast_0092.jpg",
			"mimeType":"image/jpeg"
		}
	],
	"scene":0
}
