{
	"asset":{
		"version":"2.0",
		"generator":"Houdini GLTF 2.0 Exporter"
	},
	"accessors":[
		{
			"bufferView":0,
			"componentType":5123,
			"count":19923,
			"type":"SCALAR",
			"min":[0
			],
			"max":[19922
			]
		},
		{
			"bufferView":1,
			"componentType":5126,
			"count":19923,
			"type":"VEC3",
			"min":[-0.273488462,-0.018221736,-0.237211943
			],
			"max":[0.346989512,1.8123033,0.174123049
			]
		},
		{
			"bufferView":2,
			"componentType":5126,
			"count":19923,
			"type":"VEC2",
			"min":[0.000974658062,0.00793302059
			],
			"max":[0.997836471,0.999025345
			]
		},
		{
			"bufferView":3,
			"componentType":5126,
			"count":19923,
			"type":"VEC3",
			"min":[-0.999897003,-0.997580349,-1
			],
			"max":[0.999786079,0.997774363,0.999966323
			]
		}
	],
	"buffers":[
		{
			"uri":"evercoast.0135_data.bin",
			"byteLength":677384,
			"name":"main_buffer"
		}
	],
	"bufferViews":[
		{
			"buffer":0,
			"byteLength":39846,
			"target":34963
		},
		{
			"buffer":0,
			"byteOffset":39848,
			"byteLength":239076,
			"target":34962
		},
		{
			"buffer":0,
			"byteOffset":278924,
			"byteLength":159384,
			"target":34962
		},
		{
			"buffer":0,
			"byteOffset":438308,
			"byteLength":239076,
			"target":34962
		}
	],
	"nodes":[
		{
			"name":"HIGH",
			"mesh":0
		}
	],
	"meshes":[
		{
			"primitives":[
				{
					"attributes":{
						"NORMAL":3,
						"TEXCOORD_0":2,
						"POSITION":1
					},
					"indices":0,
					"material":0
				}
			]
		}
	],
	"materials":[
		{
			"name":"Material_1",
			"pbrMetallicRoughness":{
				"metallicFactor":0,
				"baseColorTexture":{
					"index":0
				}
			}
		}
	],
	"scenes":[
		{
			"nodes":[0
			]
		}
	],
	"textures":[
		{
			"source":0
		}
	],
	"images":[
		{
			"uri":"evercoast_0135.jpg",
			"mimeType":"image/jpeg"
		}
	],
	"scene":0
}
