{
	"asset":{
		"version":"2.0",
		"generator":"Houdini GLTF 2.0 Exporter"
	},
	"accessors":[
		{
			"bufferView":0,
			"componentType":5123,
			"count":20001,
			"type":"SCALAR",
			"min":[0
			],
			"max":[20000
			]
		},
		{
			"bufferView":1,
			"componentType":5126,
			"count":20001,
			"type":"VEC3",
			"min":[-0.313016474,-0.0139117241,-0.232621908
			],
			"max":[0.342504501,1.81404328,0.299673021
			]
		},
		{
			"bufferView":2,
			"componentType":5126,
			"count":20001,
			"type":"VEC2",
			"min":[0.000974658818,0.0074146986
			],
			"max":[0.99753952,0.999025345
			]
		},
		{
			"bufferView":3,
			"componentType":5126,
			"count":20001,
			"type":"VEC3",
			"min":[-0.999347985,-0.99883908,-0.999942601
			],
			"max":[0.999979615,0.998748481,0.999892592
			]
		}
	],
	"buffers":[
		{
			"uri":"evercoast.0149_data.bin",
			"byteLength":680036,
			"name":"main_buffer"
		}
	],
	"bufferViews":[
		{
			"buffer":0,
			"byteLength":40002,
			"target":34963
		},
		{
			"buffer":0,
			"byteOffset":40004,
			"byteLength":240012,
			"target":34962
		},
		{
			"buffer":0,
			"byteOffset":280016,
			"byteLength":160008,
			"target":34962
		},
		{
			"buffer":0,
			"byteOffset":440024,
			"byteLength":240012,
			"target":34962
		}
	],
	"nodes":[
		{
			"name":"HIGH",
			"mesh":0
		}
	],
	"meshes":[
		{
			"primitives":[
				{
					"attributes":{
						"NORMAL":3,
						"TEXCOORD_0":2,
						"POSITION":1
					},
					"indices":0,
					"material":0
				}
			]
		}
	],
	"materials":[
		{
			"name":"Material_1",
			"pbrMetallicRoughness":{
				"metallicFactor":0,
				"baseColorTexture":{
					"index":0
				}
			}
		}
	],
	"scenes":[
		{
			"nodes":[0
			]
		}
	],
	"textures":[
		{
			"source":0
		}
	],
	"images":[
		{
			"uri":"evercoast_0149.jpg",
			"mimeType":"image/jpeg"
		}
	],
	"scene":0
}
