{
	"asset":{
		"version":"2.0",
		"generator":"Houdini GLTF 2.0 Exporter"
	},
	"accessors":[
		{
			"bufferView":0,
			"componentType":5123,
			"count":19992,
			"type":"SCALAR",
			"min":[0
			],
			"max":[19991
			]
		},
		{
			"bufferView":1,
			"componentType":5126,
			"count":19992,
			"type":"VEC3",
			"min":[-0.324030519,-0.00592172146,-0.219641924
			],
			"max":[0.357327521,1.81707215,0.298662007
			]
		},
		{
			"bufferView":2,
			"componentType":5126,
			"count":19992,
			"type":"VEC2",
			"min":[0.000974655326,0.00367587805
			],
			"max":[0.998517394,0.999025345
			]
		},
		{
			"bufferView":3,
			"componentType":5126,
			"count":19992,
			"type":"VEC3",
			"min":[-0.999735177,-0.999888778,-0.999911189
			],
			"max":[0.999953032,0.9987306,0.999991417
			]
		}
	],
	"buffers":[
		{
			"uri":"evercoast.0106_data.bin",
			"byteLength":679728,
			"name":"main_buffer"
		}
	],
	"bufferViews":[
		{
			"buffer":0,
			"byteLength":39984,
			"target":34963
		},
		{
			"buffer":0,
			"byteOffset":39984,
			"byteLength":239904,
			"target":34962
		},
		{
			"buffer":0,
			"byteOffset":279888,
			"byteLength":159936,
			"target":34962
		},
		{
			"buffer":0,
			"byteOffset":439824,
			"byteLength":239904,
			"target":34962
		}
	],
	"nodes":[
		{
			"name":"HIGH",
			"mesh":0
		}
	],
	"meshes":[
		{
			"primitives":[
				{
					"attributes":{
						"NORMAL":3,
						"TEXCOORD_0":2,
						"POSITION":1
					},
					"indices":0,
					"material":0
				}
			]
		}
	],
	"materials":[
		{
			"name":"Material_1",
			"pbrMetallicRoughness":{
				"metallicFactor":0,
				"baseColorTexture":{
					"index":0
				}
			}
		}
	],
	"scenes":[
		{
			"nodes":[0
			]
		}
	],
	"textures":[
		{
			"source":0
		}
	],
	"images":[
		{
			"uri":"evercoast_0106.jpg",
			"mimeType":"image/jpeg"
		}
	],
	"scene":0
}
