{
	"asset":{
		"version":"2.0",
		"generator":"Houdini GLTF 2.0 Exporter"
	},
	"accessors":[
		{
			"bufferView":0,
			"componentType":5123,
			"count":19989,
			"type":"SCALAR",
			"min":[0
			],
			"max":[19988
			]
		},
		{
			"bufferView":1,
			"componentType":5126,
			"count":19989,
			"type":"VEC3",
			"min":[-0.309092462,-0.0128917694,-0.229131937
			],
			"max":[0.308935523,1.81722224,0.198178053
			]
		},
		{
			"bufferView":2,
			"componentType":5126,
			"count":19989,
			"type":"VEC2",
			"min":[0.000974655501,0.0162359476
			],
			"max":[0.997315943,0.999025345
			]
		},
		{
			"bufferView":3,
			"componentType":5126,
			"count":19989,
			"type":"VEC3",
			"min":[-0.998170853,-0.999625921,-0.999860644
			],
			"max":[0.999921262,0.992873967,0.999924064
			]
		}
	],
	"buffers":[
		{
			"uri":"evercoast.0058_data.bin",
			"byteLength":679628,
			"name":"main_buffer"
		}
	],
	"bufferViews":[
		{
			"buffer":0,
			"byteLength":39978,
			"target":34963
		},
		{
			"buffer":0,
			"byteOffset":39980,
			"byteLength":239868,
			"target":34962
		},
		{
			"buffer":0,
			"byteOffset":279848,
			"byteLength":159912,
			"target":34962
		},
		{
			"buffer":0,
			"byteOffset":439760,
			"byteLength":239868,
			"target":34962
		}
	],
	"nodes":[
		{
			"name":"HIGH",
			"mesh":0
		}
	],
	"meshes":[
		{
			"primitives":[
				{
					"attributes":{
						"NORMAL":3,
						"TEXCOORD_0":2,
						"POSITION":1
					},
					"indices":0,
					"material":0
				}
			]
		}
	],
	"materials":[
		{
			"name":"Material_1",
			"pbrMetallicRoughness":{
				"metallicFactor":0,
				"baseColorTexture":{
					"index":0
				}
			}
		}
	],
	"scenes":[
		{
			"nodes":[0
			]
		}
	],
	"textures":[
		{
			"source":0
		}
	],
	"images":[
		{
			"uri":"evercoast_0058.jpg",
			"mimeType":"image/jpeg"
		}
	],
	"scene":0
}
