{
	"asset":{
		"version":"2.0",
		"generator":"Houdini GLTF 2.0 Exporter"
	},
	"accessors":[
		{
			"bufferView":0,
			"componentType":5123,
			"count":19995,
			"type":"SCALAR",
			"min":[0
			],
			"max":[19994
			]
		},
		{
			"bufferView":1,
			"componentType":5126,
			"count":19995,
			"type":"VEC3",
			"min":[-0.304129481,-0.00665175915,-0.21824193
			],
			"max":[0.305452526,1.82072926,0.204935014
			]
		},
		{
			"bufferView":2,
			"componentType":5126,
			"count":19995,
			"type":"VEC2",
			"min":[0.00097465422,0.0301382542
			],
			"max":[0.998097837,0.999025345
			]
		},
		{
			"bufferView":3,
			"componentType":5126,
			"count":19995,
			"type":"VEC3",
			"min":[-0.999726713,-0.999931633,-0.999972105
			],
			"max":[0.999074578,0.997976959,0.999779165
			]
		}
	],
	"buffers":[
		{
			"uri":"evercoast.0034_data.bin",
			"byteLength":679832,
			"name":"main_buffer"
		}
	],
	"bufferViews":[
		{
			"buffer":0,
			"byteLength":39990,
			"target":34963
		},
		{
			"buffer":0,
			"byteOffset":39992,
			"byteLength":239940,
			"target":34962
		},
		{
			"buffer":0,
			"byteOffset":279932,
			"byteLength":159960,
			"target":34962
		},
		{
			"buffer":0,
			"byteOffset":439892,
			"byteLength":239940,
			"target":34962
		}
	],
	"nodes":[
		{
			"name":"HIGH",
			"mesh":0
		}
	],
	"meshes":[
		{
			"primitives":[
				{
					"attributes":{
						"NORMAL":3,
						"TEXCOORD_0":2,
						"POSITION":1
					},
					"indices":0,
					"material":0
				}
			]
		}
	],
	"materials":[
		{
			"name":"Material_1",
			"pbrMetallicRoughness":{
				"metallicFactor":0,
				"baseColorTexture":{
					"index":0
				}
			}
		}
	],
	"scenes":[
		{
			"nodes":[0
			]
		}
	],
	"textures":[
		{
			"source":0
		}
	],
	"images":[
		{
			"uri":"evercoast_0034.jpg",
			"mimeType":"image/jpeg"
		}
	],
	"scene":0
}
