{
	"asset":{
		"version":"2.0",
		"generator":"Houdini GLTF 2.0 Exporter"
	},
	"accessors":[
		{
			"bufferView":0,
			"componentType":5123,
			"count":19998,
			"type":"SCALAR",
			"min":[0
			],
			"max":[19997
			]
		},
		{
			"bufferView":1,
			"componentType":5126,
			"count":19998,
			"type":"VEC3",
			"min":[-0.306531489,-0.0147817135,-0.223011971
			],
			"max":[0.305917501,1.82188225,0.200987041
			]
		},
		{
			"bufferView":2,
			"componentType":5126,
			"count":19998,
			"type":"VEC2",
			"min":[0.000974658877,0.0124538541
			],
			"max":[0.997648537,0.999025345
			]
		},
		{
			"bufferView":3,
			"componentType":5126,
			"count":19998,
			"type":"VEC3",
			"min":[-0.999395788,-0.999966562,-0.999953091
			],
			"max":[0.999764919,0.999853969,0.999730945
			]
		}
	],
	"buffers":[
		{
			"uri":"evercoast.0042_data.bin",
			"byteLength":679932,
			"name":"main_buffer"
		}
	],
	"bufferViews":[
		{
			"buffer":0,
			"byteLength":39996,
			"target":34963
		},
		{
			"buffer":0,
			"byteOffset":39996,
			"byteLength":239976,
			"target":34962
		},
		{
			"buffer":0,
			"byteOffset":279972,
			"byteLength":159984,
			"target":34962
		},
		{
			"buffer":0,
			"byteOffset":439956,
			"byteLength":239976,
			"target":34962
		}
	],
	"nodes":[
		{
			"name":"HIGH",
			"mesh":0
		}
	],
	"meshes":[
		{
			"primitives":[
				{
					"attributes":{
						"NORMAL":3,
						"TEXCOORD_0":2,
						"POSITION":1
					},
					"indices":0,
					"material":0
				}
			]
		}
	],
	"materials":[
		{
			"name":"Material_1",
			"pbrMetallicRoughness":{
				"metallicFactor":0,
				"baseColorTexture":{
					"index":0
				}
			}
		}
	],
	"scenes":[
		{
			"nodes":[0
			]
		}
	],
	"textures":[
		{
			"source":0
		}
	],
	"images":[
		{
			"uri":"evercoast_0042.jpg",
			"mimeType":"image/jpeg"
		}
	],
	"scene":0
}
