{
	"asset":{
		"version":"2.0",
		"generator":"Houdini GLTF 2.0 Exporter"
	},
	"accessors":[
		{
			"bufferView":0,
			"componentType":5123,
			"count":19971,
			"type":"SCALAR",
			"min":[0
			],
			"max":[19970
			]
		},
		{
			"bufferView":1,
			"componentType":5126,
			"count":19971,
			"type":"VEC3",
			"min":[-0.308080494,-0.00726175308,-0.233451962
			],
			"max":[0.303359509,1.81446218,0.198592007
			]
		},
		{
			"bufferView":2,
			"componentType":5126,
			"count":19971,
			"type":"VEC2",
			"min":[0.000974658702,0.00309503078
			],
			"max":[0.998474658,0.999025345
			]
		},
		{
			"bufferView":3,
			"componentType":5126,
			"count":19971,
			"type":"VEC3",
			"min":[-0.999900341,-0.999741554,-0.999986172
			],
			"max":[0.999689937,0.996289015,0.999779701
			]
		}
	],
	"buffers":[
		{
			"uri":"evercoast.0061_data.bin",
			"byteLength":679016,
			"name":"main_buffer"
		}
	],
	"bufferViews":[
		{
			"buffer":0,
			"byteLength":39942,
			"target":34963
		},
		{
			"buffer":0,
			"byteOffset":39944,
			"byteLength":239652,
			"target":34962
		},
		{
			"buffer":0,
			"byteOffset":279596,
			"byteLength":159768,
			"target":34962
		},
		{
			"buffer":0,
			"byteOffset":439364,
			"byteLength":239652,
			"target":34962
		}
	],
	"nodes":[
		{
			"name":"HIGH",
			"mesh":0
		}
	],
	"meshes":[
		{
			"primitives":[
				{
					"attributes":{
						"NORMAL":3,
						"TEXCOORD_0":2,
						"POSITION":1
					},
					"indices":0,
					"material":0
				}
			]
		}
	],
	"materials":[
		{
			"name":"Material_1",
			"pbrMetallicRoughness":{
				"metallicFactor":0,
				"baseColorTexture":{
					"index":0
				}
			}
		}
	],
	"scenes":[
		{
			"nodes":[0
			]
		}
	],
	"textures":[
		{
			"source":0
		}
	],
	"images":[
		{
			"uri":"evercoast_0061.jpg",
			"mimeType":"image/jpeg"
		}
	],
	"scene":0
}
