{
	"asset":{
		"version":"2.0",
		"generator":"Houdini GLTF 2.0 Exporter"
	},
	"accessors":[
		{
			"bufferView":0,
			"componentType":5123,
			"count":19956,
			"type":"SCALAR",
			"min":[0
			],
			"max":[19955
			]
		},
		{
			"bufferView":1,
			"componentType":5126,
			"count":19956,
			"type":"VEC3",
			"min":[-0.327687502,-0.0142917633,-0.219301939
			],
			"max":[0.363281488,1.81876922,0.294780016
			]
		},
		{
			"bufferView":2,
			"componentType":5126,
			"count":19956,
			"type":"VEC2",
			"min":[0.000974658877,0.0106102824
			],
			"max":[0.998207688,0.999025345
			]
		},
		{
			"bufferView":3,
			"componentType":5126,
			"count":19956,
			"type":"VEC3",
			"min":[-0.999600768,-0.999141455,-0.999867201
			],
			"max":[0.999932349,0.999993086,0.999965072
			]
		}
	],
	"buffers":[
		{
			"uri":"evercoast.0105_data.bin",
			"byteLength":678504,
			"name":"main_buffer"
		}
	],
	"bufferViews":[
		{
			"buffer":0,
			"byteLength":39912,
			"target":34963
		},
		{
			"buffer":0,
			"byteOffset":39912,
			"byteLength":239472,
			"target":34962
		},
		{
			"buffer":0,
			"byteOffset":279384,
			"byteLength":159648,
			"target":34962
		},
		{
			"buffer":0,
			"byteOffset":439032,
			"byteLength":239472,
			"target":34962
		}
	],
	"nodes":[
		{
			"name":"HIGH",
			"mesh":0
		}
	],
	"meshes":[
		{
			"primitives":[
				{
					"attributes":{
						"NORMAL":3,
						"TEXCOORD_0":2,
						"POSITION":1
					},
					"indices":0,
					"material":0
				}
			]
		}
	],
	"materials":[
		{
			"name":"Material_1",
			"pbrMetallicRoughness":{
				"metallicFactor":0,
				"baseColorTexture":{
					"index":0
				}
			}
		}
	],
	"scenes":[
		{
			"nodes":[0
			]
		}
	],
	"textures":[
		{
			"source":0
		}
	],
	"images":[
		{
			"uri":"evercoast_0105.jpg",
			"mimeType":"image/jpeg"
		}
	],
	"scene":0
}
