{
	"asset":{
		"version":"2.0",
		"generator":"Houdini GLTF 2.0 Exporter"
	},
	"accessors":[
		{
			"bufferView":0,
			"componentType":5123,
			"count":19905,
			"type":"SCALAR",
			"min":[0
			],
			"max":[19904
			]
		},
		{
			"bufferView":1,
			"componentType":5126,
			"count":19905,
			"type":"VEC3",
			"min":[-0.309469461,-0.0130918026,-0.231431961
			],
			"max":[0.303277493,1.81764722,0.198214054
			]
		},
		{
			"bufferView":2,
			"componentType":5126,
			"count":19905,
			"type":"VEC2",
			"min":[0.000974658877,0.011439383
			],
			"max":[0.996496677,0.999025345
			]
		},
		{
			"bufferView":3,
			"componentType":5126,
			"count":19905,
			"type":"VEC3",
			"min":[-0.999472678,-0.999521017,-0.999998808
			],
			"max":[0.999574482,0.991253853,0.999458611
			]
		}
	],
	"buffers":[
		{
			"uri":"evercoast.0065_data.bin",
			"byteLength":676772,
			"name":"main_buffer"
		}
	],
	"bufferViews":[
		{
			"buffer":0,
			"byteLength":39810,
			"target":34963
		},
		{
			"buffer":0,
			"byteOffset":39812,
			"byteLength":238860,
			"target":34962
		},
		{
			"buffer":0,
			"byteOffset":278672,
			"byteLength":159240,
			"target":34962
		},
		{
			"buffer":0,
			"byteOffset":437912,
			"byteLength":238860,
			"target":34962
		}
	],
	"nodes":[
		{
			"name":"HIGH",
			"mesh":0
		}
	],
	"meshes":[
		{
			"primitives":[
				{
					"attributes":{
						"NORMAL":3,
						"TEXCOORD_0":2,
						"POSITION":1
					},
					"indices":0,
					"material":0
				}
			]
		}
	],
	"materials":[
		{
			"name":"Material_1",
			"pbrMetallicRoughness":{
				"metallicFactor":0,
				"baseColorTexture":{
					"index":0
				}
			}
		}
	],
	"scenes":[
		{
			"nodes":[0
			]
		}
	],
	"textures":[
		{
			"source":0
		}
	],
	"images":[
		{
			"uri":"evercoast_0065.jpg",
			"mimeType":"image/jpeg"
		}
	],
	"scene":0
}
