{
	"asset":{
		"version":"2.0",
		"generator":"Houdini GLTF 2.0 Exporter"
	},
	"accessors":[
		{
			"bufferView":0,
			"componentType":5123,
			"count":19959,
			"type":"SCALAR",
			"min":[0
			],
			"max":[19958
			]
		},
		{
			"bufferView":1,
			"componentType":5126,
			"count":19959,
			"type":"VEC3",
			"min":[-0.310646474,-0.0091817379,-0.227711916
			],
			"max":[0.303053498,1.81911421,0.198524058
			]
		},
		{
			"bufferView":2,
			"componentType":5126,
			"count":19959,
			"type":"VEC2",
			"min":[0.000974657945,0.00295960903
			],
			"max":[0.997337997,0.999025345
			]
		},
		{
			"bufferView":3,
			"componentType":5126,
			"count":19959,
			"type":"VEC3",
			"min":[-0.999807179,-0.999652028,-0.999988079
			],
			"max":[0.999589384,0.99781692,0.999608636
			]
		}
	],
	"buffers":[
		{
			"uri":"evercoast.0066_data.bin",
			"byteLength":678608,
			"name":"main_buffer"
		}
	],
	"bufferViews":[
		{
			"buffer":0,
			"byteLength":39918,
			"target":34963
		},
		{
			"buffer":0,
			"byteOffset":39920,
			"byteLength":239508,
			"target":34962
		},
		{
			"buffer":0,
			"byteOffset":279428,
			"byteLength":159672,
			"target":34962
		},
		{
			"buffer":0,
			"byteOffset":439100,
			"byteLength":239508,
			"target":34962
		}
	],
	"nodes":[
		{
			"name":"HIGH",
			"mesh":0
		}
	],
	"meshes":[
		{
			"primitives":[
				{
					"attributes":{
						"NORMAL":3,
						"TEXCOORD_0":2,
						"POSITION":1
					},
					"indices":0,
					"material":0
				}
			]
		}
	],
	"materials":[
		{
			"name":"Material_1",
			"pbrMetallicRoughness":{
				"metallicFactor":0,
				"baseColorTexture":{
					"index":0
				}
			}
		}
	],
	"scenes":[
		{
			"nodes":[0
			]
		}
	],
	"textures":[
		{
			"source":0
		}
	],
	"images":[
		{
			"uri":"evercoast_0066.jpg",
			"mimeType":"image/jpeg"
		}
	],
	"scene":0
}
