{
	"asset":{
		"version":"2.0",
		"generator":"Houdini GLTF 2.0 Exporter"
	},
	"accessors":[
		{
			"bufferView":0,
			"componentType":5123,
			"count":20004,
			"type":"SCALAR",
			"min":[0
			],
			"max":[20003
			]
		},
		{
			"bufferView":1,
			"componentType":5126,
			"count":20004,
			"type":"VEC3",
			"min":[-0.306548476,-0.00964176655,-0.213021994
			],
			"max":[0.305808485,1.82200825,0.209758043
			]
		},
		{
			"bufferView":2,
			"componentType":5126,
			"count":20004,
			"type":"VEC2",
			"min":[0.000974658877,0.00636470318
			],
			"max":[0.998193204,0.999025345
			]
		},
		{
			"bufferView":3,
			"componentType":5126,
			"count":20004,
			"type":"VEC3",
			"min":[-0.999625802,-0.999972284,-0.999987185
			],
			"max":[0.999904811,0.998945892,0.999928176
			]
		}
	],
	"buffers":[
		{
			"uri":"evercoast.0020_data.bin",
			"byteLength":680136,
			"name":"main_buffer"
		}
	],
	"bufferViews":[
		{
			"buffer":0,
			"byteLength":40008,
			"target":34963
		},
		{
			"buffer":0,
			"byteOffset":40008,
			"byteLength":240048,
			"target":34962
		},
		{
			"buffer":0,
			"byteOffset":280056,
			"byteLength":160032,
			"target":34962
		},
		{
			"buffer":0,
			"byteOffset":440088,
			"byteLength":240048,
			"target":34962
		}
	],
	"nodes":[
		{
			"name":"HIGH",
			"mesh":0
		}
	],
	"meshes":[
		{
			"primitives":[
				{
					"attributes":{
						"NORMAL":3,
						"TEXCOORD_0":2,
						"POSITION":1
					},
					"indices":0,
					"material":0
				}
			]
		}
	],
	"materials":[
		{
			"name":"Material_1",
			"pbrMetallicRoughness":{
				"metallicFactor":0,
				"baseColorTexture":{
					"index":0
				}
			}
		}
	],
	"scenes":[
		{
			"nodes":[0
			]
		}
	],
	"textures":[
		{
			"source":0
		}
	],
	"images":[
		{
			"uri":"evercoast_0020.jpg",
			"mimeType":"image/jpeg"
		}
	],
	"scene":0
}
