{
	"asset":{
		"version":"2.0",
		"generator":"Houdini GLTF 2.0 Exporter"
	},
	"accessors":[
		{
			"bufferView":0,
			"componentType":5123,
			"count":20010,
			"type":"SCALAR",
			"min":[0
			],
			"max":[20009
			]
		},
		{
			"bufferView":1,
			"componentType":5126,
			"count":20010,
			"type":"VEC3",
			"min":[-0.306964517,-0.00614178181,-0.210471988
			],
			"max":[0.306964517,1.82313025,0.210472047
			]
		},
		{
			"bufferView":2,
			"componentType":5126,
			"count":20010,
			"type":"VEC2",
			"min":[0.000974657421,0.0110930204
			],
			"max":[0.998486817,0.999025345
			]
		},
		{
			"bufferView":3,
			"componentType":5126,
			"count":20010,
			"type":"VEC3",
			"min":[-0.999794185,-0.999948084,-0.99993819
			],
			"max":[0.99990344,0.991141856,0.99966532
			]
		}
	],
	"buffers":[
		{
			"uri":"evercoast.0016_data.bin",
			"byteLength":680340,
			"name":"main_buffer"
		}
	],
	"bufferViews":[
		{
			"buffer":0,
			"byteLength":40020,
			"target":34963
		},
		{
			"buffer":0,
			"byteOffset":40020,
			"byteLength":240120,
			"target":34962
		},
		{
			"buffer":0,
			"byteOffset":280140,
			"byteLength":160080,
			"target":34962
		},
		{
			"buffer":0,
			"byteOffset":440220,
			"byteLength":240120,
			"target":34962
		}
	],
	"nodes":[
		{
			"name":"HIGH",
			"mesh":0
		}
	],
	"meshes":[
		{
			"primitives":[
				{
					"attributes":{
						"NORMAL":3,
						"TEXCOORD_0":2,
						"POSITION":1
					},
					"indices":0,
					"material":0
				}
			]
		}
	],
	"materials":[
		{
			"name":"Material_1",
			"pbrMetallicRoughness":{
				"metallicFactor":0,
				"baseColorTexture":{
					"index":0
				}
			}
		}
	],
	"scenes":[
		{
			"nodes":[0
			]
		}
	],
	"textures":[
		{
			"source":0
		}
	],
	"images":[
		{
			"uri":"evercoast_0016.jpg",
			"mimeType":"image/jpeg"
		}
	],
	"scene":0
}
