{
	"asset":{
		"version":"2.0",
		"generator":"Houdini GLTF 2.0 Exporter"
	},
	"accessors":[
		{
			"bufferView":0,
			"componentType":5123,
			"count":19956,
			"type":"SCALAR",
			"min":[0
			],
			"max":[19955
			]
		},
		{
			"bufferView":1,
			"componentType":5126,
			"count":19956,
			"type":"VEC3",
			"min":[-0.3082515,-0.00910174847,-0.23437202
			],
			"max":[0.303850532,1.81523323,0.198323011
			]
		},
		{
			"bufferView":2,
			"componentType":5126,
			"count":19956,
			"type":"VEC2",
			"min":[0.000974658877,0.00731629133
			],
			"max":[0.998469293,0.999025345
			]
		},
		{
			"bufferView":3,
			"componentType":5126,
			"count":19956,
			"type":"VEC3",
			"min":[-0.999571264,-0.998484135,-0.999874532
			],
			"max":[0.999884725,0.998716772,0.999991179
			]
		}
	],
	"buffers":[
		{
			"uri":"evercoast.0063_data.bin",
			"byteLength":678504,
			"name":"main_buffer"
		}
	],
	"bufferViews":[
		{
			"buffer":0,
			"byteLength":39912,
			"target":34963
		},
		{
			"buffer":0,
			"byteOffset":39912,
			"byteLength":239472,
			"target":34962
		},
		{
			"buffer":0,
			"byteOffset":279384,
			"byteLength":159648,
			"target":34962
		},
		{
			"buffer":0,
			"byteOffset":439032,
			"byteLength":239472,
			"target":34962
		}
	],
	"nodes":[
		{
			"name":"HIGH",
			"mesh":0
		}
	],
	"meshes":[
		{
			"primitives":[
				{
					"attributes":{
						"NORMAL":3,
						"TEXCOORD_0":2,
						"POSITION":1
					},
					"indices":0,
					"material":0
				}
			]
		}
	],
	"materials":[
		{
			"name":"Material_1",
			"pbrMetallicRoughness":{
				"metallicFactor":0,
				"baseColorTexture":{
					"index":0
				}
			}
		}
	],
	"scenes":[
		{
			"nodes":[0
			]
		}
	],
	"textures":[
		{
			"source":0
		}
	],
	"images":[
		{
			"uri":"evercoast_0063.jpg",
			"mimeType":"image/jpeg"
		}
	],
	"scene":0
}
