{
	"asset":{
		"version":"2.0",
		"generator":"Houdini GLTF 2.0 Exporter"
	},
	"accessors":[
		{
			"bufferView":0,
			"componentType":5123,
			"count":19917,
			"type":"SCALAR",
			"min":[0
			],
			"max":[19916
			]
		},
		{
			"bufferView":1,
			"componentType":5126,
			"count":19917,
			"type":"VEC3",
			"min":[-0.310639501,-0.0148518085,-0.227671981
			],
			"max":[0.30873251,1.81979632,0.197735012
			]
		},
		{
			"bufferView":2,
			"componentType":5126,
			"count":19917,
			"type":"VEC2",
			"min":[0.000974658877,0.0044361949
			],
			"max":[0.998173714,0.999025345
			]
		},
		{
			"bufferView":3,
			"componentType":5126,
			"count":19917,
			"type":"VEC3",
			"min":[-0.999964595,-0.998964667,-0.999942482
			],
			"max":[0.999703944,0.998332679,0.999892473
			]
		}
	],
	"buffers":[
		{
			"uri":"evercoast.0053_data.bin",
			"byteLength":677180,
			"name":"main_buffer"
		}
	],
	"bufferViews":[
		{
			"buffer":0,
			"byteLength":39834,
			"target":34963
		},
		{
			"buffer":0,
			"byteOffset":39836,
			"byteLength":239004,
			"target":34962
		},
		{
			"buffer":0,
			"byteOffset":278840,
			"byteLength":159336,
			"target":34962
		},
		{
			"buffer":0,
			"byteOffset":438176,
			"byteLength":239004,
			"target":34962
		}
	],
	"nodes":[
		{
			"name":"HIGH",
			"mesh":0
		}
	],
	"meshes":[
		{
			"primitives":[
				{
					"attributes":{
						"NORMAL":3,
						"TEXCOORD_0":2,
						"POSITION":1
					},
					"indices":0,
					"material":0
				}
			]
		}
	],
	"materials":[
		{
			"name":"Material_1",
			"pbrMetallicRoughness":{
				"metallicFactor":0,
				"baseColorTexture":{
					"index":0
				}
			}
		}
	],
	"scenes":[
		{
			"nodes":[0
			]
		}
	],
	"textures":[
		{
			"source":0
		}
	],
	"images":[
		{
			"uri":"evercoast_0053.jpg",
			"mimeType":"image/jpeg"
		}
	],
	"scene":0
}
