{
	"asset":{
		"version":"2.0",
		"generator":"Houdini GLTF 2.0 Exporter"
	},
	"accessors":[
		{
			"bufferView":0,
			"componentType":5123,
			"count":19968,
			"type":"SCALAR",
			"min":[0
			],
			"max":[19967
			]
		},
		{
			"bufferView":1,
			"componentType":5126,
			"count":19968,
			"type":"VEC3",
			"min":[-0.309080482,-0.0141317844,-0.214792013
			],
			"max":[0.303164482,1.82042027,0.209783018
			]
		},
		{
			"bufferView":2,
			"componentType":5126,
			"count":19968,
			"type":"VEC2",
			"min":[0.000974633964,0.0201272964
			],
			"max":[0.995812714,0.999025345
			]
		},
		{
			"bufferView":3,
			"componentType":5126,
			"count":19968,
			"type":"VEC3",
			"min":[-0.998474896,-0.999088585,-0.999967694
			],
			"max":[0.999481559,0.991829395,0.999907672
			]
		}
	],
	"buffers":[
		{
			"uri":"evercoast.0079_data.bin",
			"byteLength":678912,
			"name":"main_buffer"
		}
	],
	"bufferViews":[
		{
			"buffer":0,
			"byteLength":39936,
			"target":34963
		},
		{
			"buffer":0,
			"byteOffset":39936,
			"byteLength":239616,
			"target":34962
		},
		{
			"buffer":0,
			"byteOffset":279552,
			"byteLength":159744,
			"target":34962
		},
		{
			"buffer":0,
			"byteOffset":439296,
			"byteLength":239616,
			"target":34962
		}
	],
	"nodes":[
		{
			"name":"HIGH",
			"mesh":0
		}
	],
	"meshes":[
		{
			"primitives":[
				{
					"attributes":{
						"NORMAL":3,
						"TEXCOORD_0":2,
						"POSITION":1
					},
					"indices":0,
					"material":0
				}
			]
		}
	],
	"materials":[
		{
			"name":"Material_1",
			"pbrMetallicRoughness":{
				"metallicFactor":0,
				"baseColorTexture":{
					"index":0
				}
			}
		}
	],
	"scenes":[
		{
			"nodes":[0
			]
		}
	],
	"textures":[
		{
			"source":0
		}
	],
	"images":[
		{
			"uri":"evercoast_0079.jpg",
			"mimeType":"image/jpeg"
		}
	],
	"scene":0
}
