{
	"asset":{
		"version":"2.0",
		"generator":"Houdini GLTF 2.0 Exporter"
	},
	"accessors":[
		{
			"bufferView":0,
			"componentType":5123,
			"count":19989,
			"type":"SCALAR",
			"min":[0
			],
			"max":[19988
			]
		},
		{
			"bufferView":1,
			"componentType":5126,
			"count":19989,
			"type":"VEC3",
			"min":[-0.291763484,-0.0138018131,-0.216732025
			],
			"max":[0.30795449,1.82233226,0.320642054
			]
		},
		{
			"bufferView":2,
			"componentType":5126,
			"count":19989,
			"type":"VEC2",
			"min":[0.000974642287,0.017880857
			],
			"max":[0.998451352,0.999025345
			]
		},
		{
			"bufferView":3,
			"componentType":5126,
			"count":19989,
			"type":"VEC3",
			"min":[-0.999875069,-0.99989295,-0.999995291
			],
			"max":[0.999892652,0.999577224,0.999957919
			]
		}
	],
	"buffers":[
		{
			"uri":"evercoast.0091_data.bin",
			"byteLength":679628,
			"name":"main_buffer"
		}
	],
	"bufferViews":[
		{
			"buffer":0,
			"byteLength":39978,
			"target":34963
		},
		{
			"buffer":0,
			"byteOffset":39980,
			"byteLength":239868,
			"target":34962
		},
		{
			"buffer":0,
			"byteOffset":279848,
			"byteLength":159912,
			"target":34962
		},
		{
			"buffer":0,
			"byteOffset":439760,
			"byteLength":239868,
			"target":34962
		}
	],
	"nodes":[
		{
			"name":"HIGH",
			"mesh":0
		}
	],
	"meshes":[
		{
			"primitives":[
				{
					"attributes":{
						"NORMAL":3,
						"TEXCOORD_0":2,
						"POSITION":1
					},
					"indices":0,
					"material":0
				}
			]
		}
	],
	"materials":[
		{
			"name":"Material_1",
			"pbrMetallicRoughness":{
				"metallicFactor":0,
				"baseColorTexture":{
					"index":0
				}
			}
		}
	],
	"scenes":[
		{
			"nodes":[0
			]
		}
	],
	"textures":[
		{
			"source":0
		}
	],
	"images":[
		{
			"uri":"evercoast_0091.jpg",
			"mimeType":"image/jpeg"
		}
	],
	"scene":0
}
