{
	"asset":{
		"version":"2.0",
		"generator":"Houdini GLTF 2.0 Exporter"
	},
	"accessors":[
		{
			"bufferView":0,
			"componentType":5123,
			"count":19884,
			"type":"SCALAR",
			"min":[0
			],
			"max":[19883
			]
		},
		{
			"bufferView":1,
			"componentType":5126,
			"count":19884,
			"type":"VEC3",
			"min":[-0.274923503,-0.01567173,-0.238001943
			],
			"max":[0.349334538,1.81033623,0.167864025
			]
		},
		{
			"bufferView":2,
			"componentType":5126,
			"count":19884,
			"type":"VEC2",
			"min":[0.000974658877,0.00763934851
			],
			"max":[0.998342395,0.999025345
			]
		},
		{
			"bufferView":3,
			"componentType":5126,
			"count":19884,
			"type":"VEC3",
			"min":[-0.999885976,-0.999334872,-0.999984801
			],
			"max":[0.999893486,0.999913752,0.999965727
			]
		}
	],
	"buffers":[
		{
			"uri":"evercoast.0136_data.bin",
			"byteLength":676056,
			"name":"main_buffer"
		}
	],
	"bufferViews":[
		{
			"buffer":0,
			"byteLength":39768,
			"target":34963
		},
		{
			"buffer":0,
			"byteOffset":39768,
			"byteLength":238608,
			"target":34962
		},
		{
			"buffer":0,
			"byteOffset":278376,
			"byteLength":159072,
			"target":34962
		},
		{
			"buffer":0,
			"byteOffset":437448,
			"byteLength":238608,
			"target":34962
		}
	],
	"nodes":[
		{
			"name":"HIGH",
			"mesh":0
		}
	],
	"meshes":[
		{
			"primitives":[
				{
					"attributes":{
						"NORMAL":3,
						"TEXCOORD_0":2,
						"POSITION":1
					},
					"indices":0,
					"material":0
				}
			]
		}
	],
	"materials":[
		{
			"name":"Material_1",
			"pbrMetallicRoughness":{
				"metallicFactor":0,
				"baseColorTexture":{
					"index":0
				}
			}
		}
	],
	"scenes":[
		{
			"nodes":[0
			]
		}
	],
	"textures":[
		{
			"source":0
		}
	],
	"images":[
		{
			"uri":"evercoast_0136.jpg",
			"mimeType":"image/jpeg"
		}
	],
	"scene":0
}
