{
	"asset":{
		"version":"2.0",
		"generator":"Houdini GLTF 2.0 Exporter"
	},
	"accessors":[
		{
			"bufferView":0,
			"componentType":5123,
			"count":19935,
			"type":"SCALAR",
			"min":[0
			],
			"max":[19934
			]
		},
		{
			"bufferView":1,
			"componentType":5126,
			"count":19935,
			"type":"VEC3",
			"min":[-0.277475476,-0.0129617453,-0.240481973
			],
			"max":[0.327416539,1.81576121,0.291764021
			]
		},
		{
			"bufferView":2,
			"componentType":5126,
			"count":19935,
			"type":"VEC2",
			"min":[0.000974658877,0.00964617729
			],
			"max":[0.99721849,0.999025345
			]
		},
		{
			"bufferView":3,
			"componentType":5126,
			"count":19935,
			"type":"VEC3",
			"min":[-0.999985039,-0.999867916,-1
			],
			"max":[0.999897778,0.996093154,0.999912858
			]
		}
	],
	"buffers":[
		{
			"uri":"evercoast.0122_data.bin",
			"byteLength":677792,
			"name":"main_buffer"
		}
	],
	"bufferViews":[
		{
			"buffer":0,
			"byteLength":39870,
			"target":34963
		},
		{
			"buffer":0,
			"byteOffset":39872,
			"byteLength":239220,
			"target":34962
		},
		{
			"buffer":0,
			"byteOffset":279092,
			"byteLength":159480,
			"target":34962
		},
		{
			"buffer":0,
			"byteOffset":438572,
			"byteLength":239220,
			"target":34962
		}
	],
	"nodes":[
		{
			"name":"HIGH",
			"mesh":0
		}
	],
	"meshes":[
		{
			"primitives":[
				{
					"attributes":{
						"NORMAL":3,
						"TEXCOORD_0":2,
						"POSITION":1
					},
					"indices":0,
					"material":0
				}
			]
		}
	],
	"materials":[
		{
			"name":"Material_1",
			"pbrMetallicRoughness":{
				"metallicFactor":0,
				"baseColorTexture":{
					"index":0
				}
			}
		}
	],
	"scenes":[
		{
			"nodes":[0
			]
		}
	],
	"textures":[
		{
			"source":0
		}
	],
	"images":[
		{
			"uri":"evercoast_0122.jpg",
			"mimeType":"image/jpeg"
		}
	],
	"scene":0
}
