{
	"asset":{
		"version":"2.0",
		"generator":"Houdini GLTF 2.0 Exporter"
	},
	"accessors":[
		{
			"bufferView":0,
			"componentType":5123,
			"count":19980,
			"type":"SCALAR",
			"min":[0
			],
			"max":[19979
			]
		},
		{
			"bufferView":1,
			"componentType":5126,
			"count":19980,
			"type":"VEC3",
			"min":[-0.305018485,-0.00557172298,-0.219951987
			],
			"max":[0.314615488,1.8217113,0.203907013
			]
		},
		{
			"bufferView":2,
			"componentType":5126,
			"count":19980,
			"type":"VEC2",
			"min":[0.000974658818,0.00577676296
			],
			"max":[0.99791187,0.999025345
			]
		},
		{
			"bufferView":3,
			"componentType":5126,
			"count":19980,
			"type":"VEC3",
			"min":[-0.999029934,-0.999479711,-0.999952793
			],
			"max":[0.998503327,0.99946171,0.999916077
			]
		}
	],
	"buffers":[
		{
			"uri":"evercoast.0037_data.bin",
			"byteLength":679320,
			"name":"main_buffer"
		}
	],
	"bufferViews":[
		{
			"buffer":0,
			"byteLength":39960,
			"target":34963
		},
		{
			"buffer":0,
			"byteOffset":39960,
			"byteLength":239760,
			"target":34962
		},
		{
			"buffer":0,
			"byteOffset":279720,
			"byteLength":159840,
			"target":34962
		},
		{
			"buffer":0,
			"byteOffset":439560,
			"byteLength":239760,
			"target":34962
		}
	],
	"nodes":[
		{
			"name":"HIGH",
			"mesh":0
		}
	],
	"meshes":[
		{
			"primitives":[
				{
					"attributes":{
						"NORMAL":3,
						"TEXCOORD_0":2,
						"POSITION":1
					},
					"indices":0,
					"material":0
				}
			]
		}
	],
	"materials":[
		{
			"name":"Material_1",
			"pbrMetallicRoughness":{
				"metallicFactor":0,
				"baseColorTexture":{
					"index":0
				}
			}
		}
	],
	"scenes":[
		{
			"nodes":[0
			]
		}
	],
	"textures":[
		{
			"source":0
		}
	],
	"images":[
		{
			"uri":"evercoast_0037.jpg",
			"mimeType":"image/jpeg"
		}
	],
	"scene":0
}
