{
	"asset":{
		"version":"2.0",
		"generator":"Houdini GLTF 2.0 Exporter"
	},
	"accessors":[
		{
			"bufferView":0,
			"componentType":5123,
			"count":19992,
			"type":"SCALAR",
			"min":[0
			],
			"max":[19991
			]
		},
		{
			"bufferView":1,
			"componentType":5126,
			"count":19992,
			"type":"VEC3",
			"min":[-0.305919468,-0.016641736,-0.22219193
			],
			"max":[0.305600524,1.82094526,0.201991022
			]
		},
		{
			"bufferView":2,
			"componentType":5126,
			"count":19992,
			"type":"VEC2",
			"min":[0.000974656898,0.00355863571
			],
			"max":[0.997772276,0.999025345
			]
		},
		{
			"bufferView":3,
			"componentType":5126,
			"count":19992,
			"type":"VEC3",
			"min":[-0.999349535,-0.998976171,-0.999966025
			],
			"max":[0.999955952,0.995196939,0.99986726
			]
		}
	],
	"buffers":[
		{
			"uri":"evercoast.0040_data.bin",
			"byteLength":679728,
			"name":"main_buffer"
		}
	],
	"bufferViews":[
		{
			"buffer":0,
			"byteLength":39984,
			"target":34963
		},
		{
			"buffer":0,
			"byteOffset":39984,
			"byteLength":239904,
			"target":34962
		},
		{
			"buffer":0,
			"byteOffset":279888,
			"byteLength":159936,
			"target":34962
		},
		{
			"buffer":0,
			"byteOffset":439824,
			"byteLength":239904,
			"target":34962
		}
	],
	"nodes":[
		{
			"name":"HIGH",
			"mesh":0
		}
	],
	"meshes":[
		{
			"primitives":[
				{
					"attributes":{
						"NORMAL":3,
						"TEXCOORD_0":2,
						"POSITION":1
					},
					"indices":0,
					"material":0
				}
			]
		}
	],
	"materials":[
		{
			"name":"Material_1",
			"pbrMetallicRoughness":{
				"metallicFactor":0,
				"baseColorTexture":{
					"index":0
				}
			}
		}
	],
	"scenes":[
		{
			"nodes":[0
			]
		}
	],
	"textures":[
		{
			"source":0
		}
	],
	"images":[
		{
			"uri":"evercoast_0040.jpg",
			"mimeType":"image/jpeg"
		}
	],
	"scene":0
}
