{
	"asset":{
		"version":"2.0",
		"generator":"Houdini GLTF 2.0 Exporter"
	},
	"accessors":[
		{
			"bufferView":0,
			"componentType":5123,
			"count":19866,
			"type":"SCALAR",
			"min":[0
			],
			"max":[19865
			]
		},
		{
			"bufferView":1,
			"componentType":5126,
			"count":19866,
			"type":"VEC3",
			"min":[-0.286809504,-0.00905179977,-0.236971974
			],
			"max":[0.328558505,1.81434727,0.32170701
			]
		},
		{
			"bufferView":2,
			"componentType":5126,
			"count":19866,
			"type":"VEC2",
			"min":[0.00097465876,0.00198298693
			],
			"max":[0.998559713,0.999025345
			]
		},
		{
			"bufferView":3,
			"componentType":5126,
			"count":19866,
			"type":"VEC3",
			"min":[-0.999941111,-0.999326587,-0.999998868
			],
			"max":[0.999152124,0.999728143,0.999990582
			]
		}
	],
	"buffers":[
		{
			"uri":"evercoast.0117_data.bin",
			"byteLength":675444,
			"name":"main_buffer"
		}
	],
	"bufferViews":[
		{
			"buffer":0,
			"byteLength":39732,
			"target":34963
		},
		{
			"buffer":0,
			"byteOffset":39732,
			"byteLength":238392,
			"target":34962
		},
		{
			"buffer":0,
			"byteOffset":278124,
			"byteLength":158928,
			"target":34962
		},
		{
			"buffer":0,
			"byteOffset":437052,
			"byteLength":238392,
			"target":34962
		}
	],
	"nodes":[
		{
			"name":"HIGH",
			"mesh":0
		}
	],
	"meshes":[
		{
			"primitives":[
				{
					"attributes":{
						"NORMAL":3,
						"TEXCOORD_0":2,
						"POSITION":1
					},
					"indices":0,
					"material":0
				}
			]
		}
	],
	"materials":[
		{
			"name":"Material_1",
			"pbrMetallicRoughness":{
				"metallicFactor":0,
				"baseColorTexture":{
					"index":0
				}
			}
		}
	],
	"scenes":[
		{
			"nodes":[0
			]
		}
	],
	"textures":[
		{
			"source":0
		}
	],
	"images":[
		{
			"uri":"evercoast_0117.jpg",
			"mimeType":"image/jpeg"
		}
	],
	"scene":0
}
