{
	"asset":{
		"version":"2.0",
		"generator":"Houdini GLTF 2.0 Exporter"
	},
	"accessors":[
		{
			"bufferView":0,
			"componentType":5123,
			"count":19974,
			"type":"SCALAR",
			"min":[0
			],
			"max":[19973
			]
		},
		{
			"bufferView":1,
			"componentType":5126,
			"count":19974,
			"type":"VEC3",
			"min":[-0.310711503,-0.0139217377,-0.243942022
			],
			"max":[0.305632532,1.81994224,0.203600049
			]
		},
		{
			"bufferView":2,
			"componentType":5126,
			"count":19974,
			"type":"VEC2",
			"min":[0.000974658877,0.0142489076
			],
			"max":[0.998141348,0.999025345
			]
		},
		{
			"bufferView":3,
			"componentType":5126,
			"count":19974,
			"type":"VEC3",
			"min":[-0.99966675,-0.9987849,-0.999991357
			],
			"max":[0.9998824,0.996163607,0.99976033
			]
		}
	],
	"buffers":[
		{
			"uri":"evercoast.0071_data.bin",
			"byteLength":679116,
			"name":"main_buffer"
		}
	],
	"bufferViews":[
		{
			"buffer":0,
			"byteLength":39948,
			"target":34963
		},
		{
			"buffer":0,
			"byteOffset":39948,
			"byteLength":239688,
			"target":34962
		},
		{
			"buffer":0,
			"byteOffset":279636,
			"byteLength":159792,
			"target":34962
		},
		{
			"buffer":0,
			"byteOffset":439428,
			"byteLength":239688,
			"target":34962
		}
	],
	"nodes":[
		{
			"name":"HIGH",
			"mesh":0
		}
	],
	"meshes":[
		{
			"primitives":[
				{
					"attributes":{
						"NORMAL":3,
						"TEXCOORD_0":2,
						"POSITION":1
					},
					"indices":0,
					"material":0
				}
			]
		}
	],
	"materials":[
		{
			"name":"Material_1",
			"pbrMetallicRoughness":{
				"metallicFactor":0,
				"baseColorTexture":{
					"index":0
				}
			}
		}
	],
	"scenes":[
		{
			"nodes":[0
			]
		}
	],
	"textures":[
		{
			"source":0
		}
	],
	"images":[
		{
			"uri":"evercoast_0071.jpg",
			"mimeType":"image/jpeg"
		}
	],
	"scene":0
}
