{
	"asset":{
		"version":"2.0",
		"generator":"Houdini GLTF 2.0 Exporter"
	},
	"accessors":[
		{
			"bufferView":0,
			"componentType":5123,
			"count":20007,
			"type":"SCALAR",
			"min":[0
			],
			"max":[20006
			]
		},
		{
			"bufferView":1,
			"componentType":5126,
			"count":20007,
			"type":"VEC3",
			"min":[-0.307120502,-0.00618171692,-0.222991943
			],
			"max":[0.305703521,1.82095718,0.201042056
			]
		},
		{
			"bufferView":2,
			"componentType":5126,
			"count":20007,
			"type":"VEC2",
			"min":[0.000974658877,0.0147266984
			],
			"max":[0.998033822,0.999025345
			]
		},
		{
			"bufferView":3,
			"componentType":5126,
			"count":20007,
			"type":"VEC3",
			"min":[-0.999632418,-0.999884844,-0.999902606
			],
			"max":[0.999619484,0.997325301,0.999375522
			]
		}
	],
	"buffers":[
		{
			"uri":"evercoast.0043_data.bin",
			"byteLength":680240,
			"name":"main_buffer"
		}
	],
	"bufferViews":[
		{
			"buffer":0,
			"byteLength":40014,
			"target":34963
		},
		{
			"buffer":0,
			"byteOffset":40016,
			"byteLength":240084,
			"target":34962
		},
		{
			"buffer":0,
			"byteOffset":280100,
			"byteLength":160056,
			"target":34962
		},
		{
			"buffer":0,
			"byteOffset":440156,
			"byteLength":240084,
			"target":34962
		}
	],
	"nodes":[
		{
			"name":"HIGH",
			"mesh":0
		}
	],
	"meshes":[
		{
			"primitives":[
				{
					"attributes":{
						"NORMAL":3,
						"TEXCOORD_0":2,
						"POSITION":1
					},
					"indices":0,
					"material":0
				}
			]
		}
	],
	"materials":[
		{
			"name":"Material_1",
			"pbrMetallicRoughness":{
				"metallicFactor":0,
				"baseColorTexture":{
					"index":0
				}
			}
		}
	],
	"scenes":[
		{
			"nodes":[0
			]
		}
	],
	"textures":[
		{
			"source":0
		}
	],
	"images":[
		{
			"uri":"evercoast_0043.jpg",
			"mimeType":"image/jpeg"
		}
	],
	"scene":0
}
