{
	"asset":{
		"version":"2.0",
		"generator":"Houdini GLTF 2.0 Exporter"
	},
	"accessors":[
		{
			"bufferView":0,
			"componentType":5123,
			"count":19974,
			"type":"SCALAR",
			"min":[0
			],
			"max":[19973
			]
		},
		{
			"bufferView":1,
			"componentType":5126,
			"count":19974,
			"type":"VEC3",
			"min":[-0.309278488,-0.0179917812,-0.225401998
			],
			"max":[0.310106516,1.82039726,0.198625028
			]
		},
		{
			"bufferView":2,
			"componentType":5126,
			"count":19974,
			"type":"VEC2",
			"min":[0.000974658877,0.011560142
			],
			"max":[0.99803251,0.999025345
			]
		},
		{
			"bufferView":3,
			"componentType":5126,
			"count":19974,
			"type":"VEC3",
			"min":[-0.999286652,-0.999436557,-0.999943316
			],
			"max":[0.999854028,0.995147049,0.999995828
			]
		}
	],
	"buffers":[
		{
			"uri":"evercoast.0048_data.bin",
			"byteLength":679116,
			"name":"main_buffer"
		}
	],
	"bufferViews":[
		{
			"buffer":0,
			"byteLength":39948,
			"target":34963
		},
		{
			"buffer":0,
			"byteOffset":39948,
			"byteLength":239688,
			"target":34962
		},
		{
			"buffer":0,
			"byteOffset":279636,
			"byteLength":159792,
			"target":34962
		},
		{
			"buffer":0,
			"byteOffset":439428,
			"byteLength":239688,
			"target":34962
		}
	],
	"nodes":[
		{
			"name":"HIGH",
			"mesh":0
		}
	],
	"meshes":[
		{
			"primitives":[
				{
					"attributes":{
						"NORMAL":3,
						"TEXCOORD_0":2,
						"POSITION":1
					},
					"indices":0,
					"material":0
				}
			]
		}
	],
	"materials":[
		{
			"name":"Material_1",
			"pbrMetallicRoughness":{
				"metallicFactor":0,
				"baseColorTexture":{
					"index":0
				}
			}
		}
	],
	"scenes":[
		{
			"nodes":[0
			]
		}
	],
	"textures":[
		{
			"source":0
		}
	],
	"images":[
		{
			"uri":"evercoast_0048.jpg",
			"mimeType":"image/jpeg"
		}
	],
	"scene":0
}
