{
	"asset":{
		"version":"2.0",
		"generator":"Houdini GLTF 2.0 Exporter"
	},
	"accessors":[
		{
			"bufferView":0,
			"componentType":5123,
			"count":19920,
			"type":"SCALAR",
			"min":[0
			],
			"max":[19919
			]
		},
		{
			"bufferView":1,
			"componentType":5126,
			"count":19920,
			"type":"VEC3",
			"min":[-0.306489468,-0.00991177559,-0.213822007
			],
			"max":[0.304707527,1.82177615,0.207516015
			]
		},
		{
			"bufferView":2,
			"componentType":5126,
			"count":19920,
			"type":"VEC2",
			"min":[0.000974658877,0.0180120468
			],
			"max":[0.997938335,0.999025345
			]
		},
		{
			"bufferView":3,
			"componentType":5126,
			"count":19920,
			"type":"VEC3",
			"min":[-0.9997679,-0.999973655,-0.999979198
			],
			"max":[0.999810994,0.999865115,0.999950647
			]
		}
	],
	"buffers":[
		{
			"uri":"evercoast.0028_data.bin",
			"byteLength":677280,
			"name":"main_buffer"
		}
	],
	"bufferViews":[
		{
			"buffer":0,
			"byteLength":39840,
			"target":34963
		},
		{
			"buffer":0,
			"byteOffset":39840,
			"byteLength":239040,
			"target":34962
		},
		{
			"buffer":0,
			"byteOffset":278880,
			"byteLength":159360,
			"target":34962
		},
		{
			"buffer":0,
			"byteOffset":438240,
			"byteLength":239040,
			"target":34962
		}
	],
	"nodes":[
		{
			"name":"HIGH",
			"mesh":0
		}
	],
	"meshes":[
		{
			"primitives":[
				{
					"attributes":{
						"NORMAL":3,
						"TEXCOORD_0":2,
						"POSITION":1
					},
					"indices":0,
					"material":0
				}
			]
		}
	],
	"materials":[
		{
			"name":"Material_1",
			"pbrMetallicRoughness":{
				"metallicFactor":0,
				"baseColorTexture":{
					"index":0
				}
			}
		}
	],
	"scenes":[
		{
			"nodes":[0
			]
		}
	],
	"textures":[
		{
			"source":0
		}
	],
	"images":[
		{
			"uri":"evercoast_0028.jpg",
			"mimeType":"image/jpeg"
		}
	],
	"scene":0
}
