{
	"asset":{
		"version":"2.0",
		"generator":"Houdini GLTF 2.0 Exporter"
	},
	"accessors":[
		{
			"bufferView":0,
			"componentType":5123,
			"count":19935,
			"type":"SCALAR",
			"min":[0
			],
			"max":[19934
			]
		},
		{
			"bufferView":1,
			"componentType":5126,
			"count":19935,
			"type":"VEC3",
			"min":[-0.277645469,-0.0161217451,-0.237771988
			],
			"max":[0.359610498,1.80918932,0.160955012
			]
		},
		{
			"bufferView":2,
			"componentType":5126,
			"count":19935,
			"type":"VEC2",
			"min":[0.000974658877,0.00364017487
			],
			"max":[0.998328149,0.999025345
			]
		},
		{
			"bufferView":3,
			"componentType":5126,
			"count":19935,
			"type":"VEC3",
			"min":[-0.999774754,-0.999950349,-0.99984324
			],
			"max":[0.998789907,0.999101698,0.999728501
			]
		}
	],
	"buffers":[
		{
			"uri":"evercoast.0137_data.bin",
			"byteLength":677792,
			"name":"main_buffer"
		}
	],
	"bufferViews":[
		{
			"buffer":0,
			"byteLength":39870,
			"target":34963
		},
		{
			"buffer":0,
			"byteOffset":39872,
			"byteLength":239220,
			"target":34962
		},
		{
			"buffer":0,
			"byteOffset":279092,
			"byteLength":159480,
			"target":34962
		},
		{
			"buffer":0,
			"byteOffset":438572,
			"byteLength":239220,
			"target":34962
		}
	],
	"nodes":[
		{
			"name":"HIGH",
			"mesh":0
		}
	],
	"meshes":[
		{
			"primitives":[
				{
					"attributes":{
						"NORMAL":3,
						"TEXCOORD_0":2,
						"POSITION":1
					},
					"indices":0,
					"material":0
				}
			]
		}
	],
	"materials":[
		{
			"name":"Material_1",
			"pbrMetallicRoughness":{
				"metallicFactor":0,
				"baseColorTexture":{
					"index":0
				}
			}
		}
	],
	"scenes":[
		{
			"nodes":[0
			]
		}
	],
	"textures":[
		{
			"source":0
		}
	],
	"images":[
		{
			"uri":"evercoast_0137.jpg",
			"mimeType":"image/jpeg"
		}
	],
	"scene":0
}
