{
	"asset":{
		"version":"2.0",
		"generator":"Houdini GLTF 2.0 Exporter"
	},
	"accessors":[
		{
			"bufferView":0,
			"componentType":5123,
			"count":19956,
			"type":"SCALAR",
			"min":[0
			],
			"max":[19955
			]
		},
		{
			"bufferView":1,
			"componentType":5126,
			"count":19956,
			"type":"VEC3",
			"min":[-0.276731491,-0.0046517849,-0.241431952
			],
			"max":[0.32900852,1.81584716,0.280003011
			]
		},
		{
			"bufferView":2,
			"componentType":5126,
			"count":19956,
			"type":"VEC2",
			"min":[0.000974658877,0.0062430501
			],
			"max":[0.998172402,0.999025345
			]
		},
		{
			"bufferView":3,
			"componentType":5126,
			"count":19956,
			"type":"VEC3",
			"min":[-0.999702811,-0.999817014,-0.999907613
			],
			"max":[0.999841571,0.997011602,0.999939561
			]
		}
	],
	"buffers":[
		{
			"uri":"evercoast.0123_data.bin",
			"byteLength":678504,
			"name":"main_buffer"
		}
	],
	"bufferViews":[
		{
			"buffer":0,
			"byteLength":39912,
			"target":34963
		},
		{
			"buffer":0,
			"byteOffset":39912,
			"byteLength":239472,
			"target":34962
		},
		{
			"buffer":0,
			"byteOffset":279384,
			"byteLength":159648,
			"target":34962
		},
		{
			"buffer":0,
			"byteOffset":439032,
			"byteLength":239472,
			"target":34962
		}
	],
	"nodes":[
		{
			"name":"HIGH",
			"mesh":0
		}
	],
	"meshes":[
		{
			"primitives":[
				{
					"attributes":{
						"NORMAL":3,
						"TEXCOORD_0":2,
						"POSITION":1
					},
					"indices":0,
					"material":0
				}
			]
		}
	],
	"materials":[
		{
			"name":"Material_1",
			"pbrMetallicRoughness":{
				"metallicFactor":0,
				"baseColorTexture":{
					"index":0
				}
			}
		}
	],
	"scenes":[
		{
			"nodes":[0
			]
		}
	],
	"textures":[
		{
			"source":0
		}
	],
	"images":[
		{
			"uri":"evercoast_0123.jpg",
			"mimeType":"image/jpeg"
		}
	],
	"scene":0
}
