{
	"asset":{
		"version":"2.0",
		"generator":"Houdini GLTF 2.0 Exporter"
	},
	"accessors":[
		{
			"bufferView":0,
			"componentType":5123,
			"count":19905,
			"type":"SCALAR",
			"min":[0
			],
			"max":[19904
			]
		},
		{
			"bufferView":1,
			"componentType":5126,
			"count":19905,
			"type":"VEC3",
			"min":[-0.310787499,-0.0169517994,-0.236171961
			],
			"max":[0.300700486,1.82015121,0.20154506
			]
		},
		{
			"bufferView":2,
			"componentType":5126,
			"count":19905,
			"type":"VEC2",
			"min":[0.000974658877,0.00823360682
			],
			"max":[0.997525871,0.999025345
			]
		},
		{
			"bufferView":3,
			"componentType":5126,
			"count":19905,
			"type":"VEC3",
			"min":[-0.999790609,-0.99581939,-0.999840617
			],
			"max":[0.999570012,0.998987019,0.999895692
			]
		}
	],
	"buffers":[
		{
			"uri":"evercoast.0069_data.bin",
			"byteLength":676772,
			"name":"main_buffer"
		}
	],
	"bufferViews":[
		{
			"buffer":0,
			"byteLength":39810,
			"target":34963
		},
		{
			"buffer":0,
			"byteOffset":39812,
			"byteLength":238860,
			"target":34962
		},
		{
			"buffer":0,
			"byteOffset":278672,
			"byteLength":159240,
			"target":34962
		},
		{
			"buffer":0,
			"byteOffset":437912,
			"byteLength":238860,
			"target":34962
		}
	],
	"nodes":[
		{
			"name":"HIGH",
			"mesh":0
		}
	],
	"meshes":[
		{
			"primitives":[
				{
					"attributes":{
						"NORMAL":3,
						"TEXCOORD_0":2,
						"POSITION":1
					},
					"indices":0,
					"material":0
				}
			]
		}
	],
	"materials":[
		{
			"name":"Material_1",
			"pbrMetallicRoughness":{
				"metallicFactor":0,
				"baseColorTexture":{
					"index":0
				}
			}
		}
	],
	"scenes":[
		{
			"nodes":[0
			]
		}
	],
	"textures":[
		{
			"source":0
		}
	],
	"images":[
		{
			"uri":"evercoast_0069.jpg",
			"mimeType":"image/jpeg"
		}
	],
	"scene":0
}
